<?xml version="1.0" encoding="UTF-8"?>
<svg version="1.1" xmlns="http://www.w3.org/2000/svg" width="372" height="354">
<path d="M0 0 C122.76 0 245.52 0 372 0 C372 116.82 372 233.64 372 354 C249.24 354 126.48 354 0 354 C0 237.18 0 120.36 0 0 Z " fill="#FDFDFD" transform="translate(0,0)"/>
<path d="M0 0 C2.8125 -0.25 2.8125 -0.25 6 0 C9.47141874 3.27162486 9.68638076 7.16800174 10.125 11.6875 C10.22702925 16.21325113 10.22702925 16.21325113 12 20 C12.13368676 21.79377165 12.2035038 23.59238281 12.24609375 25.390625 C12.27896484 26.49277344 12.31183594 27.59492187 12.34570312 28.73046875 C12.4064912 31.06110935 12.46383046 33.39184266 12.51757812 35.72265625 C12.55173828 36.82996094 12.58589844 37.93726563 12.62109375 39.078125 C12.6461499 40.09293945 12.67120605 41.10775391 12.69702148 42.15332031 C13.01154771 45.10849824 13.8665006 47.27240284 15 50 C15.07646165 52.3320802 15.09143299 54.66845878 15 57 C16.65 57 18.3 57 20 57 C19.8595017 54.2079699 19.71284617 51.41650204 19.5625 48.625 C19.52318359 47.8309375 19.48386719 47.036875 19.44335938 46.21875 C19.31106596 41.97398779 19.31106596 41.97398779 18 38 C17.76901279 34.80284373 17.60514258 31.61286733 17.48242188 28.41015625 C17.38638447 24.25225443 17.38638447 24.25225443 15 21 C14.5859375 18.6171875 14.5859375 18.6171875 14.375 15.875 C14.30023438 14.96492188 14.22546875 14.05484375 14.1484375 13.1171875 C14.09945312 12.41851562 14.05046875 11.71984375 14 11 C15.921875 11.3203125 15.921875 11.3203125 18 12 C19.38150201 15.17745463 20 17.53122824 20 21 C20.99 21 21.98 21 23 21 C23 23.97 23 26.94 23 30 C23.66 30 24.32 30 25 30 C25 27.03 25 24.06 25 21 C29 22 29 22 31.125 25.125 C33.60149097 30.43731593 33.9984324 36.14400828 34.60546875 41.90234375 C34.66176818 44.86580212 34.66176818 44.86580212 36 46 C36.08726223 47.78071246 36.10699041 49.5648314 36.09765625 51.34765625 C36.09282227 52.96704102 36.09282227 52.96704102 36.08789062 54.61914062 C36.07532227 56.32360352 36.07532227 56.32360352 36.0625 58.0625 C36.05798828 59.20267578 36.05347656 60.34285156 36.04882812 61.51757812 C36.03699747 64.34510351 36.0205141 67.1725264 36 70 C36.66 70 37.32 70 38 70 C38.33 62.41 38.66 54.82 39 47 C40.485 47.495 40.485 47.495 42 48 C44.47707846 54.6177891 44.33786528 61.16266978 44.31567383 68.11352539 C44.31253378 70.16542746 44.33594955 72.21585568 44.36132812 74.26757812 C44.41845745 85.60976222 42.88375347 95.77419925 37.1875 105.6875 C36.6630127 106.63484009 36.6630127 106.63484009 36.12792969 107.60131836 C33.33724148 112.57677137 30.2742193 117.32956707 27 122 C26.319375 123.0725 25.63875 124.145 24.9375 125.25 C19.37183801 133.14964928 11.10775467 139.84051976 3 145 C2.13375 145.721875 1.2675 146.44375 0.375 147.1875 C-1.87533794 148.90486316 -3.24170306 149.59136342 -6 150 C-6 150.66 -6 151.32 -6 152 C-7.65 152 -9.3 152 -11 152 C-11.35271085 144.59307217 -10.33113024 138.66226048 -7 132 C-6.76285472 128.8597182 -6.8148166 125.71076199 -6.8125 122.5625 C-6.79413086 121.25442383 -6.79413086 121.25442383 -6.77539062 119.91992188 C-6.77345703 119.08138672 -6.77152344 118.24285156 -6.76953125 117.37890625 C-6.76542236 116.6113501 -6.76131348 115.84379395 -6.75708008 115.05297852 C-6.87949025 112.68992087 -6.87949025 112.68992087 -9 110 C-9 109.01 -9 108.02 -9 107 C-9.66 107 -10.32 107 -11 107 C-11.804375 105.4840625 -11.804375 105.4840625 -12.625 103.9375 C-14.54979375 100.56742252 -16.78935185 97.77733353 -19.359375 94.8828125 C-23.41732656 90.22583 -27.14230131 85.2859962 -30.625 80.1875 C-32.90013926 77.13402362 -35.02537743 75.32165664 -38 73 C-39.58347442 71.2606395 -41.08481062 69.47273147 -42.57421875 67.65234375 C-44.05187878 65.84317033 -44.05187878 65.84317033 -46.375 64.0625 C-48.92251882 60.82911073 -48.26872624 58.03089365 -48 54 C-47.34 54 -46.68 54 -46 54 C-46 53.34 -46 52.68 -46 52 C-36.26004228 51.42706131 -36.26004228 51.42706131 -32 55 C-32 55.66 -32 56.32 -32 57 C-31.29488281 57.05285156 -30.58976562 57.10570312 -29.86328125 57.16015625 C-26.02529531 58.28589565 -23.87020383 60.61869104 -21.1875 63.4375 C-20.68541016 63.94087891 -20.18332031 64.44425781 -19.66601562 64.96289062 C-16 68.71868622 -16 68.71868622 -16 71 C-15.34 71 -14.68 71 -14 71 C-14 71.66 -14 72.32 -14 73 C-13.01 73 -12.02 73 -11 73 C-11 73.99 -11 74.98 -11 76 C-8.35261084 77.4606285 -7.10551666 78 -4 78 C-1.12265958 75.81322128 -0.12945529 73.37545899 1 70 C1.29344345 67.07888074 1.29344345 67.07888074 1.24291992 63.94042969 C1.24599655 62.74278992 1.24907318 61.54515015 1.25224304 60.31121826 C1.24505753 59.02773499 1.23787201 57.74425171 1.23046875 56.421875 C1.22927583 55.08620244 1.22882402 53.75052903 1.2290802 52.41485596 C1.2275202 49.62417301 1.21926428 46.83361923 1.20581055 44.04296875 C1.18875532 40.45932957 1.18499834 36.87583124 1.18575573 33.29215622 C1.18541933 29.87704346 1.17658985 26.46197733 1.16796875 23.046875 C1.16685593 21.7552948 1.1657431 20.4637146 1.16459656 19.13299561 C1.15821671 17.94796448 1.15183685 16.76293335 1.14526367 15.54199219 C1.14145187 14.49340027 1.13764008 13.44480835 1.13371277 12.36444092 C1.26578919 10.04377099 1.26578919 10.04377099 0 9 C-0.07179964 7.48071962 -0.08392007 5.95832518 -0.0625 4.4375 C-0.05347656 3.61121094 -0.04445312 2.78492187 -0.03515625 1.93359375 C-0.02355469 1.29550781 -0.01195312 0.65742187 0 0 Z " fill="#A06E75" transform="translate(245,93)"/>
<path d="M0 0 C2.31 0 4.62 0 7 0 C7.02712153 1.916588 7.04645097 3.8332873 7.0625 5.75 C7.07410156 6.81734375 7.08570313 7.8846875 7.09765625 8.984375 C7 12 7 12 6.50198364 13.91636658 C5.96692293 16.13729626 5.87303954 18.07153682 5.87060547 20.35375977 C5.86587723 21.63012047 5.86587723 21.63012047 5.86105347 22.93226624 C5.8630777 23.84278244 5.86510193 24.75329865 5.8671875 25.69140625 C5.86623077 26.63306137 5.86527405 27.57471649 5.86428833 28.54490662 C5.86360862 30.53278673 5.86544831 32.52066909 5.86962891 34.50854492 C5.87498606 37.55457527 5.86967375 40.60045857 5.86328125 43.64648438 C5.86394195 45.57812533 5.86522295 47.50976619 5.8671875 49.44140625 C5.86516327 50.35394669 5.86313904 51.26648712 5.86105347 52.2066803 C5.86420563 53.05443527 5.86735779 53.90219025 5.87060547 54.77563477 C5.87140106 55.52079849 5.87219666 56.26596222 5.87301636 57.03370667 C5.93011737 59.21440474 5.93011737 59.21440474 7 62 C7.2311483 65.32168665 7.38108241 68.64213627 7.5234375 71.96875 C7.75283107 74.97533974 7.75283107 74.97533974 9.40234375 76.86328125 C11.24080577 78.17133124 12.78906024 78.61880349 15 79 C15 78.34 15 77.68 15 77 C20.47619048 72 20.47619048 72 23 72 C23 71.01 23 70.02 23 69 C23.66 68.67 24.32 68.34 25 68 C25.350625 67.29875 25.70125 66.5975 26.0625 65.875 C28.92566084 61.62643875 32.83364814 58.92059881 37 56 C37.77988281 55.43925781 38.55976563 54.87851563 39.36328125 54.30078125 C42.69469075 52.6572859 45.1185222 52.70056128 48.8125 52.8125 C50.55466797 52.85310547 50.55466797 52.85310547 52.33203125 52.89453125 C53.21246094 52.92933594 54.09289062 52.96414062 55 53 C55.78316087 61.96284102 55.78316087 61.96284102 52.6875 66.0625 C50 68 50 68 47 69 C47 69.66 47 70.32 47 71 C45.625 72.625 45.625 72.625 44 74 C43.34 74 42.68 74 42 74 C41.73574219 74.57492188 41.47148437 75.14984375 41.19921875 75.7421875 C39.93881469 78.1151958 38.49796574 80.03455966 36.8125 82.125 C33.51974744 86.27882802 30.47209082 90.55911663 27.48046875 94.93359375 C26 97 26 97 24 99 C23.87625 99.61875 23.7525 100.2375 23.625 100.875 C23 103 23 103 21.25 104.625 C16.25205817 109.90060526 13.6858233 115.78751784 13.5 123.0625 C13.70091545 127.677646 14.53809181 131.59682775 16.20703125 135.890625 C17.02869679 138.0763363 17.55765638 140.22214559 18.0625 142.5 C18.371875 143.655 18.68125 144.81 19 146 C19.66 146.33 20.32 146.66 21 147 C21 148.98 21 150.96 21 153 C15.20210273 153.45330344 12.2985308 152.447908 7.5625 149.125 C6.51191406 148.40570313 5.46132812 147.68640625 4.37890625 146.9453125 C3.59386719 146.30335938 2.80882812 145.66140625 2 145 C2 144.34 2 143.68 2 143 C1.34 143 0.68 143 0 143 C-1.35735142 141.69112542 -2.68505488 140.35147138 -4 139 C-5.010625 138.195625 -6.02125 137.39125 -7.0625 136.5625 C-9.84235215 134.13752259 -11.20808492 132.15718371 -13 129 C-14.485 128.01 -14.485 128.01 -16 127 C-16 126.34 -16 125.68 -16 125 C-17.485 124.505 -17.485 124.505 -19 124 C-20.4296875 121.9609375 -20.4296875 121.9609375 -21.875 119.375 C-23.61495408 116.32041394 -25.32360006 113.51754315 -27.5625 110.8125 C-32.97283525 103.42362791 -35.44434892 92.74016271 -35.859375 83.7578125 C-35.81097408 81.97287043 -35.81097408 81.97287043 -37 81 C-37.0983721 79.66956375 -37.13078592 78.33406656 -37.1328125 77 C-37.13410156 76.195625 -37.13539062 75.39125 -37.13671875 74.5625 C-37.13285156 73.716875 -37.12898438 72.87125 -37.125 72 C-37.12886719 71.154375 -37.13273437 70.30875 -37.13671875 69.4375 C-37.13542969 68.633125 -37.13414063 67.82875 -37.1328125 67 C-37.13168457 66.2575 -37.13055664 65.515 -37.12939453 64.75 C-37 63 -37 63 -36 62 C-35.60333773 59.81980521 -35.25684763 57.6303537 -34.9375 55.4375 C-34.67259766 53.64119141 -34.67259766 53.64119141 -34.40234375 51.80859375 C-34.26957031 50.88175781 -34.13679688 49.95492187 -34 49 C-32 51 -32 51 -31.77294922 53.06298828 C-31.78342285 53.89040527 -31.79389648 54.71782227 -31.8046875 55.5703125 C-31.81113281 56.46621094 -31.81757812 57.36210937 -31.82421875 58.28515625 C-31.84097656 59.22230469 -31.85773438 60.15945312 -31.875 61.125 C-31.88402344 62.06988281 -31.89304687 63.01476562 -31.90234375 63.98828125 C-31.92595478 66.32577292 -31.95888484 68.66276123 -32 71 C-31.01 71 -30.02 71 -29 71 C-29 64.07 -29 57.14 -29 50 C-28.01 49.505 -28.01 49.505 -27 49 C-26.71371668 46.4736235 -26.53282808 44.03433175 -26.4375 41.5 C-26.11924736 34.11924736 -26.11924736 34.11924736 -25 33 C-24.63239269 30.67182036 -24.29758419 28.3381615 -24 26 C-23.34 26 -22.68 26 -22 26 C-21.67 24.68 -21.34 23.36 -21 22 C-20.34 22 -19.68 22 -19 22 C-18.95758277 24.33294775 -18.95907063 26.66702567 -19 29 C-19.33 29.33 -19.66 29.66 -20 30 C-20.37257052 32.13936977 -20.69850082 34.28696285 -21 36.4375 C-21.89160305 42.78320611 -21.89160305 42.78320611 -23 45 C-23.15175549 46.59262066 -23.24900325 48.19064856 -23.31640625 49.7890625 C-23.35830078 50.73007813 -23.40019531 51.67109375 -23.44335938 52.640625 C-23.48267578 53.62546875 -23.52199219 54.6103125 -23.5625 55.625 C-23.60568359 56.61757812 -23.64886719 57.61015625 -23.69335938 58.6328125 C-23.79961069 61.08839838 -23.90164964 63.54408703 -24 66 C-23.34 66 -22.68 66 -22 66 C-21.93941406 64.92878906 -21.87882812 63.85757813 -21.81640625 62.75390625 C-21.73201463 61.35675609 -21.64736594 59.95962143 -21.5625 58.5625 C-21.52318359 57.85544922 -21.48386719 57.14839844 -21.44335938 56.41992188 C-21.11328125 51.11328125 -21.11328125 51.11328125 -20 50 C-19.76281257 46.3894803 -19.60344319 42.78580251 -19.48242188 39.16992188 C-19.21328125 33.21328125 -19.21328125 33.21328125 -17 31 C-16.45051478 29.17203399 -16.45051478 29.17203399 -16.1484375 27.0859375 C-16.01953125 26.32539062 -15.890625 25.56484375 -15.7578125 24.78125 C-15.63148437 23.9871875 -15.50515625 23.193125 -15.375 22.375 C-15.2409375 21.57320312 -15.106875 20.77140625 -14.96875 19.9453125 C-14.63865211 17.96472516 -14.31838917 15.98250325 -14 14 C-13.01 14 -12.02 14 -11 14 C-11 13.01 -11 12.02 -11 11 C-10.01 11.33 -9.02 11.66 -8 12 C-7.85709201 16.07287759 -7.78400882 19.26563 -8.9375 23.1875 C-10.22543294 27.80890643 -10.47890024 32.23559391 -10.75390625 37.01171875 C-11 40 -11 40 -11.4921875 41.94140625 C-12.25107427 45.01781645 -12.35783359 48.09228971 -12.5625 51.25 C-12.64628906 52.51328125 -12.73007813 53.7765625 -12.81640625 55.078125 C-12.90728516 56.52445313 -12.90728516 56.52445313 -13 58 C-11.68 58 -10.36 58 -9 58 C-7.38868278 53.01287673 -6.73357133 48.74587694 -6.65625 43.45703125 C-6.6416272 42.76614914 -6.62700439 42.07526703 -6.61193848 41.3634491 C-6.55024214 38.43884843 -6.5100145 35.51405402 -6.46826172 32.58911133 C-6.43447339 30.44069718 -6.38940698 28.29272068 -6.34375 26.14453125 C-6.32505859 24.86940674 -6.30636719 23.59428223 -6.28710938 22.28051758 C-6.01475515 19.16859268 -5.49023799 17.65457684 -4 15 C-3.77464489 13.03619119 -3.55080825 11.07209813 -3.3515625 9.10546875 C-2.79595616 5.77800411 -1.45308717 3.03252974 0 0 Z " fill="#A16F76" transform="translate(116,92)"/>
<path d="M0 0 C1.32 0.33 2.64 0.66 4 1 C4.495 3.475 4.495 3.475 5 6 C5.66 6 6.32 6 7 6 C7 9.96 7 13.92 7 18 C10.63 17.67 14.26 17.34 18 17 C18.5775 18.0725 19.155 19.145 19.75 20.25 C21.48583557 23.31870931 23.4564071 25.54724971 26 28 C26 28.66 26 29.32 26 30 C27.485 30.495 27.485 30.495 29 31 C31 34 31 34 31 37 C32.485 37.495 32.485 37.495 34 38 C37.40012316 41.66830188 39.34254227 45.61121429 39.5 50.625 C39.01143923 59.65639483 37.05419362 68.89161276 33 77 C32.34 77 31.68 77 31 77 C31 78.65 31 80.3 31 82 C24.16336482 85.57939015 17.39609447 88.75840574 10.08203125 91.23828125 C8.03992206 91.8197075 8.03992206 91.8197075 7 93 C4.52323239 93.13839357 2.07643098 93.21316565 -0.40234375 93.23828125 C-1.15407364 93.246353 -1.90580353 93.25442474 -2.68031311 93.26274109 C-4.28009726 93.27660766 -5.87991133 93.28731824 -7.47973633 93.29516602 C-9.89659574 93.31221151 -12.3120261 93.3560491 -14.72851562 93.40039062 C-23.23088833 93.48402919 -30.35968882 93.2520933 -38 89 C-38 88.34 -38 87.68 -38 87 C-40.31 87 -42.62 87 -45 87 C-45 86.34 -45 85.68 -45 85 C-45.763125 85.0825 -46.52625 85.165 -47.3125 85.25 C-50 85 -50 85 -51.59765625 83.33984375 C-53.22892849 80.61802739 -53.66535511 78.44226383 -54.125 75.3125 C-54.39269027 71.84764196 -54.39269027 71.84764196 -56 69 C-56.27953219 66.9412232 -56.44734351 64.88271568 -56.62109375 62.8125 C-56.74613281 62.214375 -56.87117187 61.61625 -57 61 C-57.66 60.67 -58.32 60.34 -59 60 C-59.05383848 57.54137599 -59.09359038 55.0839245 -59.125 52.625 C-59.14175781 51.92632812 -59.15851563 51.22765625 -59.17578125 50.5078125 C-59.19344267 48.67102514 -59.10303261 46.83398037 -59 45 C-58.34 44.34 -57.68 43.68 -57 43 C-56.3574765 40.93125966 -56.3574765 40.93125966 -56 39 C-55.34 39 -54.68 39 -54 39 C-53.9175 38.38125 -53.835 37.7625 -53.75 37.125 C-53 35 -53 35 -49 33 C-48.67 36.3 -48.34 39.6 -48 43 C-48.99 43.495 -48.99 43.495 -50 44 C-50 48.95 -50 53.9 -50 59 C-49.34 59.33 -48.68 59.66 -48 60 C-48 61.32 -48 62.64 -48 64 C-47.34 64 -46.68 64 -46 64 C-45.01 67.3 -44.02 70.6 -43 74 C-40.03 74 -37.06 74 -34 74 C-34 73.34 -34 72.68 -34 72 C-32.02 71.505 -32.02 71.505 -30 71 C-30 70.34 -30 69.68 -30 69 C-29.01 69 -28.02 69 -27 69 C-26.87625 68.401875 -26.7525 67.80375 -26.625 67.1875 C-26 65 -26 65 -24 62 C-21.6171875 61.05078125 -21.6171875 61.05078125 -18.875 60.3125 C-17.96492188 60.06113281 -17.05484375 59.80976563 -16.1171875 59.55078125 C-15.41851562 59.36902344 -14.71984375 59.18726563 -14 59 C-14.03480469 58.10796875 -14.06960937 57.2159375 -14.10546875 56.296875 C-14.13253906 55.12640625 -14.15960938 53.9559375 -14.1875 52.75 C-14.23970703 51.00976562 -14.23970703 51.00976562 -14.29296875 49.234375 C-13.97927287 45.77117245 -13.46132762 44.40769094 -11 42 C-10.34 42 -9.68 42 -9 42 C-9 41.34 -9 40.68 -9 40 C-5.14243493 37.84694043 -2.44870215 36.60746746 2 37 C2 36.34 2 35.68 2 35 C4.475 34.505 4.475 34.505 7 34 C7 33.34 7 32.68 7 32 C10.46153846 29 10.46153846 29 13 29 C13 28.34 13 27.68 13 27 C13.66 27 14.32 27 15 27 C15 25.35 15 23.7 15 22 C11.37 22 7.74 22 4 22 C4 19.36 4 16.72 4 14 C3.34 14 2.68 14 2 14 C2 10.37 2 6.74 2 3 C1.01 3 0.02 3 -1 3 C-0.67 2.01 -0.34 1.02 0 0 Z " fill="#80473C" transform="translate(195,163)"/>
<path d="M0 0 C0.88494141 -0.00773437 1.76988281 -0.01546875 2.68164062 -0.0234375 C7.2745904 -0.00965521 10.72628559 0.25197857 14.9375 2.25 C17.07414599 2.61839739 17.07414599 2.61839739 19.125 2.75 C22.9375 3.25 22.9375 3.25 24.9375 5.25 C28.03093096 6.11772257 31.14695599 6.78215208 34.28515625 7.46875 C35.59806641 7.85546875 35.59806641 7.85546875 36.9375 8.25 C37.4325 9.24 37.4325 9.24 37.9375 10.25 C39.61863845 11.21563662 41.33318331 12.12356157 43.0625 13 C47.99553662 15.62409249 51.94298727 18.34425422 55.9375 22.25 C55.9375 22.91 55.9375 23.57 55.9375 24.25 C55.2775 24.58 54.6175 24.91 53.9375 25.25 C53.28536708 27.27463255 53.28536708 27.27463255 52.9375 29.25 C51.29175434 29.27688151 49.64588587 29.29634123 48 29.3125 C46.62521484 29.32990234 46.62521484 29.32990234 45.22265625 29.34765625 C42.9375 29.25 42.9375 29.25 41.9375 28.25 C39.24514224 28.01321284 36.57251844 27.82801975 33.875 27.6875 C32.73708008 27.62272461 32.73708008 27.62272461 31.57617188 27.55664062 C29.69684562 27.45026367 27.81719756 27.34960066 25.9375 27.25 C26.4325 25.765 26.4325 25.765 26.9375 24.25 C28.2575 24.25 29.5775 24.25 30.9375 24.25 C30.4425 23.26 30.4425 23.26 29.9375 22.25 C28.4525 21.755 28.4525 21.755 26.9375 21.25 C26.9375 20.59 26.9375 19.93 26.9375 19.25 C21.6575 19.58 16.3775 19.91 10.9375 20.25 C13.2475 20.91 15.5575 21.57 17.9375 22.25 C17.9375 22.91 17.9375 23.57 17.9375 24.25 C16.2875 24.25 14.6375 24.25 12.9375 24.25 C12.9375 25.24 12.9375 26.23 12.9375 27.25 C14.9175 27.25 16.8975 27.25 18.9375 27.25 C18.9375 27.91 18.9375 28.57 18.9375 29.25 C18.22722656 29.29898438 17.51695312 29.34796875 16.78515625 29.3984375 C15.86605469 29.47320312 14.94695312 29.54796875 14 29.625 C12.62521484 29.72941406 12.62521484 29.72941406 11.22265625 29.8359375 C10.46855469 29.97257812 9.71445313 30.10921875 8.9375 30.25 C8.6075 30.91 8.2775 31.57 7.9375 32.25 C1.3125 32.5 1.3125 32.5 -2.0625 30.25 C-5.26056665 29.7896236 -5.26056665 29.7896236 -8.75 29.625 C-9.92949219 29.55023438 -11.10898438 29.47546875 -12.32421875 29.3984375 C-13.67966797 29.32496094 -13.67966797 29.32496094 -15.0625 29.25 C-15.0625 26.94 -15.0625 24.63 -15.0625 22.25 C-16.0525 22.25 -17.0425 22.25 -18.0625 22.25 C-18.0625 23.24 -18.0625 24.23 -18.0625 25.25 C-18.7225 25.25 -19.3825 25.25 -20.0625 25.25 C-20.0625 26.9 -20.0625 28.55 -20.0625 30.25 C-21.3825 30.25 -22.7025 30.25 -24.0625 30.25 C-24.3925 32.56 -24.7225 34.87 -25.0625 37.25 C-28.6925 37.25 -32.3225 37.25 -36.0625 37.25 C-36.3925 40.22 -36.7225 43.19 -37.0625 46.25 C-33.21454146 45.28801036 -32.06610988 44.52546203 -29.0625 42.25 C-25.31170972 40.44574054 -22.39476754 40.02512608 -18.25 40.125 C-17.27417969 40.14304688 -16.29835937 40.16109375 -15.29296875 40.1796875 C-14.18888672 40.21449219 -14.18888672 40.21449219 -13.0625 40.25 C-12.93875 41.384375 -12.815 42.51875 -12.6875 43.6875 C-12.48125 44.863125 -12.275 46.03875 -12.0625 47.25 C-11.0725 47.745 -11.0725 47.745 -10.0625 48.25 C-9.7325 49.24 -9.4025 50.23 -9.0625 51.25 C-8.7325 49.6 -8.4025 47.95 -8.0625 46.25 C-8.7225 46.25 -9.3825 46.25 -10.0625 46.25 C-10.0625 44.27 -10.0625 42.29 -10.0625 40.25 C-9.0725 40.25 -8.0825 40.25 -7.0625 40.25 C-4.25994677 43.1563515 -4.0625 44.03825048 -4.0625 48.25 C-3.4025 48.25 -2.7425 48.25 -2.0625 48.25 C-2.0625 51.55 -2.0625 54.85 -2.0625 58.25 C-1.4025 58.25 -0.7425 58.25 -0.0625 58.25 C-0.0625 56.6 -0.0625 54.95 -0.0625 53.25 C1.9175 53.25 3.8975 53.25 5.9375 53.25 C5.9375 56.55 5.9375 59.85 5.9375 63.25 C7.5875 63.25 9.2375 63.25 10.9375 63.25 C10.9375 64.24 10.9375 65.23 10.9375 66.25 C12.5875 66.25 14.2375 66.25 15.9375 66.25 C16.30171725 70.74201278 16.30171725 70.74201278 14.75 72.90625 C12.31328437 74.71278055 10.74805979 74.55430752 7.75 74.4375 C6.84894531 74.41042969 5.94789063 74.38335937 5.01953125 74.35546875 C4.33246094 74.32066406 3.64539063 74.28585938 2.9375 74.25 C2.9375 73.59 2.9375 72.93 2.9375 72.25 C2.174375 72.146875 1.41125 72.04375 0.625 71.9375 C-2.24666484 71.20288806 -3.29292094 70.5783935 -5.0625 68.25 C-5.0625 67.59 -5.0625 66.93 -5.0625 66.25 C-6.7125 66.25 -8.3625 66.25 -10.0625 66.25 C-10.0625 67.24 -10.0625 68.23 -10.0625 69.25 C-11.0525 68.92 -12.0425 68.59 -13.0625 68.25 C-13.0625 67.59 -13.0625 66.93 -13.0625 66.25 C-14.0525 65.92 -15.0425 65.59 -16.0625 65.25 C-17.0525 63.765 -17.0525 63.765 -18.0625 62.25 C-19.0525 61.92 -20.0425 61.59 -21.0625 61.25 C-21.3925 57.95 -21.7225 54.65 -22.0625 51.25 C-30.3125 51.25 -38.5625 51.25 -47.0625 51.25 C-47.5575 53.725 -47.5575 53.725 -48.0625 56.25 C-49.7101038 56.96247732 -51.38013529 57.62400383 -53.0625 58.25 C-54.40544481 59.90893182 -55.73994688 61.57476605 -57.0625 63.25 C-58.0525 63.25 -59.0425 63.25 -60.0625 63.25 C-60.08933987 60.27077407 -60.10926037 57.29178705 -60.125 54.3125 C-60.13337891 53.46236328 -60.14175781 52.61222656 -60.15039062 51.73632812 C-60.15361328 50.92744141 -60.15683594 50.11855469 -60.16015625 49.28515625 C-60.16539307 48.5362915 -60.17062988 47.78742676 -60.17602539 47.01586914 C-60.0625 45.25 -60.0625 45.25 -59.0625 44.25 C-58.96180564 41.48978992 -58.92381408 38.75999366 -58.9375 36 C-58.93169922 34.85337891 -58.93169922 34.85337891 -58.92578125 33.68359375 C-58.93259264 29.73980151 -59.0922375 26.10024801 -60.0625 22.25 C-58.27213542 21.2734375 -56.48177083 20.296875 -54.69140625 19.3203125 C-52.89631685 18.33589976 -52.89631685 18.33589976 -52.0625 16.25 C-51.0725 16.25 -50.0825 16.25 -49.0625 16.25 C-49.0625 15.59 -49.0625 14.93 -49.0625 14.25 C-48.423125 14.12625 -47.78375 14.0025 -47.125 13.875 C-46.444375 13.66875 -45.76375 13.4625 -45.0625 13.25 C-44.7325 12.59 -44.4025 11.93 -44.0625 11.25 C-42.28134482 10.33226194 -40.46195016 9.48773187 -38.625 8.6875 C-37.63628906 8.25308594 -36.64757812 7.81867188 -35.62890625 7.37109375 C-34.35853516 6.81615234 -34.35853516 6.81615234 -33.0625 6.25 C-32.4025 5.92 -31.7425 5.59 -31.0625 5.25 C-29.06289988 5.210008 -27.06202758 5.20653201 -25.0625 5.25 C-25.0625 4.59 -25.0625 3.93 -25.0625 3.25 C-24.48242188 3.20101562 -23.90234375 3.15203125 -23.3046875 3.1015625 C-22.52351563 3.02679688 -21.74234375 2.95203125 -20.9375 2.875 C-19.78894531 2.77058594 -19.78894531 2.77058594 -18.6171875 2.6640625 C-15.99405391 2.3277007 -15.99405391 2.3277007 -13.38671875 1.2265625 C-8.87957436 -0.09751047 -4.67102109 -0.04100384 0 0 Z " fill="#7F473B" transform="translate(186.0625,65.75)"/>
<path d="M0 0 C-2.5392442 8.66178731 -7.97144523 17.37285954 -15.125 23.01953125 C-18.56306249 24.81735143 -22.17466115 24.98265152 -26 25 C-26.24878906 25.71929687 -26.49757812 26.43859375 -26.75390625 27.1796875 C-28.12649954 30.2863093 -29.80723604 32.48239408 -31.9375 35.125 C-36.01292598 40.44019958 -39.47383061 45.94582565 -42.8125 51.75 C-43.49590454 52.93746826 -43.49590454 52.93746826 -44.19311523 54.14892578 C-45.48376594 56.42140224 -46.74885825 58.70556255 -48 61 C-48.53705566 61.97332275 -48.53705566 61.97332275 -49.08496094 62.96630859 C-51.98934444 68.46279136 -53.81543224 74.19185968 -55.625 80.125 C-56.22110299 82.04434886 -56.81745028 83.96362187 -57.4140625 85.8828125 C-57.68911621 86.77822754 -57.96416992 87.67364258 -58.24755859 88.59619141 C-58.84421309 90.50231086 -59.48481257 92.39466631 -60.140625 94.28125 C-65.90374126 112.51365418 -64.29095523 134.6235178 -60 153 C-59.74476562 154.17691406 -59.48953125 155.35382813 -59.2265625 156.56640625 C-51.86883255 187.31361719 -37.24218736 215.34584168 -9.84423828 232.33691406 C-4.65579635 235.40194018 0.65192802 238.22561924 6 241 C6.64533691 241.34047363 7.29067383 241.68094727 7.95556641 242.03173828 C15.09351701 245.79243149 22.27257219 249.03519237 29.8671875 251.76171875 C33 253 33 253 36.54296875 254.8125 C42.32739803 257.75496016 48.37622331 260.01179694 54.4375 262.3125 C55.61376953 262.77978516 56.79003906 263.24707031 58.00195312 263.72851562 C75.27755521 270.26601289 89.60510217 261.78831442 105.8125 255 C106.80706207 254.58347672 106.80706207 254.58347672 107.82171631 254.15853882 C126.25555245 246.39795157 144.81057351 238.25622675 160 225 C160.80953125 224.360625 161.6190625 223.72125 162.453125 223.0625 C169.03965131 217.68574383 173.45363244 211.10162524 178 204 C178.40798828 203.38326416 178.81597656 202.76652832 179.23632812 202.13110352 C182.39531848 197.26420864 184.80193975 192.30063417 187 186.9375 C187.34248779 186.11113037 187.68497559 185.28476074 188.0378418 184.43334961 C203.98776289 145.42085709 204.23929724 108.47502824 188.3125 69.4375 C184.18302074 59.68678218 178.89251212 50.7785133 173 42 C172.56365234 41.34112793 172.12730469 40.68225586 171.67773438 40.00341797 C165.67128841 31.01715288 165.67128841 31.01715288 156.1484375 26.6171875 C147.40924647 24.10665626 142.89551095 14.55731467 138.6875 7.23046875 C137 4 137 4 137 2 C145.88498816 2.88509461 155.40725716 6.76630732 161.75 13.25 C163.8992768 16.13270954 164.30533259 18.46102508 164.6875 22 C165.64111873 29.12294809 169.78031664 33.5968262 174.05078125 39.10546875 C196.62193242 68.33456079 207.36099381 106.54566344 203.68359375 143.14941406 C201.27463759 160.82483755 196.01125176 177.11313208 188 193 C187.45472656 194.11246094 186.90945313 195.22492188 186.34765625 196.37109375 C165.67239042 236.89461477 120.68896318 254.1086286 81 271 C92.52577992 274.8790211 104.06613429 277.67808482 116 280 C116.62109375 281.828125 116.62109375 281.828125 117 284 C115.0625 286.75 115.0625 286.75 113 289 C100.1316857 286.21993865 88.06585501 282.75689237 76.19140625 277.07421875 C69.231467 274.73152194 62.24764324 278.51821752 55.625 280.875 C54.62210937 281.22691406 53.61921875 281.57882812 52.5859375 281.94140625 C47.03193206 283.89693958 41.50905733 285.92169571 36 288 C32.875 289.0625 32.875 289.0625 30 289 C27.61685289 287.30556054 25.69901256 285.37982256 24 283 C24 282.34 24 281.68 24 281 C24.94617188 280.76925781 25.89234375 280.53851563 26.8671875 280.30078125 C35.31417049 278.22252099 43.70759665 276.01593616 52.05810547 273.57543945 C55.54329181 272.57883411 58.34398863 272 62 272 C62 271.34 62 270.68 62 270 C61.23171875 269.78214844 60.4634375 269.56429688 59.671875 269.33984375 C54.63748983 267.50282874 50.00688278 265.01828751 45.25 262.5625 C36.53326343 258.12062008 27.73300932 254.09918854 18.6875 250.375 C-5.99141741 240.13768398 -26.63839709 228.53445558 -42 206 C-42.94939453 204.61554688 -42.94939453 204.61554688 -43.91796875 203.203125 C-47.25857841 198.16015775 -49.94940807 193.2491045 -52.04296875 187.57421875 C-53.07705641 184.79273397 -54.25181103 182.09511 -55.4375 179.375 C-62.92297305 161.38683244 -66.59172268 143.61342963 -66.4375 124.1875 C-66.43512329 123.39762695 -66.43274658 122.60775391 -66.43029785 121.79394531 C-66.37513784 110.07866985 -65.63659621 99.21283832 -62 88 C-61.566875 86.46859375 -61.566875 86.46859375 -61.125 84.90625 C-55.08446884 64.84305721 -43.97398613 40.97398613 -29 26 C-28.70368235 24.44213197 -28.43794981 22.8783965 -28.1875 21.3125 C-26.53766304 13.07501617 -22.57643219 9.12590348 -15.73828125 4.546875 C-10.82521335 1.7714472 -5.66462622 0 0 0 Z " fill="#8B342D" transform="translate(116,37)"/>
<path d="M0 0 C-2.5392442 8.66178731 -7.97144523 17.37285954 -15.125 23.01953125 C-18.56306249 24.81735143 -22.17466115 24.98265152 -26 25 C-26.24878906 25.71929687 -26.49757812 26.43859375 -26.75390625 27.1796875 C-28.12649954 30.2863093 -29.80723604 32.48239408 -31.9375 35.125 C-36.01292598 40.44019958 -39.47383061 45.94582565 -42.8125 51.75 C-43.49590454 52.93746826 -43.49590454 52.93746826 -44.19311523 54.14892578 C-45.48376594 56.42140224 -46.74885825 58.70556255 -48 61 C-48.53705566 61.97332275 -48.53705566 61.97332275 -49.08496094 62.96630859 C-51.98934444 68.46279136 -53.81543224 74.19185968 -55.625 80.125 C-56.22110299 82.04434886 -56.81745028 83.96362187 -57.4140625 85.8828125 C-57.68911621 86.77822754 -57.96416992 87.67364258 -58.24755859 88.59619141 C-58.84421309 90.50231086 -59.48481257 92.39466631 -60.140625 94.28125 C-65.90374126 112.51365418 -64.29095523 134.6235178 -60 153 C-59.74476562 154.17691406 -59.48953125 155.35382813 -59.2265625 156.56640625 C-51.86883255 187.31361719 -37.24218736 215.34584168 -9.84423828 232.33691406 C-4.65579635 235.40194018 0.65192802 238.22561924 6 241 C6.64533691 241.34047363 7.29067383 241.68094727 7.95556641 242.03173828 C16.10816008 246.32700528 24.33721294 249.87736745 33 253 C31.32885742 254.1184082 31.32885742 254.1184082 29 255 C26.52075195 254.36010742 26.52075195 254.36010742 23.73828125 253.10546875 C22.70993164 252.64906006 21.68158203 252.19265137 20.62207031 251.72241211 C19.52991211 251.21589111 18.43775391 250.70937012 17.3125 250.1875 C16.19069336 249.67775635 15.06888672 249.1680127 13.91308594 248.64282227 C-8.87545602 238.18365832 -27.58043192 227.15255278 -42 206 C-42.94939453 204.61554688 -42.94939453 204.61554688 -43.91796875 203.203125 C-47.25857841 198.16015775 -49.94940807 193.2491045 -52.04296875 187.57421875 C-53.07705641 184.79273397 -54.25181103 182.09511 -55.4375 179.375 C-62.92297305 161.38683244 -66.59172268 143.61342963 -66.4375 124.1875 C-66.43512329 123.39762695 -66.43274658 122.60775391 -66.43029785 121.79394531 C-66.37513784 110.07866985 -65.63659621 99.21283832 -62 88 C-61.566875 86.46859375 -61.566875 86.46859375 -61.125 84.90625 C-55.08446884 64.84305721 -43.97398613 40.97398613 -29 26 C-28.70368235 24.44213197 -28.43794981 22.8783965 -28.1875 21.3125 C-26.53766304 13.07501617 -22.57643219 9.12590348 -15.73828125 4.546875 C-10.82521335 1.7714472 -5.66462622 0 0 0 Z " fill="#93423C" transform="translate(116,37)"/>
<path d="M0 0 C8.88498816 0.88509461 18.40725716 4.76630732 24.75 11.25 C26.8992768 14.13270954 27.30533259 16.46102508 27.6875 20 C28.64111873 27.12294809 32.78031664 31.5968262 37.05078125 37.10546875 C59.62193242 66.33456079 70.36099381 104.54566344 66.68359375 141.14941406 C64.27463759 158.82483755 59.01125176 175.11313208 51 191 C50.45472656 192.11246094 49.90945313 193.22492188 49.34765625 194.37109375 C37.44065972 217.70880695 16.77062425 236.91424979 -8 246 C-8.33 245.01 -8.66 244.02 -9 243 C-8.49251221 242.74943848 -7.98502441 242.49887695 -7.4621582 242.24072266 C3.60863617 236.72595894 13.53706817 230.99180378 23 223 C24.22589844 222.03513672 24.22589844 222.03513672 25.4765625 221.05078125 C32.04535853 215.66707729 36.45791715 209.09493233 41 202 C41.40798828 201.38326416 41.81597656 200.76652832 42.23632812 200.13110352 C45.39531848 195.26420864 47.80193975 190.30063417 50 184.9375 C50.34248779 184.11113037 50.68497559 183.28476074 51.0378418 182.43334961 C66.98776289 143.42085709 67.23929724 106.47502824 51.3125 67.4375 C47.18302074 57.68678218 41.89251212 48.7785133 36 40 C35.56365234 39.34112793 35.12730469 38.68225586 34.67773438 38.00341797 C28.67128841 29.01715288 28.67128841 29.01715288 19.1484375 24.6171875 C10.40924647 22.10665626 5.89551095 12.55731467 1.6875 5.23046875 C0 2 0 2 0 0 Z " fill="#92403A" transform="translate(253,39)"/>
<path d="M0 0 C0.33 0 0.66 0 1 0 C1.33 1.98 1.66 3.96 2 6 C5.407692 5.39148357 7.2715551 4.06700371 10 2 C13.75079028 0.19574054 16.66773246 -0.22487392 20.8125 -0.125 C22.27623047 -0.09792969 22.27623047 -0.09792969 23.76953125 -0.0703125 C24.50558594 -0.04710938 25.24164063 -0.02390625 26 0 C26.12375 1.134375 26.2475 2.26875 26.375 3.4375 C26.58125 4.613125 26.7875 5.78875 27 7 C27.66 7.33 28.32 7.66 29 8 C29.495 9.485 29.495 9.485 30 11 C30.33 9.35 30.66 7.7 31 6 C30.34 6 29.68 6 29 6 C29 4.02 29 2.04 29 0 C29.99 0 30.98 0 32 0 C34.80255323 2.9063515 35 3.78825048 35 8 C35.66 8 36.32 8 37 8 C37 11.3 37 14.6 37 18 C37.66 18 38.32 18 39 18 C39 16.35 39 14.7 39 13 C40.98 13 42.96 13 45 13 C45 16.3 45 19.6 45 23 C46.65 23 48.3 23 50 23 C50 23.99 50 24.98 50 26 C51.65 26 53.3 26 55 26 C55.36421725 30.49201278 55.36421725 30.49201278 53.8125 32.65625 C51.37578437 34.46278055 49.81055979 34.30430752 46.8125 34.1875 C45.91144531 34.16042969 45.01039063 34.13335937 44.08203125 34.10546875 C43.39496094 34.07066406 42.70789063 34.03585938 42 34 C42 33.34 42 32.68 42 32 C41.236875 31.896875 40.47375 31.79375 39.6875 31.6875 C36.81583516 30.95288806 35.76957906 30.3283935 34 28 C34 27.34 34 26.68 34 26 C32.35 26 30.7 26 29 26 C29 26.99 29 27.98 29 29 C28.01 28.67 27.02 28.34 26 28 C26 27.34 26 26.68 26 26 C25.01 25.67 24.02 25.34 23 25 C22.34 24.01 21.68 23.02 21 22 C20.01 21.67 19.02 21.34 18 21 C17.505 16.05 17.505 16.05 17 11 C10.4 10.67 3.8 10.34 -3 10 C-3 9.34 -3 8.68 -3 8 C-2.01 8 -1.02 8 0 8 C0 7.01 0 6.02 0 5 C-0.66 5 -1.32 5 -2 5 C-1.34 3.35 -0.68 1.7 0 0 Z " fill="#834D41" transform="translate(147,106)"/>
<path d="M0 0 C-2.5392442 8.66178731 -7.97144523 17.37285954 -15.125 23.01953125 C-18.56306249 24.81735143 -22.17466115 24.98265152 -26 25 C-26.24621094 25.71414062 -26.49242188 26.42828125 -26.74609375 27.1640625 C-28.15109978 30.34173969 -29.90277163 32.65534205 -32.0625 35.375 C-37.32979396 42.2327431 -41.67832622 49.52135885 -46 57 C-46.67578125 55.3359375 -46.67578125 55.3359375 -47 53 C-43.14351755 44.00618172 -35.96781572 32.96781572 -29 26 C-28.70368235 24.44213197 -28.43794981 22.8783965 -28.1875 21.3125 C-26.53766304 13.07501617 -22.57643219 9.12590348 -15.73828125 4.546875 C-10.82521335 1.7714472 -5.66462622 0 0 0 Z " fill="#89312A" transform="translate(116,37)"/>
<path d="M0 0 C-5.96797726 10.47128611 -11.48571816 20.08536751 -23 25 C-27.99750146 26.31184413 -31.44253605 26.61594343 -36 24 C-35.53942238 19.04879058 -34.30549226 16.67149832 -31 13 C-25.24668312 8.48510895 -7.43596154 -3.71798077 0 0 Z " fill="#882F28" transform="translate(330,233)"/>
<path d="M0 0 C13.3539348 2.35510295 25.14547148 7.88371827 33.94140625 18.32421875 C35.12189759 20.19296703 35.58133033 21.84079349 36 24 C31.69181823 26.87212118 28.05399464 26.69051671 23 26 C12.1140875 22.31168096 4.93596341 11.89062365 0 2 C0 1.34 0 0.68 0 0 Z " fill="#872E27" transform="translate(40,230)"/>
<path d="M0 0 C0.73347656 -0.01611328 1.46695313 -0.03222656 2.22265625 -0.04882812 C7.0145766 -0.05311428 10.38548161 0.60123557 14.5 3.3125 C14.995 4.7975 14.995 4.7975 15.5 6.3125 C13.53411499 9.88683638 11.34429728 11.66087365 7.625 13.125 C-5.21452032 16.72760603 -15.77889441 13.42716426 -27.5 8.3125 C-27.5 7.6525 -27.5 6.9925 -27.5 6.3125 C-26.63117188 6.04695313 -25.76234375 5.78140625 -24.8671875 5.5078125 C-23.71476562 5.15460938 -22.56234375 4.80140625 -21.375 4.4375 C-20.23804687 4.08945312 -19.10109375 3.74140625 -17.9296875 3.3828125 C-15.79957983 2.71806364 -13.68461315 1.99931233 -11.6015625 1.19921875 C-7.66399548 0.07349115 -4.07328245 -0.01789667 0 0 Z " fill="#882F28" transform="translate(124.5,287.6875)"/>
<path d="M0 0 C4.12486211 -0.08813808 8.24947739 -0.14077078 12.375 -0.1875 C14.10943359 -0.22520508 14.10943359 -0.22520508 15.87890625 -0.26367188 C26.14231562 -0.35064992 34.46290246 0.66124713 42 8 C41.8125 9.8125 41.8125 9.8125 41 12 C35.57139653 15.99645853 30.48457021 15.58950638 24 15 C14.59167996 13.29637272 5.62859628 7.63599776 0 0 Z " fill="#89312A" transform="translate(62,267)"/>
<path d="M0 0 C0 0.99 0 1.98 0 3 C-7.54766454 6.73382698 -14.00999856 8.49309106 -22.375 8.5 C-23.12313965 8.50580078 -23.8712793 8.51160156 -24.64208984 8.51757812 C-29.76345286 8.40359275 -33.45264944 7.37922858 -38 5 C-42 0.79487179 -42 0.79487179 -42 -2 C-28.40273285 -10.5316186 -14.05730245 -4.49769881 0 0 Z " fill="#872E27" transform="translate(271,296)"/>
<path d="M0 0 C0.98820992 0.00424484 0.98820992 0.00424484 1.99638367 0.00857544 C4.08501937 0.01970326 6.17321431 0.04479302 8.26171875 0.0703125 C9.68423857 0.08035191 11.10676515 0.08947608 12.52929688 0.09765625 C16.00274556 0.11961803 19.47593908 0.15409604 22.94921875 0.1953125 C15.01687373 8.22087341 5.46902936 15.09799934 -6.17578125 15.7578125 C-11.43383924 15.56645912 -14.98137463 13.37808863 -19.05078125 10.1953125 C-16.99364358 5.70530426 -14.27291032 3.29773014 -9.82348633 1.09033203 C-6.42519421 -0.00662482 -3.56969436 -0.03038038 0 0 Z " fill="#882E27" transform="translate(284.05078125,269.8046875)"/>
<path d="M0 0 C6.11377267 6.56199647 8.17542624 19.98211718 8.625 28.6875 C8.3654991 33.609367 5.9753724 37.19577386 3 41 C-1.48940353 38.57329539 -3.72399857 36.28337097 -6.1875 31.875 C-8.69434199 23.00463604 -6.78222708 12.91347907 -2.91015625 4.68359375 C-2.0027644 3.08516327 -1.01149033 1.53467498 0 0 Z " fill="#8A332C" transform="translate(50,76)"/>
<path d="M0 0 C21.13113292 17.53434434 21.13113292 17.53434434 23 28 C23.07905064 30.33199388 23.08798769 32.66832622 23 35 C22 36 22 36 19.4375 36.4375 C14.37027013 35.79257984 11.46627917 33.70104709 8 30 C1.87708432 20.6133275 -0.41002803 11.07075686 0 0 Z " fill="#882F28" transform="translate(26,151)"/>
<path d="M0 0 C0.66 0.33 1.32 0.66 2 1 C4.3127778 12.79516677 4.18624449 23.93571242 -2 34.375 C-4 37 -4 37 -7 39 C-9.6875 39.125 -9.6875 39.125 -12 39 C-14.47154298 34.60065349 -14.62145237 30.95547732 -14 26 C-11.74296534 18.15339627 -5.78825038 5.78825038 0 0 Z " fill="#882E28" transform="translate(335,114)"/>
<path d="M0 0 C10.49891106 3.05763234 20.38683804 10.55883461 27.4375 18.875 C29.46818176 22.93636353 29.30984294 25.50727735 29 30 C24.54091978 30.35672642 21.04436842 30.49021375 16.9375 28.5625 C7.84065103 20.6269509 2.09376509 12.07771865 0 0 Z " fill="#882E27" transform="translate(29,192)"/>
<path d="M0 0 C4.7342185 7.10132776 3.59638654 17.70777617 3 26 C1.64589881 31.60583861 -0.36106105 36.35511939 -5 40 C-7.85572721 39.01526648 -8.97012206 38.0416157 -10.75 35.5625 C-13.42100632 27.95013198 -12.60277368 20.79768264 -9.3515625 13.5 C-6.80391858 8.78759507 -3.81081115 3.81081115 0 0 Z " fill="#89312A" transform="translate(74,45)"/>
<path d="M0 0 C0.33 0 0.66 0 1 0 C1.32853079 10.34871983 -0.2563553 19.17512924 -6 28 C-9.4958389 31.72186297 -12.81675825 34.91088809 -18.0625 35.125 C-21 35 -21 35 -22 34 C-22.89182664 25.26009894 -18.98046002 20.0410687 -13.75 13.4375 C-9.85477154 8.80063036 -5.69521614 4.80887432 -1 1 C-0.67 0.67 -0.34 0.34 0 0 Z " fill="#882E27" transform="translate(342,154)"/>
<path d="M0 0 C1.83845927 4.83744594 -0.43545729 8.40316533 -2.40625 12.88671875 C-6.03059644 19.9666308 -11.18560613 27.39520204 -19 30 C-20.56118428 30.06740865 -22.1250252 30.08514456 -23.6875 30.0625 C-24.89986328 30.04896484 -24.89986328 30.04896484 -26.13671875 30.03515625 C-26.75160156 30.02355469 -27.36648438 30.01195312 -28 30 C-28.0973074 23.96694103 -27.2464943 20.64794142 -23.3125 16 C-16.75602041 9.25378305 -8.48424062 4.02215852 0 0 Z " fill="#882E27" transform="translate(339,194)"/>
<path d="M0 0 C0.66 0 1.32 0 2 0 C6.75901573 10.18798999 9.92136236 19.82912758 7.53515625 31.21875 C5.83105984 35.81678528 2.82465755 38.19525113 -1 41 C-4.2871223 37.92495011 -5.81292103 36.02106626 -6.23828125 31.42578125 C-6.49846087 20.51193084 -4.29130281 10.05170028 0 0 Z " fill="#882F28" transform="translate(318,78)"/>
<path d="M0 0 C0.66 0 1.32 0 2 0 C3.60994858 2.8509412 5.21187803 5.70631365 6.8125 8.5625 C7.26431641 9.36236328 7.71613281 10.16222656 8.18164062 10.98632812 C15.44154334 23.96936582 15.44154334 23.96936582 15.25 30.75 C15.23453125 31.67296875 15.2190625 32.5959375 15.203125 33.546875 C15 36 15 36 14 39 C10.36564179 39.53446444 9.06731202 39.04395887 5.9375 37 C1.89201549 33.26670306 -0.63901972 28.8541402 -1.3347168 23.35351562 C-1.42810318 20.47531212 -1.3990788 17.62826395 -1.3125 14.75 C-1.30283203 13.7703125 -1.29316406 12.790625 -1.28320312 11.78125 C-1.21892239 7.68964147 -1.13288765 3.95227839 0 0 Z " fill="#872D26" transform="translate(33,112)"/>
<path d="M0 0 C6.5233917 5.75593386 12.38991724 14.33190552 13.3359375 23.12109375 C13.45447195 33.18466821 13.45447195 33.18466821 11.25 36.8125 C9 39 9 39 5 39 C0.0921858 34.0921858 -1.103793 29.07201191 -1.23046875 22.3046875 C-1.22650462 20.16141414 -1.21188301 18.01813832 -1.1875 15.875 C-1.18685547 14.79089844 -1.18621094 13.70679688 -1.18554688 12.58984375 C-1.13697222 3.85719951 -1.13697222 3.85719951 0 0 Z " fill="#872D26" transform="translate(294,47)"/>
<path d="M0 0 C8.87414026 0.88401397 18.36413033 4.77009517 24.75 11.1875 C28.15197174 15.73737632 28.47598424 21.49783451 29 27 C22.03230951 27 16.10442208 24.14787787 11.0625 19.44140625 C7.15499276 14.81604256 0 6.16722777 0 0 Z " fill="#882F28" transform="translate(253,39)"/>
<path d="M0 0 C4.00305507 2.87805856 6.31406157 5.66382925 8.75 9.9375 C9.34296875 10.95714844 9.9359375 11.97679687 10.546875 13.02734375 C12.96614206 17.97643577 13.38460321 22.51940426 13 28 C11.42275698 31.98066095 10.58999089 33.60667274 7 36 C1.84621518 32.51771296 -0.08626846 28.69273575 -1.56640625 22.7109375 C-2.08540774 19.46600926 -2.1696604 16.3485538 -2.1875 13.0625 C-2.20167969 11.87785156 -2.21585937 10.69320312 -2.23046875 9.47265625 C-1.99882699 5.98232534 -1.25530126 3.2498906 0 0 Z " fill="#89312A" transform="translate(293,184)"/>
<path d="M0 0 C10.3316283 3.69920869 18.32844461 10.99066699 23.375 20.625 C24.12762796 23.48498627 24.13693486 26.0559006 24 29 C19.89615133 29.59847793 16.44653699 29.82551064 12.76171875 27.72265625 C5.25436245 21.48773322 2.10094198 13.35874155 0 4 C0 2.68 0 1.36 0 0 Z " fill="#893029" transform="translate(122,256)"/>
<path d="M0 0 C-0.63378802 9.66526729 -2.83936867 18.32690703 -9.4375 25.66015625 C-12.56462142 28.34166287 -15.14990196 29.26166993 -19.25 29.125 C-20.4875 29.08375 -21.725 29.0425 -23 29 C-23.61574185 22.10369125 -22.2914822 18.39966242 -18 13 C-13.95559303 8.25309058 -6.61713782 0 0 0 Z " fill="#872E27" transform="translate(247,258)"/>
<path d="M0 0 C3.69055099 5.53582648 2.67774961 13.32532633 1.5 19.7109375 C-0.22439128 25.45237664 -2.98181144 29.9878743 -8.0625 33.375 C-10 34 -10 34 -14 34 C-16.04072711 29.91854579 -15.65948778 25.4185681 -15 21 C-11.6156324 12.86926321 -6.08845069 6.26240642 0 0 Z " fill="#882F29" transform="translate(271,238)"/>
<path d="M0 0 C1.14583127 4.6110468 1.2188083 9.09085704 1.25 13.8125 C1.270625 14.58142578 1.29125 15.35035156 1.3125 16.14257812 C1.35699151 22.73288261 0.09812219 28.13256634 -3.875 33.5625 C-6 35 -6 35 -8.625 35 C-11 34 -11 34 -12.11328125 32.30859375 C-14.47757122 26.15310753 -13.96593313 19.43997355 -11.57421875 13.3984375 C-4.51206264 0 -4.51206264 0 0 0 Z " fill="#872D27" transform="translate(77,182)"/>
<path d="M0 0 C-0.54384616 11.96461562 -1.53812941 22.69967617 -10.5 31.4375 C-13 33 -13 33 -15.1875 33 C-17.66781798 31.6315487 -18.14481157 30.70809669 -19 28 C-19.93208751 21.34223208 -17.51136745 16.48761446 -14 11 C-11.18667338 7.55858185 -4.88398825 0 0 0 Z " fill="#893029" transform="translate(75,151)"/>
<path d="M0 0 C7.5293817 3.60782873 12.40022657 9.10033986 17 16 C18.76110021 21.28330064 18.9704003 26.01876606 16.5 31.0625 C15.7575 32.0215625 15.7575 32.0215625 15 33 C9.75497195 31.61161022 6.9462344 28.35567219 4 24 C1.09912789 17.9854505 -0.13454359 12.3780107 -0.0625 5.75 C-0.04896484 4.13351563 -0.04896484 4.13351563 -0.03515625 2.484375 C-0.02355469 1.66453125 -0.01195312 0.8446875 0 0 Z " fill="#882F28" transform="translate(295,154)"/>
<path d="M0 0 C8.9264197 0.19328862 18.14774122 1.71045564 25.0546875 7.81640625 C29.26340164 12.63931073 30.12033664 15.50182156 30 22 C22.51774354 22.53444689 17.72351445 21.11229604 11.9296875 16.26953125 C7.16223267 11.72866648 3.29378686 6.70174468 0 1 C0 0.67 0 0.34 0 0 Z " fill="#893029" transform="translate(276,98)"/>
<path d="M0 0 C4.36005214 1.74402086 8.16965434 4.12725368 11.0625 7.875 C12 11.75 12 11.75 12.0625 14.875 C6.10617553 16.86044149 0.84696935 16.56382978 -4.875 13.9375 C-10.67646228 10.77306603 -17.91791356 5.91417287 -20.9375 -0.125 C-15.25227183 -2.96761408 -5.96704435 -1.75501304 0 0 Z " fill="#89312A" transform="translate(278.9375,75.125)"/>
<path d="M0 0 C7.46381742 5.63594377 13.0006586 13.05965543 16 22 C16.36524412 25.43577095 16.57258125 28.8548375 15 32 C11.98716918 32.44090207 9.81839342 32.48171258 7.1484375 30.91015625 C2.41185011 27.11080849 -0.56084931 22.91558218 -1.25073242 16.7644043 C-1.32934488 14.37701594 -1.3119186 12.01273586 -1.25 9.625 C-1.24484375 8.80644531 -1.2396875 7.98789063 -1.234375 7.14453125 C-1.15491071 1.15491071 -1.15491071 1.15491071 0 0 Z " fill="#882F28" transform="translate(98,237)"/>
<path d="M0 0 C1.89492187 0.01353516 1.89492187 0.01353516 3.828125 0.02734375 C4.79234375 0.03894531 5.7565625 0.05054687 6.75 0.0625 C6.75 1.3825 6.75 2.7025 6.75 4.0625 C4.78227068 5.96123881 2.93845461 7.52266906 0.75 9.125 C0.15421143 9.5689209 -0.44157715 10.0128418 -1.05541992 10.47021484 C-7.90575753 15.44467674 -13.67155065 17.6541172 -22.25 17.0625 C-22.91 16.7325 -23.57 16.4025 -24.25 16.0625 C-24.72762932 12.05041373 -24.42851586 10.34700965 -22.25 6.875 C-19.16383242 3.51626491 -15.56626303 2.25526454 -11.25 1.0625 C-10.65832031 0.87429687 -10.06664063 0.68609375 -9.45703125 0.4921875 C-6.2904597 -0.12431316 -3.22164118 -0.02983001 0 0 Z " fill="#882F28" transform="translate(103.25,71.9375)"/>
<path d="M0 0 C1.85625 0.0309375 1.85625 0.0309375 3.75 0.0625 C-0.92368988 9.40987975 -8.12337148 18.47866595 -18.25 22.0625 C-20.75327714 22.40825651 -22.71477373 22.33220492 -25.25 22.0625 C-25.71775819 17.38491812 -25.8023424 14.06855223 -23.5 9.875 C-17.72940911 3.92147972 -8.27916208 -0.13798603 0 0 Z " fill="#893029" transform="translate(89.25,95.9375)"/>
<path d="M0 0 C-2.02268894 9.92956387 -5.87959802 18.60541052 -14 25 C-17.1861762 26.83981876 -19.31202323 27.2048876 -23 27 C-23.99098026 22.24975765 -24.38371473 18.96762845 -22.5625 14.375 C-17.56442073 6.97234652 -9.17662997 0 0 0 Z " fill="#872E27" transform="translate(80,123)"/>
<path d="M0 0 C5.01494599 4.29852514 5.74516097 11.07105003 6.29296875 17.3671875 C6.44339981 23.57067787 6.38215671 28.68518231 3 34 C1.125 35.25 1.125 35.25 -1 35 C-4.4165747 32.06015666 -6.79700963 29.94290785 -7.2734375 25.3828125 C-7.57598342 15.67807015 -5.39719601 8.09579401 0 0 Z " fill="#882F29" transform="translate(84,212)"/>
<path d="M0 0 C5.74345212 5.0807461 8.2649726 12.39508478 9.45703125 19.86328125 C9.68372295 25.39623798 8.68094107 28.6694811 5 33 C4.34 33.66 3.68 34.32 3 35 C0.5 34.9375 0.5 34.9375 -2 34 C-4.55659302 29.52155429 -4.38284336 24.82686088 -4.375 19.8125 C-4.37628906 18.96840576 -4.37757813 18.12431152 -4.37890625 17.25463867 C-4.27080341 10.87472828 -3.22354684 5.59803447 0 0 Z " fill="#882F28" transform="translate(284,214)"/>
<path d="M0 0 C9.54408275 2.71741245 18.89378582 6.98628655 24 16 C24.72471969 20.12486289 24.90230793 24.19538414 23 28 C16.50615218 26.78240353 12.29722208 24.03812244 8 19 C4.34249725 13.04141936 1.55030951 6.82136185 0 0 Z " fill="#872D26" transform="translate(289,125)"/>
<path d="M0 0 C1.8671875 0.3046875 1.8671875 0.3046875 4 1 C8.16294988 7.12198512 8.8254832 13.40726547 9.60546875 20.609375 C9.89656385 23.83941849 9.89656385 23.83941849 10.61328125 26.265625 C11 28 11 28 10 31 C9.77548542 33.22574335 9.59217122 35.45581519 9.4375 37.6875 C9.35371094 38.86699219 9.26992188 40.04648438 9.18359375 41.26171875 C9.12300781 42.16535156 9.06242187 43.06898438 9 44 C7.02 44 5.04 44 3 44 C2.98018066 43.44538086 2.96036133 42.89076172 2.93994141 42.31933594 C2.84442349 39.79576307 2.73485433 37.27298776 2.625 34.75 C2.5940625 33.87730469 2.563125 33.00460938 2.53125 32.10546875 C2.49257813 31.26113281 2.45390625 30.41679687 2.4140625 29.546875 C2.3826416 28.77182617 2.3512207 27.99677734 2.31884766 27.19824219 C1.96797613 24.77921674 1.14070091 23.14496233 0 21 C-1.18284152 13.89266529 -1.06480756 7.09871708 0 0 Z " fill="#A8797F" transform="translate(270,114)"/>
<path d="M0 0 C3.12806884 -0.3475632 4.59599079 -0.26933948 7.25 1.5 C9.70568734 5.00812477 9.71678837 7.75182555 10 12 C9.34 12 8.68 12 8 12 C7.81824219 11.36191406 7.63648438 10.72382812 7.44921875 10.06640625 C7.19785156 9.24011719 6.94648438 8.41382812 6.6875 7.5625 C6.32205078 6.32693359 6.32205078 6.32693359 5.94921875 5.06640625 C5.63597656 4.38449219 5.32273437 3.70257813 5 3 C4.01 2.67 3.02 2.34 2 2 C2.28211877 3.6266848 2.57602375 5.25132896 2.875 6.875 C3.03742188 7.77992187 3.19984375 8.68484375 3.3671875 9.6171875 C3.83044703 12.16505988 3.83044703 12.16505988 6 14 C6.28095992 16.52574281 6.46544991 18.96722947 6.5625 21.5 C6.60173595 26.39954284 6.60173595 26.39954284 8 31 C8.07194869 33.88370333 8.09291708 36.74239664 8.0625 39.625 C8.05798828 40.42679688 8.05347656 41.22859375 8.04882812 42.0546875 C8.03703168 44.03649006 8.01909605 46.01825433 8 48 C6.35 48 4.7 48 3 48 C2.87625 46.948125 2.7525 45.89625 2.625 44.8125 C2.18325529 41.16701813 2.18325529 41.16701813 0.98461914 38.62304688 C-0.11901822 35.68293287 -0.29955781 33.35186533 -0.37890625 30.21875 C-0.43014648 28.58486328 -0.43014648 28.58486328 -0.48242188 26.91796875 C-0.52206055 25.22607422 -0.52206055 25.22607422 -0.5625 23.5 C-0.62265152 21.26031565 -0.68632454 19.02072247 -0.75390625 16.78125 C-0.77783447 15.79189453 -0.8017627 14.80253906 -0.82641602 13.78320312 C-0.99357394 11.10303391 -1.40726339 8.61580489 -2 6 C-1.67 6 -1.34 6 -1 6 C-0.67 4.02 -0.34 2.04 0 0 Z " fill="#F2ECED" transform="translate(257,102)"/>
<path d="M0 0 C1.32 0.33 2.64 0.66 4 1 C5.125 5.75 5.125 5.75 4 8 C3.88044389 10.30265817 3.82071688 12.60851998 3.7890625 14.9140625 C3.76096741 16.32943812 3.73230281 17.74480253 3.703125 19.16015625 C3.66207947 21.38492193 3.62518516 23.60948433 3.59863281 25.83447266 C3.4011621 41.07035957 3.4011621 41.07035957 0 48 C-1.32 47.67 -2.64 47.34 -4 47 C-4.02707139 44.75006641 -4.04642829 42.50003905 -4.0625 40.25 C-4.07410156 38.99703125 -4.08570312 37.7440625 -4.09765625 36.453125 C-4.01817618 33.64270975 -3.71641427 31.65714843 -3 29 C-2.82688604 26.89790193 -2.6837463 24.79322649 -2.5625 22.6875 C-2.22716269 17.83592634 -1.34773964 13.67216407 0 9 C0.16040607 5.99117101 0.12284271 3.00964646 0 0 Z " fill="#F5F0F1" transform="translate(107,103)"/>
<path d="M0 0 C0.99 0.99 1.98 1.98 3 3 C-0.63 3.33 -4.26 3.66 -8 4 C-5.69 4.66 -3.38 5.32 -1 6 C-1 6.66 -1 7.32 -1 8 C-2.65 8 -4.3 8 -6 8 C-6 8.99 -6 9.98 -6 11 C-4.02 11 -2.04 11 0 11 C0 11.66 0 12.32 0 13 C-1.06541016 13.07347656 -1.06541016 13.07347656 -2.15234375 13.1484375 C-3.07144531 13.22320312 -3.99054688 13.29796875 -4.9375 13.375 C-5.85402344 13.44460937 -6.77054688 13.51421875 -7.71484375 13.5859375 C-8.84599609 13.79089844 -8.84599609 13.79089844 -10 14 C-10.33 14.66 -10.66 15.32 -11 16 C-13.31 16 -15.62 16 -18 16 C-19.43088528 13.13822943 -18.59991697 11.06624227 -18 8 C-18.99 8 -19.98 8 -21 8 C-21 6.35 -21 4.7 -21 3 C-17.37 3 -13.74 3 -10 3 C-10 2.34 -10 1.68 -10 1 C-6.88450128 -0.55774936 -3.3955612 -0.56480622 0 0 Z " fill="#F2EDEB" transform="translate(205,82)"/>
<path d="M0 0 C0.33 0 0.66 0 1 0 C0.58498587 4.98016961 -0.59429667 8.17859398 -2.90820312 12.66308594 C-4.93075422 16.99221363 -6.23341861 21.56233713 -7.625 26.125 C-8.22110299 28.04434886 -8.81745028 29.96362187 -9.4140625 31.8828125 C-9.68887451 32.78 -9.96368652 33.6771875 -10.24682617 34.6015625 C-10.83698211 36.48087916 -11.48409119 38.34232743 -12.15234375 40.1953125 C-13.39929196 44.32115957 -13.73268163 48.50346585 -14.12304688 52.78515625 C-14.33984375 54.734375 -14.33984375 54.734375 -15 58 C-15.99 58.66 -16.98 59.32 -18 60 C-18.18618874 54.1217555 -17.59685944 48.96364957 -16.25 43.25 C-16.06663086 42.45851562 -15.88326172 41.66703125 -15.69433594 40.8515625 C-12.29315419 26.52342808 -6.6309986 13.12331919 0 0 Z " fill="#9B504A" transform="translate(68,91)"/>
<path d="M0 0 C1.47906892 -0.02689216 2.95827483 -0.04634621 4.4375 -0.0625 C5.26121094 -0.07410156 6.08492187 -0.08570312 6.93359375 -0.09765625 C9 0 9 0 10 1 C10.04063832 2.66617115 10.042721 4.33388095 10 6 C8.35 6 6.7 6 5 6 C5 6.99 5 7.98 5 9 C5.66 9 6.32 9 7 9 C8.60725635 12.21451269 8.05748185 15.43612536 8 19 C6.02 19 4.04 19 2 19 C2 18.01 2 17.02 2 16 C1.34 16 0.68 16 0 16 C0 15.34 0 14.68 0 14 C0.66 14 1.32 14 2 14 C2 12.02 2 10.04 2 8 C1.34 8 0.68 8 0 8 C0 5.36 0 2.72 0 0 Z " fill="#7F5449" transform="translate(221,121)"/>
<path d="M0 0 C0.99 0.33 1.98 0.66 3 1 C2.2525413 13.16553465 0.10646538 24.99347124 -3.5 36.625 C-3.70141602 37.27557373 -3.90283203 37.92614746 -4.11035156 38.59643555 C-5.4058548 42.59991484 -7.03308428 46.28344413 -9 50 C-9.99 50 -10.98 50 -12 50 C-11.60564015 48.66623011 -11.20934067 47.33303387 -10.8125 46 C-10.54050781 45.08476562 -10.26851563 44.16953125 -9.98828125 43.2265625 C-9.2822918 40.92163252 -8.54721619 38.62553006 -7.79296875 36.3359375 C-3.86749667 24.38455735 -1.49346243 12.50083371 0 0 Z " fill="#903D37" transform="translate(317,171)"/>
<path d="M0 0 C0 0.66 0 1.32 0 2 C2.31 2 4.62 2 7 2 C7.33 4.64 7.66 7.28 8 10 C8.66 10 9.32 10 10 10 C10 10.99 10 11.98 10 13 C8.35 13 6.7 13 5 13 C4.67 12.34 4.34 11.68 4 11 C3.01 10.67 2.02 10.34 1 10 C1 9.34 1 8.68 1 8 C-2.3 8 -5.6 8 -9 8 C-9 6.35 -9 4.7 -9 3 C-3.375 0 -3.375 0 0 0 Z " fill="#8B6359" transform="translate(203,114)"/>
<path d="M0 0 C0.33 0 0.66 0 1 0 C1.87890625 6.15234375 1.87890625 6.15234375 2 8 C1.67 8.33 1.34 8.66 1 9 C0.7889782 11.83707088 0.62392187 14.65897646 0.5 17.5 C0.13513514 25.86486486 0.13513514 25.86486486 -1 27 C-1.20983279 29.14204311 -1.36823385 31.28924113 -1.5 33.4375 C-1.88986233 39.77972466 -1.88986233 39.77972466 -3 42 C-3.66 42 -4.32 42 -5 42 C-5.05874776 38.66674246 -5.09384467 35.33362062 -5.125 32 C-5.14175781 31.06542969 -5.15851563 30.13085938 -5.17578125 29.16796875 C-5.21621628 23.38575913 -4.60546848 18.55173453 -3 13 C-2.835 11.80375 -2.67 10.6075 -2.5 9.375 C-2.008304 6.05605199 -1.1503877 3.14439303 0 0 Z " fill="#E7D9DA" transform="translate(97,116)"/>
<path d="M0 0 C0.33 0 0.66 0 1 0 C1 4.95 1 9.9 1 15 C0.01 15.33 -0.98 15.66 -2 16 C-2 22.93 -2 29.86 -2 37 C-2.99 37 -3.98 37 -5 37 C-5.02505615 36.40985107 -5.0501123 35.81970215 -5.07592773 35.21166992 C-5.19200052 32.53673186 -5.31467572 29.8621362 -5.4375 27.1875 C-5.47681641 26.25873047 -5.51613281 25.32996094 -5.55664062 24.37304688 C-5.59853516 23.48037109 -5.64042969 22.58769531 -5.68359375 21.66796875 C-5.72025146 20.84578857 -5.75690918 20.0236084 -5.79467773 19.17651367 C-5.93427772 16.82094822 -5.93427772 16.82094822 -7 14 C-6.34 14 -5.68 14 -5 14 C-5 12.35 -5 10.7 -5 9 C-3.68 9 -2.36 9 -1 9 C-0.67 6.03 -0.34 3.06 0 0 Z " fill="#D8C3C5" transform="translate(89,126)"/>
<path d="M0 0 C0.66 0 1.32 0 2 0 C2.04241723 2.33294775 2.04092937 4.66702567 2 7 C1.67 7.33 1.34 7.66 1 8 C0.62742948 10.13936977 0.30149918 12.28696285 0 14.4375 C-0.89160305 20.78320611 -0.89160305 20.78320611 -2 23 C-2.15175549 24.59262066 -2.24900325 26.19064856 -2.31640625 27.7890625 C-2.35830078 28.73007813 -2.40019531 29.67109375 -2.44335938 30.640625 C-2.50233398 32.11789063 -2.50233398 32.11789063 -2.5625 33.625 C-2.60568359 34.61757812 -2.64886719 35.61015625 -2.69335938 36.6328125 C-2.79961069 39.08839838 -2.90164964 41.54408703 -3 44 C-3.33 44 -3.66 44 -4 44 C-4.495 36.575 -4.495 36.575 -5 29 C-5.99 29.99 -6.98 30.98 -8 32 C-8 30.68 -8 29.36 -8 28 C-7.34 27.67 -6.68 27.34 -6 27 C-5.71371668 24.4736235 -5.53282808 22.03433175 -5.4375 19.5 C-5.11924736 12.11924736 -5.11924736 12.11924736 -4 11 C-3.63239269 8.67182036 -3.29758419 6.3381615 -3 4 C-2.34 4 -1.68 4 -1 4 C-0.67 2.68 -0.34 1.36 0 0 Z " fill="#9D6D74" transform="translate(95,114)"/>
<path d="M0 0 C4.64351933 4.64351933 5.1869556 11.93385563 5.29296875 18.2265625 C5.27333981 20.35957441 5.23802712 22.49249628 5.1875 24.625 C5.17396484 25.72457031 5.16042969 26.82414062 5.14648438 27.95703125 C5.111508 30.63855332 5.06243072 33.31900073 5 36 C4.01 36 3.02 36 2 36 C1.97494385 35.43490723 1.9498877 34.86981445 1.92407227 34.28759766 C1.80820044 31.73316258 1.68543463 29.1791045 1.5625 26.625 C1.52318359 25.73554688 1.48386719 24.84609375 1.44335938 23.9296875 C1.38051758 22.65351563 1.38051758 22.65351563 1.31640625 21.3515625 C1.27974854 20.56604004 1.24309082 19.78051758 1.20532227 18.97119141 C1.109109 16.92476504 1.109109 16.92476504 0 15 C-0.0716735 12.44842345 -0.09308442 9.92527029 -0.0625 7.375 C-0.05798828 6.66859375 -0.05347656 5.9621875 -0.04882812 5.234375 C-0.03703875 3.48954725 -0.01910324 1.744763 0 0 Z " fill="#F1EAEA" transform="translate(271,122)"/>
<path d="M0 0 C0.66 0 1.32 0 2 0 C2.48377991 1.85296835 2.96178636 3.70744441 3.4375 5.5625 C3.83775391 7.11130859 3.83775391 7.11130859 4.24609375 8.69140625 C5.88799109 15.89703862 6.18262492 22.83100047 6.1875 30.1875 C6.19974609 31.17169922 6.21199219 32.15589844 6.22460938 33.16992188 C6.22654297 34.11802734 6.22847656 35.06613281 6.23046875 36.04296875 C6.23457764 36.89914795 6.23868652 37.75532715 6.24291992 38.63745117 C5.98163737 41.17858811 5.27821859 42.80799919 4 45 C3.9498877 44.24082275 3.89977539 43.48164551 3.84814453 42.69946289 C2.89528684 28.42064187 1.90513143 14.18714898 0 0 Z " fill="#903C36" transform="translate(314,131)"/>
<path d="M0 0 C1.1725131 0.95117134 2.33787015 1.91117009 3.5 2.875 C4.47453125 3.67550781 4.47453125 3.67550781 5.46875 4.4921875 C5.9740625 4.98976562 6.479375 5.48734375 7 6 C7 6.66 7 7.32 7 8 C6.34 8 5.68 8 5 8 C5.00523682 8.62567871 5.01047363 9.25135742 5.01586914 9.89599609 C5.03661618 12.72232057 5.04965286 15.54862905 5.0625 18.375 C5.07087891 19.35984375 5.07925781 20.3446875 5.08789062 21.359375 C5.09111328 22.30039063 5.09433594 23.24140625 5.09765625 24.2109375 C5.10289307 25.08024902 5.10812988 25.94956055 5.11352539 26.84521484 C5 29 5 29 4 31 C3.34 31 2.68 31 2 31 C1.97494385 30.27820557 1.9498877 29.55641113 1.92407227 28.81274414 C1.80848698 25.562465 1.68559226 22.31250312 1.5625 19.0625 C1.52318359 17.92619141 1.48386719 16.78988281 1.44335938 15.61914062 C1.40146484 14.53955078 1.35957031 13.45996094 1.31640625 12.34765625 C1.27974854 11.34742432 1.24309082 10.34719238 1.20532227 9.31665039 C1.25328159 7.03930812 1.25328159 7.03930812 0 6 C-0.04080783 4.00041636 -0.04254356 1.99954746 0 0 Z " fill="#DEC9CA" transform="translate(279,132)"/>
<path d="M0 0 C2.05078125 0.03255208 4.1015625 0.06510417 6.15234375 0.09765625 C6.48234375 1.08765625 6.81234375 2.07765625 7.15234375 3.09765625 C5.50234375 3.09765625 3.85234375 3.09765625 2.15234375 3.09765625 C2.15234375 4.08765625 2.15234375 5.07765625 2.15234375 6.09765625 C4.13234375 6.09765625 6.11234375 6.09765625 8.15234375 6.09765625 C8.15234375 6.75765625 8.15234375 7.41765625 8.15234375 8.09765625 C7.08693359 8.17113281 7.08693359 8.17113281 6 8.24609375 C5.08089844 8.32085937 4.16179687 8.395625 3.21484375 8.47265625 C2.29832031 8.54226562 1.38179687 8.611875 0.4375 8.68359375 C-0.69365234 8.88855469 -0.69365234 8.88855469 -1.84765625 9.09765625 C-2.17765625 9.75765625 -2.50765625 10.41765625 -2.84765625 11.09765625 C-4.82765625 11.09765625 -6.80765625 11.09765625 -8.84765625 11.09765625 C-8.84765625 9.44765625 -8.84765625 7.79765625 -8.84765625 6.09765625 C-6.86765625 6.09765625 -4.88765625 6.09765625 -2.84765625 6.09765625 C-2.86828125 5.29328125 -2.88890625 4.48890625 -2.91015625 3.66015625 C-2.82452531 0.14928781 -2.82452531 0.14928781 0 0 Z " fill="#855547" transform="translate(196.84765625,86.90234375)"/>
<path d="M0 0 C0.33 0 0.66 0 1 0 C1.06058594 0.63808594 1.12117187 1.27617188 1.18359375 1.93359375 C1.26738281 2.75988281 1.35117188 3.58617188 1.4375 4.4375 C1.51871094 5.26121094 1.59992188 6.08492188 1.68359375 6.93359375 C1.78930815 8.98662025 1.78930815 8.98662025 3 10 C3.10433857 11.84501732 3.13854607 13.69403918 3.14526367 15.54199219 C3.15483345 17.31953888 3.15483345 17.31953888 3.16459656 19.13299561 C3.16570938 20.42457581 3.1668222 21.71615601 3.16796875 23.046875 C3.17129715 24.36536438 3.17462555 25.68385376 3.17805481 27.04229736 C3.18405417 29.84005551 3.18589403 32.63778274 3.18530273 35.43554688 C3.18520139 39.01447005 3.19882118 42.59319359 3.21607494 46.17206955 C3.22721797 48.92593285 3.22922119 51.67974837 3.22869301 54.4336319 C3.23044282 56.3928423 3.24127467 58.35203778 3.25224304 60.31121826 C3.24916641 61.50885803 3.24608978 62.7064978 3.24291992 63.94042969 C3.24434494 64.99220398 3.24576996 66.04397827 3.24723816 67.12762451 C2.99048949 70.11049172 2.25473413 72.29732822 1 75 C0.67 75 0.34 75 0 75 C0 71.37 0 67.74 0 64 C0.66 64 1.32 64 2 64 C1.8827136 56.7550005 1.75787765 49.51015987 1.62768555 42.26538086 C1.58426057 39.79861431 1.54259128 37.33181622 1.50268555 34.86499023 C1.44516555 31.32786534 1.38141925 27.79090034 1.31640625 24.25390625 C1.29969376 23.14350479 1.28298126 22.03310333 1.26576233 20.88905334 C1.24581711 19.86807053 1.22587189 18.84708771 1.20532227 17.79516602 C1.18977798 16.89137711 1.1742337 15.9875882 1.15821838 15.05641174 C1.22498543 13.00805899 1.22498543 13.00805899 0 12 C-0.07244053 9.98035801 -0.08377188 7.95832876 -0.0625 5.9375 C-0.05347656 4.83277344 -0.04445312 3.72804688 -0.03515625 2.58984375 C-0.02355469 1.73519531 -0.01195312 0.88054687 0 0 Z " fill="#E2D2D2" transform="translate(244,93)"/>
<path d="M0 0 C1.98 0.495 1.98 0.495 4 1 C4.33 2.65 4.66 4.3 5 6 C5.66 6 6.32 6 7 6 C7 9.96 7 13.92 7 18 C10.63 17.67 14.26 17.34 18 17 C18 17.66 18 18.32 18 19 C16.73542969 18.94779297 16.73542969 18.94779297 15.4453125 18.89453125 C14.34960938 18.86746094 13.25390625 18.84039062 12.125 18.8125 C11.03445312 18.77769531 9.94390625 18.74289063 8.8203125 18.70703125 C7.42425781 18.85205078 7.42425781 18.85205078 6 19 C5.34 19.99 4.68 20.98 4 22 C4 19.36 4 16.72 4 14 C3.34 14 2.68 14 2 14 C2 10.37 2 6.74 2 3 C1.01 3 0.02 3 -1 3 C-0.67 2.01 -0.34 1.02 0 0 Z " fill="#7B4E43" transform="translate(195,163)"/>
<path d="M0 0 C0 0.99 0 1.98 0 3 C-0.66 3 -1.32 3 -2 3 C-2 3.66 -2 4.32 -2 5 C-3.71484375 6.4375 -3.71484375 6.4375 -5.9375 8 C-8.98632637 10.04816804 -8.98632637 10.04816804 -11 13 C-12.65 12.67 -14.3 12.34 -16 12 C-15.34 11.67 -14.68 11.34 -14 11 C-13.7834375 9.8553125 -13.7834375 9.8553125 -13.5625 8.6875 C-12.91631141 5.60015453 -12.22621853 4.22621853 -10 2 C-6.36027986 0.45118292 -3.99204489 0 0 0 Z " fill="#EEE6E4" transform="translate(192,224)"/>
<path d="M0 0 C0.99 0.33 1.98 0.66 3 1 C1.96552734 2.36318359 1.96552734 2.36318359 0.91015625 3.75390625 C-5.66945994 12.52084793 -11.54102364 21.49733744 -17 31 C-17.67578125 29.3359375 -17.67578125 29.3359375 -18 27 C-14.14351755 18.00618172 -6.96781572 6.96781572 0 0 Z " fill="#923F39" transform="translate(87,63)"/>
<path d="M0 0 C1.33417969 -0.01836914 1.33417969 -0.01836914 2.6953125 -0.03710938 C7.23506045 -0.04727299 10.8835743 0.01780062 15 2.1875 C15 2.5175 15 2.8475 15 3.1875 C4.77 3.1875 -5.46 3.1875 -16 3.1875 C-15.67 2.5275 -15.34 1.8675 -15 1.1875 C-10.19320703 -0.33400503 -4.99124856 0.00361685 0 0 Z " fill="#A57D73" transform="translate(186,65.8125)"/>
<path d="M0 0 C0.33 0 0.66 0 1 0 C1 13.2 1 26.4 1 40 C0.67 40 0.34 40 0 40 C-0.09087891 38.93458984 -0.09087891 38.93458984 -0.18359375 37.84765625 C-0.26738281 36.92855469 -0.35117188 36.00945312 -0.4375 35.0625 C-0.51871094 34.14597656 -0.59992188 33.22945312 -0.68359375 32.28515625 C-0.76044976 30.03840268 -0.76044976 30.03840268 -2 29 C-2.0983721 27.66956375 -2.13078592 26.33406656 -2.1328125 25 C-2.13410156 24.195625 -2.13539062 23.39125 -2.13671875 22.5625 C-2.13285156 21.716875 -2.12898438 20.87125 -2.125 20 C-2.12886719 19.154375 -2.13273437 18.30875 -2.13671875 17.4375 C-2.13542969 16.633125 -2.13414063 15.82875 -2.1328125 15 C-2.13168457 14.2575 -2.13055664 13.515 -2.12939453 12.75 C-2 11 -2 11 -1 10 C-0.76712992 8.31816052 -0.58735834 6.6287584 -0.4375 4.9375 C-0.35371094 4.01839844 -0.26992187 3.09929687 -0.18359375 2.15234375 C-0.12300781 1.44207031 -0.06242187 0.73179687 0 0 Z " fill="#B58F93" transform="translate(81,144)"/>
<path d="M0 0 C0.99 0 1.98 0 3 0 C3 2.31 3 4.62 3 7 C7.29 7 11.58 7 16 7 C16 7.33 16 7.66 16 8 C15.14535156 8.06058594 14.29070312 8.12117188 13.41015625 8.18359375 C12.30542969 8.26738281 11.20070312 8.35117188 10.0625 8.4375 C8.96035156 8.51871094 7.85820312 8.59992188 6.72265625 8.68359375 C4.08890097 8.70418084 4.08890097 8.70418084 3 10 C0.32941149 10.14115161 -2.32432238 10.04247107 -5 10 C-5 10.99 -5 11.98 -5 13 C-5.66 13 -6.32 13 -7 13 C-6.67 11.35 -6.34 9.7 -6 8 C-4.68 8 -3.36 8 -2 8 C-2 6.35 -2 4.7 -2 3 C-1.34 3 -0.68 3 0 3 C0 2.01 0 1.02 0 0 Z " fill="#AF8F85" transform="translate(168,88)"/>
<path d="M0 0 C0.33 0 0.66 0 1 0 C1.02505615 1.16571533 1.0501123 2.33143066 1.07592773 3.5324707 C1.17004691 7.85436131 1.27025669 12.1760929 1.37231445 16.49780273 C1.41564622 18.36885866 1.45732257 20.23995369 1.49731445 22.11108398 C1.55505949 24.79943631 1.61874181 27.48759215 1.68359375 30.17578125 C1.70030624 31.01337479 1.71701874 31.85096832 1.73423767 32.71394348 C1.81914061 36.03673288 1.94250673 38.82752018 3 42 C3.12781786 44.67394964 3.04391871 47.32095857 3 50 C2.01 49.34 1.02 48.68 0 48 C-0.36076355 45.93722534 -0.36076355 45.93722534 -0.34057617 43.36669922 C-0.34034958 42.40585419 -0.34012299 41.44500916 -0.33988953 40.45504761 C-0.32440567 39.41542877 -0.30892181 38.37580994 -0.29296875 37.3046875 C-0.28872391 36.24210724 -0.28447906 35.17952698 -0.28010559 34.08474731 C-0.26327389 30.68124354 -0.22561303 27.27832567 -0.1875 23.875 C-0.17245899 21.57162312 -0.15876958 19.26823698 -0.14648438 16.96484375 C-0.11335574 11.30969495 -0.06311197 5.65488932 0 0 Z " fill="#B9999D" transform="translate(120,112)"/>
<path d="M0 0 C2.51924408 0.36518454 3.67761414 0.58308743 5.265625 2.63671875 C7.3301024 6.93771333 8.48878089 10.11219105 8 15 C5.87491756 11.81237635 5.4979837 9.73487777 5 6 C4.34 6 3.68 6 3 6 C2.080898 9.24388943 1.71720745 12.39351063 1.4375 15.75 C1.35371094 16.73484375 1.26992188 17.7196875 1.18359375 18.734375 C1.12300781 19.48203125 1.06242187 20.2296875 1 21 C0.67 21 0.34 21 0 21 C-0.7938642 13.78194245 -1.07875823 7.19172157 0 0 Z " fill="#C7A9AC" transform="translate(270,114)"/>
<path d="M0 0 C0.33 0 0.66 0 1 0 C1.02505615 0.63502441 1.0501123 1.27004883 1.07592773 1.92431641 C1.19256789 4.82471542 1.31498393 7.72484349 1.4375 10.625 C1.47681641 11.62402344 1.51613281 12.62304688 1.55664062 13.65234375 C1.76572614 18.50956104 2.02958555 23.22132044 3 28 C-2.25655834 22.02663824 -2.22623651 15.44947243 -2.265625 7.8671875 C-1.990304 4.89534025 -1.24490373 2.69729141 0 0 Z " fill="#D7C1C4" transform="translate(131,204)"/>
<path d="M0 0 C3.31232518 3.0915035 5.7150787 5.61168911 6.265625 10.2265625 C6.2256783 16.35838163 5.42096457 22.03702367 4 28 C3.67 28 3.34 28 3 28 C2.67 20.41 2.34 12.82 2 5 C1.34 4.67 0.68 4.34 0 4 C0 2.68 0 1.36 0 0 Z " fill="#B4928B" transform="translate(228,201)"/>
<path d="M0 0 C2.4988332 4.83107752 3.12789542 8.44398662 3.1328125 13.8984375 C3.13376923 14.57041168 3.13472595 15.24238586 3.13571167 15.9347229 C3.13639149 17.35524591 3.13455098 18.77577204 3.13037109 20.19628906 C3.12503674 22.36009795 3.13031405 24.5236977 3.13671875 26.6875 C3.13605761 28.07031295 3.13477569 29.45312578 3.1328125 30.8359375 C3.13168457 32.08938965 3.13055664 33.3428418 3.12939453 34.63427734 C3.01693478 37.55950392 2.68013281 40.1612729 2 43 C1.67 43 1.34 43 1 43 C1.00523682 42.08186523 1.01047363 41.16373047 1.01586914 40.21777344 C1.03293598 36.80354177 1.04546232 33.38935559 1.05493164 29.97509766 C1.05995288 28.49885339 1.06677116 27.02261408 1.07543945 25.54638672 C1.08760189 23.42153702 1.09325046 21.29675322 1.09765625 19.171875 C1.10289307 17.8940918 1.10812988 16.61630859 1.11352539 15.29980469 C1.02123409 12.61720416 0.75400592 10.54182463 0 8 C-0.12205329 5.32459184 -0.04467313 2.68038762 0 0 Z " fill="#C2A1A5" transform="translate(286,141)"/>
<path d="M0 0 C0.66 0 1.32 0 2 0 C4.78287462 15.24159021 4.78287462 15.24159021 2 22 C1.01 22.33 0.02 22.66 -1 23 C-0.67 15.41 -0.34 7.82 0 0 Z " fill="#AA7E84" transform="translate(284,140)"/>
<path d="M0 0 C3.12806884 -0.3475632 4.59599079 -0.26933948 7.25 1.5 C9.70568734 5.00812477 9.71678837 7.75182555 10 12 C9.34 12 8.68 12 8 12 C7.81824219 11.36191406 7.63648438 10.72382812 7.44921875 10.06640625 C7.19785156 9.24011719 6.94648438 8.41382812 6.6875 7.5625 C6.44386719 6.73878906 6.20023437 5.91507812 5.94921875 5.06640625 C5.63597656 4.38449219 5.32273437 3.70257813 5 3 C4.01 2.67 3.02 2.34 2 2 C2.33 4.31 2.66 6.62 3 9 C2.67 8.34 2.34 7.68 2 7 C1.34 7 0.68 7 0 7 C0 4.69 0 2.38 0 0 Z M-2 6 C-1.01 6.495 -1.01 6.495 0 7 C-0.33 8.32 -0.66 9.64 -1 11 C-1.33 9.35 -1.66 7.7 -2 6 Z " fill="#D3B7B9" transform="translate(257,102)"/>
<path d="M0 0 C1.99954746 -0.04254356 4.00041636 -0.04080783 6 0 C6.33 0.33 6.66 0.66 7 1 C9.14785699 1.10025224 11.2990243 1.13081378 13.44921875 1.1328125 C14.09945511 1.13376923 14.74969147 1.13472595 15.41963196 1.13571167 C16.80083309 1.13639374 18.1820374 1.13453759 19.56323242 1.13037109 C21.6613707 1.12506607 23.75929068 1.13029262 25.85742188 1.13671875 C27.2005213 1.13605713 28.54362059 1.13477424 29.88671875 1.1328125 C31.10576904 1.13168457 32.32481934 1.13055664 33.58081055 1.12939453 C36.80942862 1.00721191 39.83093262 0.60977374 43 0 C41.98583984 1.47729492 41.98583984 1.47729492 40 3 C37.32886765 3.28625979 34.89597935 3.39675649 32.2265625 3.36328125 C31.08542496 3.36402901 31.08542496 3.36402901 29.92123413 3.36479187 C28.31237171 3.36245254 26.70350555 3.3527322 25.09472656 3.33618164 C22.64094001 3.31265285 20.18824524 3.31561357 17.734375 3.32226562 C16.16926439 3.31668632 14.60415835 3.30957485 13.0390625 3.30078125 C12.30869781 3.30169266 11.57833313 3.30260406 10.82583618 3.30354309 C6.78460894 3.24776931 3.63994682 2.78794259 0 1 C0 0.67 0 0.34 0 0 Z " fill="#B69289" transform="translate(162,253)"/>
<path d="M0 0 C0.02688151 1.64574566 0.04634123 3.29161413 0.0625 4.9375 C0.07410156 5.85402344 0.08570312 6.77054688 0.09765625 7.71484375 C0 10 0 10 -1 11 C-1.39148761 12.51165654 -1.73972457 14.03469632 -2.0625 15.5625 C-2.23910156 16.38878906 -2.41570312 17.21507812 -2.59765625 18.06640625 C-2.73042969 18.70449219 -2.86320312 19.34257812 -3 20 C-3.33 20 -3.66 20 -4 20 C-4.08112454 17.41603321 -4.14054748 14.83462432 -4.1875 12.25 C-4.21263672 11.52039063 -4.23777344 10.79078125 -4.26367188 10.0390625 C-4.30928324 6.69422902 -4.23971148 4.41610294 -2.55078125 1.484375 C-1 0 -1 0 0 0 Z " fill="#99666E" transform="translate(91,142)"/>
<path d="M0 0 C3.65646331 3.65646331 4.79304546 9.36449726 5.19140625 14.4375 C5.18809328 16.2927611 5.10291153 18.14759239 5 20 C4.67 20 4.34 20 4 20 C4 18.35 4 16.7 4 15 C3.34 15 2.68 15 2 15 C1.67 15.66 1.34 16.32 1 17 C-0.53266582 13.93466836 -0.10276471 10.73245728 -0.0625 7.375 C-0.05798828 6.66859375 -0.05347656 5.9621875 -0.04882812 5.234375 C-0.03703875 3.48954725 -0.01910324 1.744763 0 0 Z " fill="#E2D1D2" transform="translate(271,122)"/>
<path d="M0 0 C0.66 0.33 1.32 0.66 2 1 C0.37660195 2.70884005 -1.29319053 4.37446717 -3 6 C-3.66 6 -4.32 6 -5 6 C-5 13.92 -5 21.84 -5 30 C-5.66 30 -6.32 30 -7 30 C-7.33 30.99 -7.66 31.98 -8 33 C-7.75636719 32.02546875 -7.75636719 32.02546875 -7.5078125 31.03125 C-6.85938857 27.16065791 -6.854707 23.41654874 -6.875 19.5 C-6.87113281 18.75363281 -6.86726563 18.00726563 -6.86328125 17.23828125 C-6.87014794 13.35860414 -7.05270224 9.78919102 -8 6 C-6.20963542 5.0234375 -4.41927083 4.046875 -2.62890625 3.0703125 C-0.83381685 2.08589976 -0.83381685 2.08589976 0 0 Z " fill="#B6928B" transform="translate(134,82)"/>
<path d="M0 0 C0.33 0.66 0.66 1.32 1 2 C1.66 2 2.32 2 3 2 C2.58388264 5.12823921 2.13850595 8.25161554 1.6875 11.375 C1.56955078 12.26445312 1.45160156 13.15390625 1.33007812 14.0703125 C1.20439453 14.92109375 1.07871094 15.771875 0.94921875 16.6484375 C0.78425903 17.82672119 0.78425903 17.82672119 0.6159668 19.02880859 C0 21 0 21 -3 23 C-3.48350422 15.10276444 -1.67664721 7.66467297 0 0 Z " fill="#A05853" transform="translate(53,128)"/>
<path d="M0 0 C0.66 2.31 1.32 4.62 2 7 C-1.3 7.33 -4.6 7.66 -8 8 C-8 6.35 -8 4.7 -8 3 C-2.25 0 -2.25 0 0 0 Z " fill="#7A4C43" transform="translate(202,114)"/>
<path d="M0 0 C0.33 0 0.66 0 1 0 C1.06058594 0.63808594 1.12117187 1.27617188 1.18359375 1.93359375 C1.26738281 2.75988281 1.35117188 3.58617188 1.4375 4.4375 C1.51871094 5.26121094 1.59992188 6.08492188 1.68359375 6.93359375 C1.78930815 8.98662025 1.78930815 8.98662025 3 10 C3.08790975 12.29151417 3.10694038 14.58572524 3.09765625 16.87890625 C3.09553383 17.90889992 3.09553383 17.90889992 3.09336853 18.95970154 C3.08775479 21.16067801 3.07520007 23.36155409 3.0625 25.5625 C3.05748676 27.05143083 3.05292355 28.54036324 3.04882812 30.02929688 C3.03778093 33.68623075 3.02050713 37.34310558 3 41 C2.67 41 2.34 41 2 41 C1.96241577 39.73555054 1.96241577 39.73555054 1.92407227 38.44555664 C1.82911845 35.32758326 1.72987552 32.20978497 1.62768555 29.09204102 C1.58428777 27.74085853 1.5426163 26.38961947 1.50268555 25.03833008 C1.44510048 23.09963299 1.38085702 21.16113724 1.31640625 19.22265625 C1.27974854 18.05484619 1.24309082 16.88703613 1.20532227 15.68383789 C1.29923812 13.08220205 1.29923812 13.08220205 0 12 C-0.07244053 9.98035801 -0.08377188 7.95832876 -0.0625 5.9375 C-0.05347656 4.83277344 -0.04445312 3.72804688 -0.03515625 2.58984375 C-0.02355469 1.73519531 -0.01195312 0.88054687 0 0 Z " fill="#E2D5D7" transform="translate(244,93)"/>
<path d="M0 0 C0.66 0.33 1.32 0.66 2 1 C1 4 1 4 -1.94140625 5.60546875 C-3.73384766 6.38857422 -3.73384766 6.38857422 -5.5625 7.1875 C-6.76003906 7.71730469 -7.95757812 8.24710937 -9.19140625 8.79296875 C-10.11824219 9.19128906 -11.04507813 9.58960938 -12 10 C-12.33 9.01 -12.66 8.02 -13 7 C-10.88002166 5.80266012 -8.75486324 4.61701287 -6.625 3.4375 C-6.02171875 3.09525391 -5.4184375 2.75300781 -4.796875 2.40039062 C-3.23021759 1.53872905 -1.61709138 0.76281817 0 0 Z " fill="#94433D" transform="translate(257,275)"/>
<path d="M0 0 C1.485 0.99 1.485 0.99 3 2 C3.35893593 4.56550925 3.55765553 6.92647905 3.625 9.5 C3.62227223 14.39957908 3.62227223 14.39957908 5 19 C5.06950541 20.54023996 5.08452357 22.08334988 5.0625 23.625 C5.05347656 24.44226563 5.04445313 25.25953125 5.03515625 26.1015625 C5.02355469 26.72804687 5.01195312 27.35453125 5 28 C1.79577949 23.19366924 1.77914464 18.73327174 1.5 13.0625 C1.28088198 8.63550452 1.01691498 4.33036298 0 0 Z " fill="#DBC2C5" transform="translate(260,114)"/>
<path d="M0 0 C0.33 0 0.66 0 1 0 C1 2.31 1 4.62 1 7 C0.34 7 -0.32 7 -1 7 C-1 15.58 -1 24.16 -1 33 C-1.33 33 -1.66 33 -2 33 C-2.04954711 28.94323508 -2.085789 24.88658806 -2.10986328 20.82958984 C-2.11990253 19.45032685 -2.13353677 18.07108504 -2.15087891 16.69189453 C-2.17521754 14.7061486 -2.18543255 12.7202455 -2.1953125 10.734375 C-2.20578613 9.54038086 -2.21625977 8.34638672 -2.22705078 7.11621094 C-2.01034762 4.14201836 -1.56186122 2.49681621 0 0 Z " fill="#AB848A" transform="translate(112,107)"/>
<path d="M0 0 C2 1.75 2 1.75 4 4 C4 5.32 4 6.64 4 8 C4.66 8 5.32 8 6 8 C6 11.3 6 14.6 6 18 C5.01 18 4.02 18 3 18 C2.95101562 17.08476563 2.90203125 16.16953125 2.8515625 15.2265625 C2.77679688 14.03804687 2.70203125 12.84953125 2.625 11.625 C2.55539063 10.44164063 2.48578125 9.25828125 2.4140625 8.0390625 C2.29782654 4.89437681 2.29782654 4.89437681 0 3 C0 2.01 0 1.02 0 0 Z " fill="#BC9C92" transform="translate(178,106)"/>
<path d="M0 0 C0.5625 1.9375 0.5625 1.9375 1 4 C0.67 4.33 0.34 4.66 0 5 C-0.10070248 7.92629572 -0.13867335 10.82390339 -0.125 13.75 C-0.12886719 14.56210938 -0.13273437 15.37421875 -0.13671875 16.2109375 C-0.1301066 20.27079574 -0.01427999 24.03947814 1 28 C0.01 27.34 -0.98 26.68 -2 26 C-2.37231445 23.70922852 -2.37231445 23.70922852 -2.36328125 20.87890625 C-2.36263672 19.86119141 -2.36199219 18.84347656 -2.36132812 17.79492188 C-2.34521484 16.72822266 -2.32910156 15.66152344 -2.3125 14.5625 C-2.31572266 13.49966797 -2.31894531 12.43683594 -2.32226562 11.34179688 C-2.26701322 3.40051983 -2.26701322 3.40051983 0 0 Z " fill="#E5D6D8" transform="translate(80,150)"/>
<path d="M0 0 C0.33 0 0.66 0 1 0 C1.33 1.98 1.66 3.96 2 6 C4.96175123 5.38722388 6.38058783 4.74627478 9 3 C8.08137175 6.17344304 7.61971964 7.64826723 4.6875 9.3125 C1.99859913 10.00035836 -0.23807537 10.15782426 -3 10 C-3 9.34 -3 8.68 -3 8 C-2.01 8 -1.02 8 0 8 C0 7.01 0 6.02 0 5 C-0.66 5 -1.32 5 -2 5 C-1.34 3.35 -0.68 1.7 0 0 Z " fill="#BC9D94" transform="translate(147,106)"/>
<path d="M0 0 C0.66 0 1.32 0 2 0 C2 1.98 2 3.96 2 6 C7.445 5.505 7.445 5.505 13 5 C13 5.66 13 6.32 13 7 C12.15695313 6.96519531 11.31390625 6.93039063 10.4453125 6.89453125 C8.80175781 6.85392578 8.80175781 6.85392578 7.125 6.8125 C6.03445312 6.77769531 4.94390625 6.74289063 3.8203125 6.70703125 C2.42425781 6.85205078 2.42425781 6.85205078 1 7 C0.34 7.99 -0.32 8.98 -1 10 C-1.02689216 8.52093108 -1.04634621 7.04172517 -1.0625 5.5625 C-1.07410156 4.73878906 -1.08570313 3.91507813 -1.09765625 3.06640625 C-1 1 -1 1 0 0 Z " fill="#A37C71" transform="translate(200,175)"/>
<path d="M0 0 C1.90389849 2.85584773 2.69462177 4.9311762 3.625 8.1875 C3.88539062 9.08855469 4.14578125 9.98960937 4.4140625 10.91796875 C4.60742188 11.60503906 4.80078125 12.29210937 5 13 C4.01 13.33 3.02 13.66 2 14 C1.30329584 12.21189234 0.61788811 10.41937948 -0.0625 8.625 C-0.44535156 7.62726563 -0.82820313 6.62953125 -1.22265625 5.6015625 C-2 3 -2 3 -1 1 C-0.67 0.67 -0.34 0.34 0 0 Z " fill="#A15B55" transform="translate(60,207)"/>
<path d="M0 0 C0.33 0 0.66 0 1 0 C1 2.97 1 5.94 1 9 C-1 10 -1 10 -2 10 C-2.99 10.66 -3.98 11.32 -5 12 C-5.33 11.01 -5.66 10.02 -6 9 C-5.34 9 -4.68 9 -4 9 C-4 7.35 -4 5.7 -4 4 C-2.68 4 -1.36 4 0 4 C0 2.68 0 1.36 0 0 Z " fill="#D2BABB" transform="translate(88,131)"/>
<path d="M0 0 C2.9041227 4.35618406 4.19768998 8.1878419 3.625 13.4375 C3.41875 14.283125 3.2125 15.12875 3 16 C1.21263294 12.82497243 0.44800767 9.89141164 -0.1875 6.3125 C-0.36667969 5.33925781 -0.54585938 4.36601563 -0.73046875 3.36328125 C-0.81941406 2.58339844 -0.90835937 1.80351563 -1 1 C-0.67 0.67 -0.34 0.34 0 0 Z " fill="#974943" transform="translate(311,117)"/>
<path d="M0 0 C0.66 0 1.32 0 2 0 C1.84152588 0.72018311 1.68305176 1.44036621 1.51977539 2.18237305 C1.02714994 4.85282412 0.79997351 7.37204546 0.68359375 10.08203125 C0.62075195 11.47905273 0.62075195 11.47905273 0.55664062 12.90429688 C0.51732422 13.86400391 0.47800781 14.82371094 0.4375 15.8125 C0.39431641 16.79154297 0.35113281 17.77058594 0.30664062 18.77929688 C0.2009774 21.18607027 0.09887673 23.59293983 0 26 C-0.33 26 -0.66 26 -1 26 C-1.02886751 21.85418113 -1.04675327 17.70838784 -1.0625 13.5625 C-1.07087891 12.37849609 -1.07925781 11.19449219 -1.08789062 9.97460938 C-1.09111328 8.84990234 -1.09433594 7.72519531 -1.09765625 6.56640625 C-1.10289307 5.52427979 -1.10812988 4.48215332 -1.11352539 3.40844727 C-1 1 -1 1 0 0 Z " fill="#AF848A" transform="translate(92,132)"/>
<path d="M0 0 C0.66 0 1.32 0 2 0 C2.04241723 2.33294775 2.04092937 4.66702567 2 7 C1.67 7.33 1.34 7.66 1 8 C0.63239269 10.32817964 0.29758419 12.6618385 0 15 C-0.33 15 -0.66 15 -1 15 C-1.22786458 13.01432292 -1.45572917 11.02864583 -1.68359375 9.04296875 C-1.97170735 6.80603607 -1.97170735 6.80603607 -3 4 C-2.34 4 -1.68 4 -1 4 C-0.67 2.68 -0.34 1.36 0 0 Z " fill="#B49091" transform="translate(95,114)"/>
<path d="M0 0 C0.99 0.99 1.98 1.98 3 3 C-1.29 3 -5.58 3 -10 3 C-10 2.34 -10 1.68 -10 1 C-6.88450128 -0.55774936 -3.3955612 -0.56480622 0 0 Z " fill="#C1A095" transform="translate(205,82)"/>
<path d="M0 0 C0.99 0.33 1.98 0.66 3 1 C2.91306859 2.79258558 2.80489496 4.58415144 2.6875 6.375 C2.62949219 7.37273437 2.57148438 8.37046875 2.51171875 9.3984375 C2.34285156 10.25695312 2.17398437 11.11546875 2 12 C1.01 12.66 0.02 13.32 -1 14 C-0.67 9.38 -0.34 4.76 0 0 Z " fill="#9E554F" transform="translate(317,171)"/>
<path d="M0 0 C0.66 0 1.32 0 2 0 C3.60725635 3.21451269 3.05748185 6.43612536 3 10 C2.67 9.34 2.34 8.68 2 8 C1.01 8 0.02 8 -1 8 C-1.125 2.25 -1.125 2.25 0 0 Z " fill="#90685D" transform="translate(226,130)"/>
<path d="M0 0 C1.47906892 -0.02689216 2.95827483 -0.04634621 4.4375 -0.0625 C5.26121094 -0.07410156 6.08492187 -0.08570312 6.93359375 -0.09765625 C9 0 9 0 10 1 C10.04063832 2.66617115 10.042721 4.33388095 10 6 C8.35 6 6.7 6 5 6 C5 5.01 5 4.02 5 3 C5.66 3 6.32 3 7 3 C7 2.34 7 1.68 7 1 C4.69 1 2.38 1 0 1 C0 0.67 0 0.34 0 0 Z " fill="#956E61" transform="translate(221,121)"/>
<path d="M0 0 C1.65 0.33 3.3 0.66 5 1 C5 1.66 5 2.32 5 3 C4.34 3 3.68 3 3 3 C3 4.65 3 6.3 3 8 C1.68 8 0.36 8 -1 8 C-1.33 10.31 -1.66 12.62 -2 15 C-2.33 15 -2.66 15 -3 15 C-3 12.36 -3 9.72 -3 7 C-1.35 7 0.3 7 2 7 C1.34 4.69 0.68 2.38 0 0 Z " fill="#9D746A" transform="translate(163,88)"/>
<path d="M0 0 C0.67359336 2.09562378 1.1227239 3.52663637 0.5625 5.6875 C-0.20961174 8.86173715 -0.35136935 11.99255569 -0.5625 15.25 C-0.64628906 16.51328125 -0.73007813 17.7765625 -0.81640625 19.078125 C-0.87699219 20.04234375 -0.93757813 21.0065625 -1 22 C-1.33 22 -1.66 22 -2 22 C-2.05807043 18.89591193 -2.09361914 15.7919636 -2.125 12.6875 C-2.14175781 11.80642578 -2.15851563 10.92535156 -2.17578125 10.01757812 C-2.18222656 9.17001953 -2.18867187 8.32246094 -2.1953125 7.44921875 C-2.20578613 6.66893311 -2.21625977 5.88864746 -2.22705078 5.0847168 C-2 3 -2 3 0 0 Z " fill="#C29FA2" transform="translate(104,128)"/>
<path d="M0 0 C0.5625 1.9375 0.5625 1.9375 1 4 C0.67 4.33 0.34 4.66 0 5 C-0.15582303 6.34015221 -0.25044142 7.68758903 -0.31640625 9.03515625 C-0.37924805 10.24848633 -0.37924805 10.24848633 -0.44335938 11.48632812 C-0.48267578 12.33646484 -0.52199219 13.18660156 -0.5625 14.0625 C-0.60568359 14.91650391 -0.64886719 15.77050781 -0.69335938 16.65039062 C-0.79976702 18.76672037 -0.90041731 20.88333813 -1 23 C-1.33 23 -1.66 23 -2 23 C-2.0580476 19.72924117 -2.09361165 16.45861476 -2.125 13.1875 C-2.14175781 12.25873047 -2.15851563 11.32996094 -2.17578125 10.37304688 C-2.18222656 9.48037109 -2.18867187 8.58769531 -2.1953125 7.66796875 C-2.20578613 6.84578857 -2.21625977 6.0236084 -2.22705078 5.17651367 C-2 3 -2 3 0 0 Z " fill="#E6DBD9" transform="translate(127,106)"/>
<path d="M0 0 C0.33 0 0.66 0 1 0 C0.85904936 1.6254308 0.71207913 3.25034051 0.5625 4.875 C0.48128906 5.77992187 0.40007813 6.68484375 0.31640625 7.6171875 C0 10 0 10 -1 12 C-1.66 12 -2.32 12 -3 12 C-2.14285714 3.42857143 -2.14285714 3.42857143 0 0 Z " fill="#974943" transform="translate(57,118)"/>
<path d="M0 0 C3 1 3 1 3.984375 2.7421875 C4.23703125 3.44601563 4.4896875 4.14984375 4.75 4.875 C5.01296875 5.57367188 5.2759375 6.27234375 5.546875 6.9921875 C6 9 6 9 5 12 C4.15885829 10.56705502 3.32734313 9.12845595 2.5 7.6875 C1.80390625 6.48673828 1.80390625 6.48673828 1.09375 5.26171875 C0 3 0 3 0 0 Z " fill="#913F39" transform="translate(63,219)"/>
<path d="M0 0 C0.33 0.66 0.66 1.32 1 2 C1.66 2 2.32 2 3 2 C2.34 4.31 1.68 6.62 1 9 C-0.32 9.33 -1.64 9.66 -3 10 C-2.01 6.7 -1.02 3.4 0 0 Z " fill="#A05954" transform="translate(308,211)"/>
<path d="M0 0 C0 1.65 0 3.3 0 5 C0.66 5 1.32 5 2 5 C2 7.31 2 9.62 2 12 C1.34 11.34 0.68 10.68 0 10 C0 9.01 0 8.02 0 7 C-0.99 6.67 -1.98 6.34 -3 6 C-3 4.35 -3 2.7 -3 1 C-1 0 -1 0 0 0 Z " fill="#D6C5C1" transform="translate(176,107)"/>
<path d="M0 0 C4.95 0 9.9 0 15 0 C15 0.33 15 0.66 15 1 C13.71802734 1.09087891 13.71802734 1.09087891 12.41015625 1.18359375 C10.75306641 1.30927734 10.75306641 1.30927734 9.0625 1.4375 C7.96035156 1.51871094 6.85820312 1.59992188 5.72265625 1.68359375 C3.08890097 1.70418084 3.08890097 1.70418084 2 3 C-0.67058851 3.14115161 -3.32432238 3.04247107 -6 3 C-6 2.67 -6 2.34 -6 2 C-4.02 2 -2.04 2 0 2 C0 1.34 0 0.68 0 0 Z " fill="#D2C0BA" transform="translate(169,95)"/>
<path d="M0 0 C0.33 0.99 0.66 1.98 1 3 C-1.31 5.31 -3.62 7.62 -6 10 C-6.66 9.34 -7.32 8.68 -8 8 C-5.36 5.36 -2.72 2.72 0 0 Z " fill="#A87B7C" transform="translate(264,221)"/>
<path d="M0 0 C0.66 0 1.32 0 2 0 C3.75 2.0625 3.75 2.0625 5 5 C4.1875 8.8125 4.1875 8.8125 3 12 C2.67 12 2.34 12 2 12 C2 10.02 2 8.04 2 6 C1.34 6 0.68 6 0 6 C0 4.02 0 2.04 0 0 Z " fill="#8A5C51" transform="translate(176,106)"/>
<path d="M0 0 C1.32 0.33 2.64 0.66 4 1 C4.625 3.375 4.625 3.375 5 6 C4.34 6.66 3.68 7.32 3 8 C2.34 8 1.68 8 1 8 C0.67 5.36 0.34 2.72 0 0 Z " fill="#EFE5E4" transform="translate(107,103)"/>
<path d="M0 0 C0.99 0.33 1.98 0.66 3 1 C0.03 4.96 0.03 4.96 -3 9 C-3.66 8.67 -4.32 8.34 -5 8 C-3.62845496 5.04590299 -2.01136276 2.55991624 0 0 Z " fill="#964640" transform="translate(87,63)"/>
<path d="M0 0 C4 1.33333333 8 2.66666667 12 4 C10.296875 5.1171875 10.296875 5.1171875 8 6 C5.640625 5.3203125 5.640625 5.3203125 3.25 4.125 C2.45078125 3.73570312 1.6515625 3.34640625 0.828125 2.9453125 C-0.07679688 2.47738281 -0.07679688 2.47738281 -1 2 C-0.67 1.34 -0.34 0.68 0 0 Z " fill="#A05853" transform="translate(137,286)"/>
<path d="M0 0 C0.66 0.33 1.32 0.66 2 1 C1.67 1.33 1.34 1.66 1 2 C0.90061137 3.76853292 0.87030777 5.54118275 0.875 7.3125 C0.87242187 8.27800781 0.86984375 9.24351562 0.8671875 10.23828125 C0.98371833 12.66143705 1.30758352 14.68644969 2 17 C1.01 16.67 0.02 16.34 -1 16 C-1.02685095 13.52076199 -1.04676547 11.0418116 -1.0625 8.5625 C-1.07506836 7.50192383 -1.07506836 7.50192383 -1.08789062 6.41992188 C-1.09653588 4.61306441 -1.05220011 2.80612397 -1 1 C-0.67 0.67 -0.34 0.34 0 0 Z " fill="#CAB2A9" transform="translate(145,206)"/>
<path d="M0 0 C0.66 0 1.32 0 2 0 C1.125 7.75 1.125 7.75 0 10 C-0.66 10 -1.32 10 -2 10 C-1.54177532 6.53058454 -1.10868317 3.32604951 0 0 Z " fill="#903D36" transform="translate(311,203)"/>
<path d="M0 0 C0.33 1.32 0.66 2.64 1 4 C1.99 4 2.98 4 4 4 C4 5.98 4 7.96 4 10 C3.01 9.67 2.02 9.34 1 9 C1.66 9 2.32 9 3 9 C3 7.68 3 6.36 3 5 C1.35 5.33 -0.3 5.66 -2 6 C-1.125 1.125 -1.125 1.125 0 0 Z " fill="#9E7369" transform="translate(183,86)"/>
<path d="M0 0 C0.33 0 0.66 0 1 0 C0.25 7.625 0.25 7.625 -2 11 C-2.93750716 7.33519927 -3.28668844 5.59943946 -1.625 2.125 C-1.08875 1.42375 -0.5525 0.7225 0 0 Z " fill="#A25B56" transform="translate(60,110)"/>
<path d="M0 0 C0.66 0.33 1.32 0.66 2 1 C-0.02882906 3.94180214 -2.05819786 5.97117094 -5 8 C-5.33 7.01 -5.66 6.02 -6 5 C-4.02 3.35 -2.04 1.7 0 0 Z " fill="#F4ECEB" transform="translate(275,266)"/>
<path d="M0 0 C0.33 0.99 0.66 1.98 1 3 C1.66 3 2.32 3 3 3 C3 4.98 3 6.96 3 9 C2.01 9.33 1.02 9.66 0 10 C0 6.7 0 3.4 0 0 Z " fill="#8F635A" transform="translate(199,166)"/>
<path d="M0 0 C1.32 0 2.64 0 4 0 C4 3.3 4 6.6 4 10 C3.67 10 3.34 10 3 10 C3 8.02 3 6.04 3 4 C2.01 4 1.02 4 0 4 C0 2.68 0 1.36 0 0 Z " fill="#A67C73" transform="translate(188,119)"/>
<path d="M0 0 C0.33 0 0.66 0 1 0 C1.06058594 0.73605469 1.12117187 1.47210938 1.18359375 2.23046875 C1.26738281 3.20628906 1.35117188 4.18210937 1.4375 5.1875 C1.51871094 6.15042969 1.59992188 7.11335938 1.68359375 8.10546875 C1.97666151 10.78649602 2.42703754 13.3662986 3 16 C2.34 16 1.68 16 1 16 C-0.14077657 12.57767028 -0.09815117 9.91326783 -0.0625 6.3125 C-0.05347656 5.13300781 -0.04445312 3.95351562 -0.03515625 2.73828125 C-0.02355469 1.83464844 -0.01195312 0.93101563 0 0 Z " fill="#B8939A" transform="translate(254,101)"/>
<path d="M0 0 C0.33 0.66 0.66 1.32 1 2 C1.66 2 2.32 2 3 2 C2.34 4.97 1.68 7.94 1 11 C-1.78637633 6.8204355 -0.79562512 4.85331323 0 0 Z " fill="#9F5751" transform="translate(313,195)"/>
<path d="M0 0 C0.33 0 0.66 0 1 0 C1.33 3.63 1.66 7.26 2 11 C1.67 10.34 1.34 9.68 1 9 C0.34 9 -0.32 9 -1 9 C-1.625 5.625 -1.625 5.625 -2 2 C-1.34 1.34 -0.68 0.68 0 0 Z " fill="#A35D58" transform="translate(52,173)"/>
<path d="M0 0 C2.31 0 4.62 0 7 0 C7 0.66 7 1.32 7 2 C5.35 2 3.7 2 2 2 C2 2.99 2 3.98 2 5 C1.34 5 0.68 5 0 5 C0 3.35 0 1.7 0 0 Z " fill="#5E2D22" transform="translate(221,122)"/>
<path d="M0 0 C0.33 0 0.66 0 1 0 C1 2.31 1 4.62 1 7 C0.34 7 -0.32 7 -1 7 C-1 8.65 -1 10.3 -1 12 C-1.33 12 -1.66 12 -2 12 C-2.28571429 3.42857143 -2.28571429 3.42857143 0 0 Z " fill="#BF9CA1" transform="translate(112,107)"/>
<path d="M0 0 C0.33 0 0.66 0 1 0 C1.06058594 0.59167969 1.12117187 1.18335937 1.18359375 1.79296875 C1.62012371 5.90978208 2.08671346 9.95544533 3 14 C2.01 13.34 1.02 12.68 0 12 C-0.29296875 9.1796875 -0.29296875 9.1796875 -0.1875 5.875 C-0.16042969 4.77929688 -0.13335937 3.68359375 -0.10546875 2.5546875 C-0.07066406 1.71164063 -0.03585938 0.86859375 0 0 Z " fill="#CBAFB2" transform="translate(244,93)"/>
<path d="M0 0 C0.33 1.32 0.66 2.64 1 4 C-1.64 4 -4.28 4 -7 4 C-7 3.34 -7 2.68 -7 2 C-4.69 1.34 -2.38 0.68 0 0 Z " fill="#6D3222" transform="translate(238,91)"/>
<path d="M0 0 C4.67461851 -0.32613618 7.16674383 0.29417212 11 3 C7.59068103 4.13643966 6.99664544 3.86747764 3.8125 2.5625 C3.09707031 2.27503906 2.38164062 1.98757813 1.64453125 1.69140625 C1.10183594 1.46324219 0.55914062 1.23507812 0 1 C0 0.67 0 0.34 0 0 Z " fill="#984B45" transform="translate(126,283)"/>
<path d="M0 0 C0 3 0 3 -1 5 C-0.01 5.33 0.98 5.66 2 6 C1.67 6.66 1.34 7.32 1 8 C-0.65 7.67 -2.3 7.34 -4 7 C-3.34 6.67 -2.68 6.34 -2 6 C-1.62690101 4.34178227 -1.29299023 2.67422986 -1 1 C-0.67 0.67 -0.34 0.34 0 0 Z " fill="#DCCBC5" transform="translate(180,229)"/>
<path d="M0 0 C0.33 0 0.66 0 1 0 C1.06058594 0.61488281 1.12117188 1.22976562 1.18359375 1.86328125 C1.26738281 2.67152344 1.35117188 3.47976562 1.4375 4.3125 C1.51871094 5.11300781 1.59992188 5.91351563 1.68359375 6.73828125 C1.95265693 9.16087179 1.95265693 9.16087179 3 12 C2.01 12 1.02 12 0 12 C-1.16063604 7.74433453 -0.76173392 4.3164922 0 0 Z " fill="#E3CECC" transform="translate(63,203)"/>
<path d="M0 0 C0.33 0 0.66 0 1 0 C1 1.65 1 3.3 1 5 C-0.98 5 -2.96 5 -5 5 C-4.67 4.01 -4.34 3.02 -4 2 C-2.68 2 -1.36 2 0 2 C0 1.34 0 0.68 0 0 Z " fill="#AB8980" transform="translate(217,88)"/>
<path d="M0 0 C-0.33 0.66 -0.66 1.32 -1 2 C-4.96 1.67 -8.92 1.34 -13 1 C-13 0.67 -13 0.34 -13 0 C-4.57142857 -1.28571429 -4.57142857 -1.28571429 0 0 Z " fill="#E1CCCA" transform="translate(136,287)"/>
<path d="M0 0 C0.33 0.99 0.66 1.98 1 3 C0.00390625 4.82421875 0.00390625 4.82421875 -1.4375 6.6875 C-1.91058594 7.31011719 -2.38367188 7.93273437 -2.87109375 8.57421875 C-3.24363281 9.04472656 -3.61617188 9.51523438 -4 10 C-4.66 9.34 -5.32 8.68 -6 8 C-5.38125 7.236875 -4.7625 6.47375 -4.125 5.6875 C-1.94402948 3.00374191 -1.94402948 3.00374191 0 0 Z " fill="#E8D8D6" transform="translate(293,240)"/>
<path d="M0 0 C0 0.99 0 1.98 0 3 C-1 4 -1 4 -4.0625 4.0625 C-5.5165625 4.0315625 -5.5165625 4.0315625 -7 4 C-7 3.34 -7 2.68 -7 2 C-4.69 1.34 -2.38 0.68 0 0 Z " fill="#AA827A" transform="translate(178,223)"/>
<path d="M0 0 C0.66 0 1.32 0 2 0 C4.09230769 4.43076923 4.09230769 4.43076923 3.625 7.3125 C3.41875 7.869375 3.2125 8.42625 3 9 C0 3.375 0 3.375 0 0 Z " fill="#8D3731" transform="translate(56,200)"/>
<path d="M0 0 C2.64 0.33 5.28 0.66 8 1 C7.67 1.99 7.34 2.98 7 4 C3.73045798 3.43628586 2.17424117 2.50037734 0 0 Z " fill="#D6B7B9" transform="translate(234,168)"/>
<path d="M0 0 C0.99 0.33 1.98 0.66 3 1 C3.33 2.98 3.66 4.96 4 7 C3.34 7 2.68 7 2 7 C1.34 4.69 0.68 2.38 0 0 Z " fill="#8F3C35" transform="translate(307,111)"/>
<path d="M0 0 C1.65 0 3.3 0 5 0 C4.67 1.32 4.34 2.64 4 4 C2.68 4 1.36 4 0 4 C0 2.68 0 1.36 0 0 Z " fill="#72392C" transform="translate(189,93)"/>
<path d="M0 0 C0.99 0 1.98 0 3 0 C3 1.65 3 3.3 3 5 C1.68 5 0.36 5 -1 5 C-0.67 3.35 -0.34 1.7 0 0 Z " fill="#DCCFCA" transform="translate(168,88)"/>
</svg>
