<?xml version="1.0" encoding="UTF-8"?>
<svg version="1.1" xmlns="http://www.w3.org/2000/svg" width="430" height="406">
<path d="M0 0 C141.9 0 283.8 0 430 0 C430 133.98 430 267.96 430 406 C288.1 406 146.2 406 0 406 C0 272.02 0 138.04 0 0 Z " fill="#FEFDFD" transform="translate(0,0)"/>
<path d="M0 0 C1.05743408 0.33692871 1.05743408 0.33692871 2.13623047 0.68066406 C16.82723697 5.56936422 29.39041123 13.9139287 41 24 C41.63164062 24.49886719 42.26328125 24.99773437 42.9140625 25.51171875 C60.23987666 39.31699077 71.43254931 62.0390211 77 83 C77.26256592 83.96429932 77.52513184 84.92859863 77.7956543 85.92211914 C79.81871946 93.88632249 80.51002628 101.3589723 80.4375 109.5625 C80.42614014 111.3873291 80.42614014 111.3873291 80.41455078 113.24902344 C79.92115204 140.59843966 70.3124971 165.86681389 53 187 C52.31421875 187.85078125 51.6284375 188.7015625 50.921875 189.578125 C33.4857709 210.11398094 6.22122787 224.92095718 -20.65087891 227.83666992 C-55.63730504 230.26921192 -85.84103418 223.45338784 -113 201 C-113.74894531 200.40445313 -114.49789062 199.80890625 -115.26953125 199.1953125 C-137.18351479 181.12816236 -150.7711708 151.79411085 -154 124 C-155.00729476 110.15083647 -154.3592469 96.48411131 -151 83 C-150.8443457 82.35192383 -150.68869141 81.70384766 -150.52832031 81.03613281 C-145.6222336 61.32365269 -134.83028513 42.85411447 -120 29 C-119.195625 28.175 -118.39125 27.35 -117.5625 26.5 C-86.70623038 -3.60367767 -40.84040015 -13.03361785 0 0 Z " fill="#FCFBFB" transform="translate(249,80)"/>
<path d="M0 0 C4.11529884 1.20579456 7.68526919 3.28881774 11.44921875 5.3125 C18.33379966 8.45093652 24.77542301 9.17251483 32.2421875 9.16015625 C33.54240845 9.1610022 33.54240845 9.1610022 34.86889648 9.16186523 C42.94867519 9.02587705 50.04175916 7.37269932 57.6796875 4.78515625 C58.6696875 4.45515625 59.6596875 4.12515625 60.6796875 3.78515625 C60.82062294 11.37558937 60.92626491 18.96588202 60.99056053 26.55733776 C61.02146811 30.0850107 61.06316041 33.61176929 61.13232422 37.13891602 C61.71572687 67.7171374 56.02821516 94.61821067 34.25927734 117.26269531 C25.02435659 126.45608927 14.30177157 134.09053711 1.6796875 137.78515625 C-12.97613163 137.13378651 -27.62068605 125.1050159 -37.1953125 114.78515625 C-48.16843003 101.88974076 -55.15996058 88.20967353 -59.3203125 71.78515625 C-59.66328369 70.8523584 -60.00625488 69.91956055 -60.35961914 68.95849609 C-62.04201493 63.05490947 -61.56397705 56.83859001 -61.515625 50.7578125 C-61.51188931 49.40018422 -61.50904497 48.04255322 -61.50704956 46.68492126 C-61.49945681 43.13227743 -61.47984647 39.57980022 -61.4576416 36.02722168 C-61.43708863 32.39382175 -61.42802774 28.76039458 -61.41796875 25.12695312 C-61.39659589 18.01295316 -61.36251337 10.89906565 -61.3203125 3.78515625 C-60.54429687 4.09759277 -59.76828125 4.4100293 -58.96875 4.73193359 C-44.13505665 10.63095213 -26.96443815 11.30639172 -12.14453125 5.16796875 C-9.77050806 4.00558395 -7.51254518 2.78511051 -5.2578125 1.41015625 C-2.3203125 -0.21484375 -2.3203125 -0.21484375 0 0 Z " fill="#862B25" transform="translate(212.3203125,130.21484375)"/>
<path d="M0 0 C23.4263929 20.35865097 40.89282738 48.2167753 44.22265625 79.61230469 C46.55942864 113.35052208 39.30241335 147.26087845 17.02734375 173.56542969 C15.20785281 175.6405173 13.34601394 177.67127146 11.46484375 179.69042969 C10.59085938 180.645625 9.716875 181.60082031 8.81640625 182.58496094 C-6.42632874 198.56524762 -25.54023429 208.88629053 -46.58300781 215.11181641 C-48.37495745 215.64294705 -50.15505674 216.21363893 -51.93359375 216.78808594 C-61.09964491 219.08456947 -70.51393719 218.87306622 -79.91015625 218.87792969 C-81.14765625 218.89017578 -82.38515625 218.90242187 -83.66015625 218.91503906 C-115.61118776 218.96548806 -145.23997832 204.97133313 -167.78515625 182.81542969 C-180.23039311 170.21208637 -188.91381937 156.09328695 -195.53515625 139.69042969 C-195.90640625 138.85511719 -196.27765625 138.01980469 -196.66015625 137.15917969 C-208.4451359 108.8015724 -205.45884617 74.32252111 -194.15795898 46.4609375 C-188.39616619 33.02896519 -180.43361846 21.37561938 -170.53515625 10.69042969 C-169.74625 9.8203125 -168.95734375 8.95019531 -168.14453125 8.05371094 C-124.29836931 -38.18801945 -48.14945204 -41.07405547 0 0 Z M-109.53515625 -18.30957031 C-110.35765869 -18.0959082 -111.18016113 -17.88224609 -112.02758789 -17.66210938 C-128.81626449 -12.99054304 -143.52605625 -4.85823594 -156.53515625 6.69042969 C-157.38851562 7.36074219 -158.241875 8.03105469 -159.12109375 8.72167969 C-162.73164239 11.66620479 -165.55098224 15.12927401 -168.53515625 18.69042969 C-169.16550781 19.40972656 -169.79585937 20.12902344 -170.4453125 20.87011719 C-191.23319971 45.41883489 -198.35391812 76.1916547 -196.53515625 107.69042969 C-193.96919276 131.67280066 -183.80137862 153.27247108 -168.53515625 171.69042969 C-167.58382812 172.88925781 -167.58382812 172.88925781 -166.61328125 174.11230469 C-149.24707627 195.04080813 -121.26813832 208.75862859 -94.53515625 211.69042969 C-89.75998462 211.96891482 -85.00519422 212.02519328 -80.22265625 212.00292969 C-78.94737061 211.99729004 -77.67208496 211.99165039 -76.3581543 211.98583984 C-67.06480527 211.86620078 -58.52178568 211.21851546 -49.53515625 208.69042969 C-48.82391602 208.49175293 -48.11267578 208.29307617 -47.37988281 208.08837891 C-30.67876352 203.30177645 -16.84910536 195.77668535 -3.53515625 184.69042969 C-2.66246094 183.98273438 -1.78976562 183.27503906 -0.890625 182.54589844 C20.76931376 164.1605331 34.3993105 135.68132674 37.46484375 107.69042969 C38.40352283 90.69902037 37.66381603 74.93996788 32.46484375 58.69042969 C32.08070313 57.47355469 31.6965625 56.25667969 31.30078125 55.00292969 C20.69279577 24.98305241 -3.06163373 1.60671501 -31.41796875 -11.96972656 C-47.26582198 -18.78152313 -62.90403991 -21.83923553 -80.09765625 -21.68457031 C-81.39123047 -21.69617188 -82.68480469 -21.70777344 -84.01757812 -21.71972656 C-92.87417287 -21.69309019 -100.97072996 -20.53764834 -109.53515625 -18.30957031 Z " fill="#8A332C" transform="translate(291.53515625,96.3095703125)"/>
<path d="M0 0 C-5.10798944 11.25071629 -11.32175793 24.34219044 -23 30 C-24.45483938 30.27305443 -25.91687402 30.50956172 -27.3828125 30.71484375 C-31.7264516 31.636476 -33.5963604 33.0136381 -36.14282227 36.59277344 C-36.54944092 37.2221582 -36.95605957 37.85154297 -37.375 38.5 C-37.8299585 39.16290039 -38.28491699 39.82580078 -38.75366211 40.50878906 C-40.2042954 42.65149273 -41.60668053 44.81965504 -43 47 C-43.46196777 47.71349609 -43.92393555 48.42699219 -44.39990234 49.16210938 C-55.37895644 66.23294147 -64.63567901 83.69902375 -71 103 C-71.59941406 104.76537109 -71.59941406 104.76537109 -72.2109375 106.56640625 C-80.52745675 133.04795438 -80.28217648 162.15797321 -74 189 C-73.82871582 189.73653809 -73.65743164 190.47307617 -73.48095703 191.23193359 C-64.16447983 229.58073745 -45.26726126 264.37698601 -11.234375 285.5078125 C16.19756098 301.98574472 46.4562002 314.51256908 76.671875 324.84375 C80 326 80 326 82.390625 327.28125 C90.28633928 329.45611741 100.08571537 323.9067366 107.3125 321.125 C107.93883331 320.88523437 108.56516663 320.64546875 109.21047974 320.3984375 C158.70975031 301.42477034 205.64573409 281.21080628 228.609375 230.546875 C236.44532583 212.68495799 242.34556629 194.36339535 245 175 C245.11214844 174.22011719 245.22429687 173.44023437 245.33984375 172.63671875 C248.87233192 143.84452067 243.62219751 114.39378727 232 88 C231.6795874 87.2589502 231.3591748 86.51790039 231.02905273 85.75439453 C223.66884246 68.93630384 213.9203521 53.70987727 203 39 C202.49082031 38.23558594 201.98164063 37.47117188 201.45703125 36.68359375 C199.43393376 34.34591273 197.19000465 34.11558965 194.23046875 33.58984375 C184.37657014 30.98399666 178.53654285 22.91250358 173.61669922 14.49145508 C171.29759564 10.38549239 169.07583332 6.23511722 167 2 C179.75964602 3.89136346 190.3100458 8.18985639 199 18 C200.92647724 20.80543248 202.00310286 23.45787875 201.99609375 26.94140625 C202.00670316 32.70231654 204.1434774 35.92391878 207.75 40.25 C237.65296204 76.18306266 253.32815596 123.50516181 249.765625 170.06298828 C248.58984296 181.33927955 246.18994604 192.13868577 243 203 C242.51922149 204.89542522 242.03993903 206.79123085 241.5625 208.6875 C239.89308151 214.70619299 237.55939175 220.30904479 235 226 C234.49919922 227.14202881 234.49919922 227.14202881 233.98828125 228.30712891 C208.41424827 286.30858704 153.88645875 307.92654686 99 332 C104.38352707 334.08453068 109.74815348 335.90408272 115.3125 337.4375 C116.45307861 337.75400513 116.45307861 337.75400513 117.61669922 338.0769043 C126.32723091 340.43966932 135.15060626 342.24385645 144 344 C143.17707746 347.98467756 141.33946269 350.67947232 139 354 C125.3845376 352.19946656 113.35185913 347.75060477 100.74462891 342.44165039 C99.2004126 341.79957642 99.2004126 341.79957642 97.625 341.14453125 C96.70976562 340.75628174 95.79453125 340.36803223 94.8515625 339.96801758 C87.80508297 337.57595496 83.25384568 338.11327656 76.50390625 340.640625 C75.71153061 340.92347351 74.91915497 341.20632202 74.10276794 341.4977417 C71.58387552 342.40076163 69.07338379 343.32497565 66.5625 344.25 C64.88006415 344.85687575 63.19712499 345.46235809 61.51367188 346.06640625 C58.40383043 347.18587801 55.29655056 348.31174765 52.19360352 349.45019531 C51.50042023 349.70442261 50.80723694 349.9586499 50.0930481 350.22058105 C48.65050518 350.75776187 47.21194095 351.30570837 45.77682495 351.86242676 C40.26334885 353.99372979 40.26334885 353.99372979 37.375 354.0625 C33.89234838 352.50447164 31.23796418 350.09162062 29 347 C29 346.01 29 345.02 29 344 C29.93344238 343.81993408 29.93344238 343.81993408 30.88574219 343.63623047 C44.53605888 340.97379255 57.85099521 337.85690839 71.09082031 333.58496094 C73.04684658 332.98564649 75.01400808 332.48939203 77 332 C70.96277647 329.09484561 64.92084781 326.19966455 58.875 323.3125 C57.96996735 322.8802713 57.06493469 322.4480426 56.13247681 322.00271606 C44.41069589 316.41437539 32.64104839 311.01049432 20.6875 305.9375 C-0.46521004 296.9133926 -19.26290519 286.99575841 -36 271 C-36.74636719 270.32839844 -37.49273437 269.65679687 -38.26171875 268.96484375 C-52.83051892 255.36221183 -62.47326414 235.55353002 -69 217 C-69.50080078 215.67162109 -69.50080078 215.67162109 -70.01171875 214.31640625 C-71.04889658 211.55743124 -72.02827119 208.78267797 -73 206 C-73.4021875 204.90171875 -73.804375 203.8034375 -74.21875 202.671875 C-88.59841571 160.76041032 -83.07157805 115.56137063 -64.0546875 76.15136719 C-57.63464796 63.05567543 -50.71810945 50.15145415 -41.4375 38.8203125 C-36.44714221 32.66233895 -34.39046239 28.62461966 -33.55859375 20.7578125 C-32.24549314 14.27495216 -26.83120353 10.41625677 -21.6875 6.75 C-14.58605137 2.32218024 -8.44597577 -0.268454 0 0 Z " fill="#8C362F" transform="translate(128,34)"/>
<path d="M0 0 C4.11529884 1.20579456 7.68526919 3.28881774 11.44921875 5.3125 C18.33379966 8.45093652 24.77542301 9.17251483 32.2421875 9.16015625 C33.54240845 9.1610022 33.54240845 9.1610022 34.86889648 9.16186523 C42.94867519 9.02587705 50.04175916 7.37269932 57.6796875 4.78515625 C58.6696875 4.45515625 59.6596875 4.12515625 60.6796875 3.78515625 C60.82062294 11.37558937 60.92626491 18.96588202 60.99056053 26.55733776 C61.02146811 30.0850107 61.06316041 33.61176929 61.13232422 37.13891602 C61.71572687 67.7171374 56.02821516 94.61821067 34.25927734 117.26269531 C25.02435659 126.45608927 14.30177157 134.09053711 1.6796875 137.78515625 C-12.97613163 137.13378651 -27.62068605 125.1050159 -37.1953125 114.78515625 C-48.16843003 101.88974076 -55.15996058 88.20967353 -59.3203125 71.78515625 C-59.66328369 70.8523584 -60.00625488 69.91956055 -60.35961914 68.95849609 C-62.04201493 63.05490947 -61.56397705 56.83859001 -61.515625 50.7578125 C-61.51188931 49.40018422 -61.50904497 48.04255322 -61.50704956 46.68492126 C-61.49945681 43.13227743 -61.47984647 39.57980022 -61.4576416 36.02722168 C-61.43708863 32.39382175 -61.42802774 28.76039458 -61.41796875 25.12695312 C-61.39659589 18.01295316 -61.36251337 10.89906565 -61.3203125 3.78515625 C-60.54429687 4.09759277 -59.76828125 4.4100293 -58.96875 4.73193359 C-44.13505665 10.63095213 -26.96443815 11.30639172 -12.14453125 5.16796875 C-9.77050806 4.00558395 -7.51254518 2.78511051 -5.2578125 1.41015625 C-2.3203125 -0.21484375 -2.3203125 -0.21484375 0 0 Z M-6.1328125 9.16015625 C-21.80813436 17.27053458 -37.29547193 16.9051333 -54.3203125 13.78515625 C-54.3971275 20.64950289 -54.4492293 27.51373646 -54.48510742 34.37841797 C-54.50008327 36.70788719 -54.5204711 39.03732875 -54.54663086 41.36669922 C-54.85753836 69.78730281 -49.27883014 92.35653326 -29.53515625 113.6640625 C-21.53971544 121.32107195 -10.78005257 130.19311339 0.6171875 131.09765625 C17.16012178 127.09864115 31.87009316 112.80611338 40.6796875 98.78515625 C47.43018219 87.24352042 53.82629569 74.04112439 53.79321289 60.4440918 C53.79313736 59.40339035 53.79306183 58.3626889 53.79298401 57.29045105 C53.78782272 56.17882095 53.78266144 55.06719086 53.77734375 53.921875 C53.7759288 52.7747554 53.77451385 51.6276358 53.77305603 50.445755 C53.76746611 46.78802871 53.75491539 43.130364 53.7421875 39.47265625 C53.7371712 36.99023526 53.73260852 34.50781331 53.72851562 32.02539062 C53.71749997 25.94529155 53.7007718 19.8652283 53.6796875 13.78515625 C52.60082275 13.92518066 51.52195801 14.06520508 50.41040039 14.20947266 C48.97023006 14.39367367 47.53004365 14.57774901 46.08984375 14.76171875 C45.38170532 14.85396729 44.67356689 14.94621582 43.94396973 15.04125977 C29.2021758 16.91417523 15.18108087 15.87365644 2.31640625 7.73828125 C-0.96849998 5.82535256 -3.013992 7.54229734 -6.1328125 9.16015625 Z " fill="#8C362F" transform="translate(212.3203125,130.21484375)"/>
<path d="M0 0 C2.328125 0.71875 2.328125 0.71875 5 2 C19.73354845 8.42020547 31.42572858 10.10278056 47.43359375 7.984375 C48.1654187 7.8901123 48.89724365 7.79584961 49.65124512 7.69873047 C51.43452813 7.46862944 53.21731836 7.23471463 55 7 C55.07661597 14.18580222 55.12883556 21.3714975 55.16479492 28.55761719 C55.17979978 30.9977614 55.20021015 33.43787902 55.22631836 35.87792969 C55.26306851 39.40306192 55.27981002 42.92783488 55.29296875 46.453125 C55.30845261 47.5286261 55.32393646 48.6041272 55.33988953 49.71221924 C55.34223424 60.47559885 52.79523654 70.2265013 48.375 80 C48.03235107 80.76473633 47.68970215 81.52947266 47.33666992 82.31738281 C44.08511693 89.29410846 39.96979975 95.11118881 35 101 C34.22011719 101.98484375 33.44023437 102.9696875 32.63671875 103.984375 C25.32398919 112.72093354 14.02058946 120.99309528 3 124 C-7.40946115 123.3401653 -15.23952897 117.4945786 -23 111 C-23.96679688 110.23300781 -24.93359375 109.46601563 -25.9296875 108.67578125 C-40.30916975 96.63999141 -51.2536158 75.5721518 -53 57 C-53.13140117 53.1256663 -53.11657343 49.25508347 -53.09765625 45.37890625 C-53.0962413 44.27900864 -53.09482635 43.17911102 -53.09336853 42.04588318 C-53.08779503 38.55139383 -53.07524739 35.05696981 -53.0625 31.5625 C-53.05748158 29.1855478 -53.05291927 26.8085946 -53.04882812 24.43164062 C-53.03783428 18.62107166 -53.02112262 12.8105405 -53 7 C-52.18305664 7.14088547 -51.36611328 7.28177094 -50.52441406 7.42692566 C-49.44901367 7.60983658 -48.37361328 7.7927475 -47.265625 7.98120117 C-46.20118164 8.16333664 -45.13673828 8.34547211 -44.04003906 8.53312683 C-29.14116958 10.82121664 -12.71171414 8.47447609 0 0 Z M-4.3125 9.8125 C-14.14900335 14.78382633 -24.20446959 15.18780884 -34.99609375 15.078125 C-36.05727417 15.07248535 -37.11845459 15.0668457 -38.21179199 15.06103516 C-40.80795521 15.04642123 -43.4039294 15.02593816 -46 15 C-46.10240038 21.45534531 -46.17187969 27.9104771 -46.21972656 34.36645508 C-46.23969742 36.5572899 -46.26688378 38.74807243 -46.30175781 40.9387207 C-46.7076053 58.38286017 -46.7076053 58.38286017 -42 75 C-41.67676758 75.74854248 -41.35353516 76.49708496 -41.02050781 77.26831055 C-40.09600575 79.2410057 -39.09126285 81.11509145 -38 83 C-37.62117676 83.66370605 -37.24235352 84.32741211 -36.85205078 85.01123047 C-32.53512486 92.24644672 -27.0072698 98.14502718 -21 104 C-20.37351562 104.62390625 -19.74703125 105.2478125 -19.1015625 105.890625 C-13.8432886 110.76414715 -6.90895499 115.94554938 0.1640625 117.46484375 C12.16185527 116.89704697 23.66158271 103.72688824 31.25 95.5625 C38.00639057 87.7049673 42.57537363 78.75051427 46 69 C46.26546631 68.32396729 46.53093262 67.64793457 46.80444336 66.95141602 C50.20545083 56.91879479 49.32332004 46.26039229 49.1875 35.8125 C49.17242767 33.79102558 49.15874378 31.76954031 49.14648438 29.74804688 C49.11367671 24.8317599 49.06203458 19.9160015 49 15 C47.91283691 15.02356567 47.91283691 15.02356567 46.80371094 15.04760742 C43.45255651 15.11078143 40.10152803 15.14924886 36.75 15.1875 C35.04070312 15.22520508 35.04070312 15.22520508 33.296875 15.26367188 C22.68272945 15.35413334 13.36484053 13.5054235 3.83984375 8.76953125 C0.37098491 7.31864974 -1.03978138 8.02176717 -4.3125 9.8125 Z " fill="#F9F4F4" transform="translate(211,137)"/>
<path d="M0 0 C12.75964602 1.89136346 23.3100458 6.18985639 32 16 C33.92647724 18.80543248 35.00310286 21.45787875 34.99609375 24.94140625 C35.00670316 30.70231654 37.1434774 33.92391878 40.75 38.25 C70.65296204 74.18306266 86.32815596 121.50516181 82.765625 168.06298828 C81.58984296 179.33927955 79.18994604 190.13868577 76 201 C75.51922149 202.89542522 75.03993903 204.79123085 74.5625 206.6875 C72.89308151 212.70619299 70.55939175 218.30904479 68 224 C67.66613281 224.76135254 67.33226562 225.52270508 66.98828125 226.30712891 C54.52007163 254.58480958 36.13222644 277.52790393 9 293 C8.34 293 7.68 293 7 293 C8.34825642 288.50325841 9.96744214 286.99591025 14 284.6875 C47.39844354 264.41451482 65.08940391 229.35116906 74.375 192.375 C75.8619547 185.95554798 77.1050468 179.52844809 78 173 C78.11214844 172.22011719 78.22429687 171.44023437 78.33984375 170.63671875 C81.87233192 141.84452067 76.62219751 112.39378727 65 86 C64.6795874 85.2589502 64.3591748 84.51790039 64.02905273 83.75439453 C56.66884246 66.93630384 46.9203521 51.70987727 36 37 C35.23623047 35.85337891 35.23623047 35.85337891 34.45703125 34.68359375 C32.43393376 32.34591273 30.19000465 32.11558965 27.23046875 31.58984375 C17.37657014 28.98399666 11.53654285 20.91250358 6.61669922 12.49145508 C4.29759564 8.38549239 2.07583332 4.23511722 0 0 Z " fill="#913F38" transform="translate(295,36)"/>
<path d="M0 0 C0.02578125 0.845625 0.0515625 1.69125 0.078125 2.5625 C0.13484375 3.696875 0.1915625 4.83125 0.25 6 C0.29640625 7.11375 0.3428125 8.2275 0.390625 9.375 C1.76216378 17.53389738 6.90931407 24.05079785 11.55273438 30.70703125 C11.98263672 31.33480469 12.41253906 31.96257812 12.85546875 32.609375 C13.24371826 33.16592773 13.63196777 33.72248047 14.03198242 34.29589844 C16.42043114 38.50053199 16.49551312 43.27492844 16 48 C13.63188566 54.98593732 9.99970933 59.73704863 4 64 C3.34 64 2.68 64 2 64 C2.78125 61.55859375 2.78125 61.55859375 3.5625 59.1171875 C4.48392773 54.65813547 4.48150446 51.8939092 2.28515625 47.81640625 C1.55167969 46.74261719 0.81820312 45.66882813 0.0625 44.5625 C-3.09630084 39.93293475 -4.5527393 36.61560652 -5 31 C-9.05714884 34.88075107 -9.20544536 37.51414132 -9.5625 43.125 C-9.64628906 44.40632813 -9.73007813 45.68765625 -9.81640625 47.0078125 C-9.90728516 48.48894531 -9.90728516 48.48894531 -10 50 C-12.46800047 48.84826645 -14.04783565 47.95216435 -16 46 C-16.09945415 52.11090483 -16.0712828 57.97403427 -15 64 C-21.03475352 61.0740589 -26.53538262 55.2918838 -29 49 C-30.05544697 40.17262535 -28.36338718 33.28681535 -23.4375 26 C-22.633125 25.01 -21.82875 24.02 -21 23 C-20.34 23 -19.68 23 -19 23 C-18.34 25.97 -17.68 28.94 -17 32 C-16.98582031 31.03320312 -16.97164062 30.06640625 -16.95703125 29.0703125 C-16.61256054 19.66719313 -15.91316771 11.70102748 -8.73828125 4.8359375 C-2.7559761 0 -2.7559761 0 0 0 Z " fill="#FAF7F7" transform="translate(219,161)"/>
<path d="M0 0 C15.27543708 2.26427939 32.03065946 9.80398635 41.8671875 22.13671875 C43.42649669 24.70151353 43.92544678 27.01787104 44 30 C38.92788768 32.98076743 33.70748904 32.78918367 28 32 C14.71096928 26.82146654 7.47684567 14.9474418 1 3 C0.67 2.01 0.34 1.02 0 0 Z " fill="#872D26" transform="translate(34,270)"/>
<path d="M0 0 C-6.90331336 12.02209673 -12.91121839 21.6436484 -25 29 C-25.99 29.66 -26.98 30.32 -28 31 C-31.03125 31.265625 -31.03125 31.265625 -34.5 31.25 C-35.6446875 31.25515625 -36.789375 31.2603125 -37.96875 31.265625 C-41 31 -41 31 -44 29 C-44.10987264 23.83598594 -42.85162929 21.33757124 -39.3125 17.5625 C-31.02006713 9.88383775 -21.32912683 5.22756848 -10.8125 1.4375 C-10.08160156 1.17364502 -9.35070312 0.90979004 -8.59765625 0.63793945 C-3.3856989 -1.1285663 -3.3856989 -1.1285663 0 0 Z " fill="#872D26" transform="translate(390,274)"/>
<path d="M0 0 C0.90234375 1.94921875 0.90234375 1.94921875 1 4 C-2.69066082 9.65132439 -6.69589203 11.99356679 -13.35546875 13.55078125 C-26.75200797 15.82641199 -39.16675111 12.23668913 -51 6 C-51 5.34 -51 4.68 -51 4 C-36.21517118 -1.92799 -14.66060516 -9.59603247 0 0 Z " fill="#882E28" transform="translate(156,345)"/>
<path d="M0 0 C1.11714134 0.00424484 1.11714134 0.00424484 2.2568512 0.00857544 C4.61020726 0.01967333 6.96316734 0.0447574 9.31640625 0.0703125 C10.9225205 0.08035578 12.52864079 0.08947926 14.13476562 0.09765625 C18.04962921 0.11957843 21.96420085 0.15403489 25.87890625 0.1953125 C21.98791161 5.21444409 18.13697047 8.79369624 12.62890625 11.9453125 C11.96922852 12.32872803 11.30955078 12.71214355 10.62988281 13.10717773 C2.34441125 17.79075384 -6.47581787 20.99855973 -16.12109375 19.1953125 C-19.43247681 17.53962097 -22.27596261 15.5557176 -25.12109375 13.1953125 C-24.80017435 10.14657819 -24.56076346 8.61328177 -22.30078125 6.46484375 C-21.15996094 5.74361328 -21.15996094 5.74361328 -19.99609375 5.0078125 C-19.25101562 4.51925781 -18.5059375 4.03070313 -17.73828125 3.52734375 C-11.96641335 0.58972143 -6.39137215 -0.09324096 0 0 Z " fill="#872E27" transform="translate(336.12109375,318.8046875)"/>
<path d="M0 0 C1.18335938 0.39445312 2.36671875 0.78890625 3.5859375 1.1953125 C4.38257813 1.46085937 5.17921875 1.72640625 6 2 C6 2.66 6 3.32 6 4 C-7.46836898 9.71058845 -21.78568275 15.60001655 -36.4375 10.375 C-40.92718587 8.33291707 -43.4459715 6.22735751 -46 2 C-45.8359375 -0.046875 -45.8359375 -0.046875 -45 -2 C-32.8003698 -12.26670178 -12.91225229 -4.44735458 0 0 Z " fill="#872E27" transform="translate(313,350)"/>
<path d="M0 0 C3.92858919 -0.05012431 7.85704984 -0.08605502 11.78588867 -0.10986328 C13.76552896 -0.12464917 15.74508063 -0.15008592 17.72460938 -0.17578125 C29.0733285 -0.23324312 39.87145699 -0.08538675 48.9375 7.4375 C51 10 51 10 51.25 12.0625 C48.75273026 15.9332681 44.24115301 17.58628233 40 19 C26.79556904 20.50274308 15.02479108 13.95081636 4.6875 6.28515625 C2.75 4.6875 2.75 4.6875 0 2 C0 1.34 0 0.68 0 0 Z " fill="#872D26" transform="translate(62,316)"/>
<path d="M0 0 C0.66 0 1.32 0 2 0 C5.56644411 12.4467467 5.98340119 26.47173157 0.5546875 38.41796875 C-2.53804853 43.55439718 -5.92179656 46.16871862 -11.4375 48.375 C-12.283125 48.58125 -13.12875 48.7875 -14 49 C-17.25669665 42.6223024 -18.29794661 37.37893098 -16.2265625 30.390625 C-12.11802443 19.84246344 -6.28072605 9.42108908 0 0 Z " fill="#882E28" transform="translate(396,128)"/>
<path d="M0 0 C3.56277018 3.23153758 6.00611821 6.89313341 8.4375 11 C8.83001953 11.65919434 9.22253906 12.31838867 9.62695312 12.99755859 C15.0876692 22.35975321 19.77671135 31.93186325 19 43 C17.5 46.4375 17.5 46.4375 16 49 C11.64495168 48.68892512 8.72364829 47.68413463 5.453125 44.71484375 C-2.74891762 35.03555152 -2.52916812 23.04780447 -2 11 C-1.51167973 7.28451966 -0.84968062 3.6490748 0 0 Z " fill="#882E27" transform="translate(26,125)"/>
<path d="M0 0 C4.65789053 2.10448779 7.7396756 5.35631039 11.3125 8.9375 C11.98240967 9.6082959 12.65231934 10.2790918 13.3425293 10.97021484 C19.70212715 17.48265408 27.22541338 25.71363434 28.23046875 35.16796875 C28.11111111 40.77777778 28.11111111 40.77777778 27 43 C21.56848805 43.56578249 18.41100225 42.71903631 13.9140625 39.59375 C5.98106538 32.98831566 2.36189149 23.18089216 0.1875 13.3125 C-0.06393338 8.87051028 -0.08053855 4.44751757 0 0 Z " fill="#882E27" transform="translate(18,175)"/>
<path d="M0 0 C12.22874961 2.13852518 25.9219527 13.40181717 32.84375 23.140625 C35.66663812 27.68013428 36.20933596 30.55726514 36 36 C32.69327234 37.65336383 29.55991505 37.61500194 26 37 C14.48255415 32.03863871 7.53004992 22.31304966 2.734375 11.01953125 C0 3.73107394 0 3.73107394 0 0 Z " fill="#882E27" transform="translate(21,224)"/>
<path d="M0 0 C0.83967368 12.73505086 -1.68424293 25.93258678 -10 36 C-14.05788636 39.74921596 -17.86338781 42.32638399 -23.5 42.4375 C-27 42 -27 42 -28 41 C-28.86353963 31.93283388 -26.33227931 26.04480849 -20.5703125 19.05078125 C-17.80869352 15.94021584 -14.91425857 12.96675022 -12 10 C-11.04375132 9.00570771 -10.08801174 8.01092551 -9.1328125 7.015625 C-2.29555085 0 -2.29555085 0 0 0 Z " fill="#872D26" transform="translate(406,178)"/>
<path d="M0 0 C1 2 1 2 0.03125 5.34375 C-4.54384768 18.13696383 -10.37122712 29.17205852 -22.375 36.4375 C-26.56085508 37.33446895 -30.73752595 37.14897968 -35 37 C-35.83339834 29.4994149 -33.66602817 24.86774167 -29 19 C-21.05428289 11.05428289 -10.1115578 4.82712558 0 0 Z " fill="#872D26" transform="translate(402,226)"/>
<path d="M0 0 C2.72968225 3.25646303 4.14192664 6.53300623 5.625 10.5 C6.05039062 11.6240625 6.47578125 12.748125 6.9140625 13.90625 C9.85703188 22.29053686 11.24031891 34.40989282 7.375 42.75 C5.18650318 46.24529709 2.31275563 48.59072318 -1 51 C-2.8125 50.4375 -2.8125 50.4375 -5 49 C-12.05334391 35.13415807 -7.00185118 20.2282128 -2.77783203 6.21972656 C-2.01210999 4.03455871 -1.08278058 2.04414964 0 0 Z " fill="#882E27" transform="translate(376,83)"/>
<path d="M0 0 C2.74462883 2.74462883 3.41053963 5.93370519 4.5 9.5625 C4.72067139 10.29194824 4.94134277 11.02139648 5.16870117 11.77294922 C5.78866668 13.84596611 6.39593798 15.9223039 7 18 C7.25394531 18.84691406 7.50789063 19.69382812 7.76953125 20.56640625 C9.86477433 28.51024151 10.7234966 38.209098 7.25 45.8125 C5 49 5 49 3.05078125 49.8203125 C1 50 1 50 -2.0625 48.0625 C-6.49370856 44.00727698 -8.06985772 38.59297904 -8.43359375 32.703125 C-8.45667355 31.21892887 -8.45742487 29.73424184 -8.4375 28.25 C-8.43137695 27.4664917 -8.42525391 26.6829834 -8.41894531 25.87573242 C-8.1619781 16.24242682 -5.14591686 8.08644078 0 0 Z " fill="#882E27" transform="translate(47,81)"/>
<path d="M0 0 C4.20988053 2.97038609 6.68746431 6.2250823 9.125 10.6875 C9.47046875 11.31398438 9.8159375 11.94046875 10.171875 12.5859375 C15.31502787 22.10665941 17.21975506 30.04901224 16 41 C14.75778937 44.52278194 12.96544715 46.41000452 9.75 48.375 C9.1725 48.58125 8.595 48.7875 8 49 C2.01969696 43.68417508 -1.01222436 37.97892558 -2 30 C-2.11789474 27.29938785 -2.18995459 24.6372405 -2.1875 21.9375 C-2.18814453 21.19959229 -2.18878906 20.46168457 -2.18945312 19.70141602 C-2.12582522 12.99662566 -1.28294851 6.58656602 0 0 Z " fill="#882F28" transform="translate(346,46)"/>
<path d="M0 0 C0.66 0 1.32 0 2 0 C2.93608067 7.18668386 3.21529689 14.25572535 3.25 21.5 C3.270625 22.57636719 3.29125 23.65273437 3.3125 24.76171875 C3.35123361 32.71179309 2.42293284 39.24836205 -1.9375 46 C-4.03731715 48.03618633 -5.12889107 48.69238119 -8 49 C-12.92554468 43.55597693 -15.55575152 38.96766479 -15.30859375 31.3203125 C-13.78405084 19.85729362 -7.59939084 8.58045974 0 0 Z " fill="#872D27" transform="translate(76,43)"/>
<path d="M0 0 C12.75964602 1.89136346 23.3100458 6.18985639 32 16 C34.93768714 20.2780069 35.27853153 24.8684244 35.68359375 29.91015625 C36.11241999 32.7425271 37.30924649 34.72115832 39 37 C37.125 36.6875 37.125 36.6875 35 36 C34.34 35.01 33.68 34.02 33 33 C31.10072951 32.49352787 29.19707986 31.98999934 27.265625 31.625 C17.39580269 28.9022904 11.57419975 20.97695899 6.61669922 12.49145508 C4.29759564 8.38549239 2.07583332 4.23511722 0 0 Z " fill="#872D27" transform="translate(295,36)"/>
<path d="M0 0 C-5.04898872 11.12076293 -11.30949352 24.59282784 -23 30 C-25.31932893 30.60057581 -27.62950058 31.05225902 -29.98828125 31.46875 C-32.80993268 32.21388513 -34.15927148 33.80528523 -36 36 C-37.485 36.495 -37.485 36.495 -39 37 C-37.79618552 34.50638429 -36.54571278 32.31856917 -35 30 C-34.72288504 28.1105798 -34.49986534 26.21291985 -34.3125 24.3125 C-33.1171042 16.68955294 -29.78522592 13.01416138 -23.890625 8.3203125 C-16.4184192 2.99437858 -9.25290684 -0.29410217 0 0 Z " fill="#882F28" transform="translate(128,34)"/>
<path d="M0 0 C3.70404394 5.5560659 3.24777953 11.12706447 3.3125 17.625 C3.34150391 18.57246094 3.37050781 19.51992187 3.40039062 20.49609375 C3.46460581 27.71783172 2.50230478 35.19808168 -2.58959961 40.72558594 C-4.25 42.125 -4.25 42.125 -7 44 C-11.55727842 42.27137715 -12.90834857 39.18330285 -15 35 C-16.50490743 24.20766385 -11.96546149 15.4487988 -5.8125 6.875 C-3.95942145 4.43021185 -2.16826644 2.16826644 0 0 Z " fill="#872D27" transform="translate(78,211)"/>
<path d="M0 0 C0.85034711 11.05451249 -3.48052363 21.29884712 -10.44140625 29.75 C-13.60166639 33.18255409 -16.29097773 35.13507754 -21 36 C-24.875 35.625 -24.875 35.625 -28 35 C-28.77937212 26.94648804 -26.84398363 22.41360064 -22 16 C-17.32034176 10.33241391 -7.67670052 0 0 0 Z " fill="#872D26" transform="translate(288,305)"/>
<path d="M0 0 C11.06897463 3.82192898 21.79482531 12.69630359 27.078125 23.12890625 C28.7480707 27.12918526 29.42055197 30.68934235 29 35 C28 36 28 36 24.5 36.4375 C18.86369263 36.33649091 15.11239705 33.66140927 11 30 C4.51159036 23.08588023 0.28751193 11.46056228 -0.1328125 2.015625 C-0.08898437 1.35046875 -0.04515625 0.6853125 0 0 Z " fill="#872E27" transform="translate(135,302)"/>
<path d="M0 0 C8.87415549 6.56048202 14.50363319 17.36118129 16.37890625 28.1875 C16.68852617 33.30122256 15.07696185 37.95436498 12 42 C9.859375 43.2265625 9.859375 43.2265625 8 44 C2.17703986 40.11802657 -0.56229751 34.72604006 -2 28 C-2.21807377 24.75271669 -2.18512834 21.50391829 -2.1875 18.25 C-2.19974609 17.38117188 -2.21199219 16.51234375 -2.22460938 15.6171875 C-2.23711476 10.06479744 -1.56777848 5.3292075 0 0 Z " fill="#882E27" transform="translate(345,214)"/>
<path d="M0 0 C0.74833073 12.27816712 -2.02217319 24.61354731 -8.9375 34.875 C-11.1718044 37.1770106 -13.07096432 38.68193394 -16 40 C-18.125 40 -18.125 40 -20 39 C-22.85034542 35.64066433 -23.54156582 32.56112846 -23.34375 28.16796875 C-21.52618559 16.70492048 -12.84510473 8.27494445 -4.13671875 1.43359375 C-2 0 -2 0 0 0 Z " fill="#882E28" transform="translate(77,174)"/>
<path d="M0 0 C2.9594766 8.8784298 1.9294994 21.57058999 -2 30 C-4.66389117 35.20669637 -7.77206914 37.88024658 -13.03515625 40.37109375 C-15 41 -15 41 -19 41 C-21.50035696 31.79035187 -19.9034787 24.94414687 -15.28125 16.62890625 C-5.2867677 0 -5.2867677 0 0 0 Z " fill="#872E27" transform="translate(319,281)"/>
<path d="M0 0 C4.79506299 2.62371371 7.95508658 5.52218615 11 10 C11.3125 13.375 11.3125 13.375 11 16 C6.32082984 18.63735045 2.26601107 18.80402645 -3 18 C-13.70880306 14.24978002 -23.16783886 6.99884187 -30 -2 C-21.05676586 -4.98107805 -8.51355981 -3.8592596 0 0 Z " fill="#893029" transform="translate(331,82)"/>
<path d="M0 0 C0.66 0 1.32 0 2 0 C9.74960162 7.87822571 20.09053542 20.93750086 20.1875 32.4375 C20.20167969 33.19933594 20.21585938 33.96117187 20.23046875 34.74609375 C19.97612666 37.23347315 19.24017196 38.84808106 18 41 C12.72201769 40.78457215 9.49036996 39.72169323 5.64453125 36.0234375 C-2.047977 26.55854611 -2.18530357 14.64148153 -1 3 C-0.67 2.01 -0.34 1.02 0 0 Z " fill="#872D27" transform="translate(105,278)"/>
<path d="M0 0 C10.7000537 3.77317683 17.09875646 13.19751291 22 23 C22.14851844 24.93359586 22.22130833 26.87342097 22.25 28.8125 C22.27578125 29.85019531 22.3015625 30.88789063 22.328125 31.95703125 C21.96101749 35.36151636 20.9499248 37.22392285 19 40 C14.22364952 39.57855731 11.09780835 37.53918474 8 34 C1.30093949 23.86649157 -0.64626743 11.94397949 0 0 Z " fill="#872D26" transform="translate(347,177)"/>
<path d="M0 0 C12.05711973 3.75473168 22.21031807 8.98278026 29 20 C29.92867074 22.78601223 30.16342217 24.61066089 30.1875 27.5 C30.20167969 28.2734375 30.21585937 29.046875 30.23046875 29.84375 C30 32 30 32 28 35 C21.88008249 34.68615808 17.54872168 31.88604819 13 28 C7.96645246 22.16153833 4.9493643 15.05282767 2 8 C1.62359375 7.12859375 1.2471875 6.2571875 0.859375 5.359375 C0 3 0 3 0 0 Z " fill="#882E27" transform="translate(340,141)"/>
<path d="M0 0 C2.24891558 2.06025347 3.58388997 3.85638645 4.7890625 6.65234375 C5.09070313 7.34650391 5.39234375 8.04066406 5.703125 8.75585938 C6.00734375 9.47580078 6.3115625 10.19574219 6.625 10.9375 C6.93695313 11.65357422 7.24890625 12.36964844 7.5703125 13.10742188 C10.42637457 19.74899724 11.98527997 25.69798065 11 33 C9.1623268 37.37366222 6.3804158 41.88044397 2 44 C0.01953125 43.7890625 0.01953125 43.7890625 -2 43 C-7.19416647 36.53935467 -6.80684903 27.7916303 -6 20 C-4.80118002 13.24540834 -3.38887843 6.01449595 0 0 Z " fill="#893029" transform="translate(334,250)"/>
<path d="M0 0 C1.38432102 4.15296306 -0.23418329 6.6991742 -1.9375 10.5 C-2.41304321 11.56879395 -2.41304321 11.56879395 -2.89819336 12.65917969 C-6.70803887 20.92050932 -11.44892095 29.99736726 -20 34 C-23.875 34.75 -23.875 34.75 -27 35 C-29.49255444 31.26116833 -29.63652273 27.33325087 -29 23 C-24.24585891 11.90700412 -14.65783715 5.86369553 -4 1 C-1.609375 0.30859375 -1.609375 0.30859375 0 0 Z " fill="#882E27" transform="translate(83,138)"/>
<path d="M0 0 C6.59470434 7.59619239 7.6761047 20.16202636 7.40234375 29.8203125 C6.82383322 34.39223065 5.3014053 38.04417081 3 42 C2.67 42.66 2.34 43.32 2 44 C-2.97003138 42.75749216 -5.20013733 41.2997891 -8 37 C-11.69011624 30.17328495 -10.12723732 23.04854543 -8.0625 15.9609375 C-3.64197531 3.64197531 -3.64197531 3.64197531 0 0 Z " fill="#893029" transform="translate(89,248)"/>
<path d="M0 0 C1.02802734 0.00322266 2.05605469 0.00644531 3.11523438 0.00976562 C4.72301758 0.02233398 4.72301758 0.02233398 6.36328125 0.03515625 C7.44673828 0.03966797 8.53019531 0.04417969 9.64648438 0.04882812 C12.3229721 0.06061882 14.99934902 0.07707562 17.67578125 0.09765625 C13.38081766 9.25305701 3.63711359 15.08939258 -5.32421875 19.09765625 C-8.38646675 20.08855911 -11.17516418 20.2323442 -14.38671875 20.22265625 C-15.67255859 20.22652344 -15.67255859 20.22652344 -16.984375 20.23046875 C-19.32421875 20.09765625 -19.32421875 20.09765625 -22.32421875 19.09765625 C-22.72765019 15.80296619 -22.93122728 13.18127889 -21.26953125 10.21484375 C-15.9100713 3.52276133 -8.55003312 -0.04723775 0 0 Z " fill="#872D26" transform="translate(104.32421875,76.90234375)"/>
<path d="M0 0 C-13.104 20.304 -13.104 20.304 -23.9375 25.375 C-27.96200943 26.19632845 -31.90530021 26.37067809 -36 26 C-37 25 -37 25 -37.375 22.4375 C-36.7718629 16.90874323 -34.17909663 13.02865691 -30.1328125 9.26171875 C-21.1569431 2.22421803 -11.24256127 -0.40882041 0 0 Z " fill="#872D27" transform="translate(100,106)"/>
<path d="M0 0 C12.7195814 0.88850017 23.20510391 2.85232065 32.625 12.25 C35.97579347 16.43849183 35.5560038 20.8827058 35 26 C33.66780204 26.08326237 32.33395836 26.14018053 31 26.1875 C29.88625 26.23970703 29.88625 26.23970703 28.75 26.29296875 C21.23221911 25.4920688 16.4075638 22.19888647 11.3125 16.8125 C10.75087158 16.23459717 10.18924316 15.65669434 9.6105957 15.0612793 C0 4.96881529 0 4.96881529 0 0 Z " fill="#862B24" transform="translate(325,109)"/>
<path d="M0 0 C3.4375 0.9375 3.4375 0.9375 5.4375 2.0625 C7.12135831 5.21973433 6.33452275 7.58861508 5.4375 10.9375 C3.8125 12.9375 3.8125 12.9375 1.4375 13.9375 C-2.1875 13.8125 -2.1875 13.8125 -5.5625 12.9375 C-7.88999345 9.44625983 -8.06549316 8.04527749 -7.5625 3.9375 C-5.26874134 0.3592365 -4.28872478 -0.07524079 0 0 Z " fill="#94423F" transform="translate(221.5625,86.0625)"/>
<path d="M0 0 C2.375 1.0625 2.375 1.0625 4 3 C4.5625 6.4375 4.5625 6.4375 4 10 C1.875 12.5 1.875 12.5 -1 14 C-4.54334961 14 -6.25666783 13.64741834 -8.9375 11.3125 C-10.40109489 8.12702876 -9.98928968 6.32118677 -9 3 C-6.69027592 -0.64693276 -4.08119519 -0.49973819 0 0 Z " fill="#96473F" transform="translate(273,106)"/>
<path d="M0 0 C2 2 2 2 2.375 5.9375 C2.29081697 8.8365531 2.24906476 9.69345876 0.375 12 C-2.65696965 13.2766188 -4.74003936 13.41616519 -8 13 C-9.875 12 -9.875 12 -11 10 C-11.52138906 7.21925832 -11.61061551 4.77081191 -11 2 C-7.44381044 -1.45159575 -4.61923582 -1.3344459 0 0 Z " fill="#8F3A36" transform="translate(129,215)"/>
<path d="M0 0 C2.49732489 3.74598733 2.62175294 5.57001031 2 10 C-1.12055757 12.70448323 -2.83274304 14 -7 14 C-8.65 10.04 -10.3 6.08 -12 2 C-7.59328963 -0.62304189 -4.97897747 -1.5842201 0 0 Z " fill="#903E40" transform="translate(255,271)"/>
<path d="M0 0 C5.14770554 2.49940249 5.14770554 2.49940249 7 5 C7.58649994 8.26764255 7.30408821 9.54994945 5.4375 12.3125 C2.07228821 14.64226201 0.01027077 14.57289582 -4 14 C-6.5 12.25 -6.5 12.25 -8 10 C-7.74957691 7.35723717 -7.21592632 6.22576469 -5.37109375 4.296875 C-4.73300781 3.78640625 -4.09492188 3.2759375 -3.4375 2.75 C-2.79683594 2.22921875 -2.15617188 1.7084375 -1.49609375 1.171875 C-1.00238281 0.78515625 -0.50867188 0.3984375 0 0 Z " fill="#8E3B3E" transform="translate(143,246)"/>
<path d="M0 0 C3.25325952 0.77050883 4.44331296 1.84382935 6.375 4.5625 C6.9375 7.5 6.9375 7.5 6.375 10.5625 C3.875 13.4375 3.875 13.4375 1.375 15.5625 C-2.07695767 14.1366914 -3.7264256 12.46503666 -5.875 9.4375 C-6.65617188 8.35082031 -6.65617188 8.35082031 -7.453125 7.2421875 C-7.83984375 6.68789062 -8.2265625 6.13359375 -8.625 5.5625 C-3.43706497 0.73651392 -3.43706497 0.73651392 0 0 Z " fill="#933B31" transform="translate(150.625,108.4375)"/>
<path d="M0 0 C4.23429756 1.31061591 8.07407404 2.94356259 12 5 C12 5.99 12 6.98 12 8 C10.02 7.34 8.04 6.68 6 6 C6.495 6.61875 6.99 7.2375 7.5 7.875 C9 10 9 10 9 12 C7.02 12.33 5.04 12.66 3 13 C4.32 13.66 5.64 14.32 7 15 C7 15.99 7 16.98 7 18 C2.69235185 16.43358249 -1.06171464 14.31663844 -5 12 C-4.67 11.01 -4.34 10.02 -4 9 C-1.69 9 0.62 9 3 9 C2.319375 7.88625 1.63875 6.7725 0.9375 5.625 C-0.22265625 3.7265625 -0.22265625 3.7265625 -1 2 C-0.67 1.34 -0.34 0.68 0 0 Z " fill="#92392F" transform="translate(291,227)"/>
<path d="M0 0 C5.76785714 2.84757653 5.76785714 2.84757653 8 5 C8.375 7.5625 8.375 7.5625 8 10 C7.34 10.66 6.68 11.32 6 12 C4.68 12 3.36 12 2 12 C2 13.65 2 15.3 2 17 C1.01 16.67 0.02 16.34 -1 16 C-1 14.02 -1 12.04 -1 10 C-1.66 9.67 -2.32 9.34 -3 9 C-3.99 9.99 -4.98 10.98 -6 12 C-6 7.62548685 -5.59622397 6.99527997 -3 3.75 C-2.443125 3.04359375 -1.88625 2.3371875 -1.3125 1.609375 C-0.879375 1.07828125 -0.44625 0.5471875 0 0 Z " fill="#96463E" transform="translate(153,256)"/>
<path d="M0 0 C1 1 1 1 1.0625 3.5625 C1.041875 4.366875 1.02125 5.17125 1 6 C2.65 6.33 4.3 6.66 6 7 C5.67 7.66 5.34 8.32 5 9 C2.69 9 0.38 9 -2 9 C-1.34 10.65 -0.68 12.3 0 14 C-3.77910478 14 -4.46106101 13.00296038 -7.1875 10.5 C-8.26064453 9.52546875 -8.26064453 9.52546875 -9.35546875 8.53125 C-9.89816406 8.0259375 -10.44085938 7.520625 -11 7 C-8.22123211 1.30117094 -6.70804088 -0.5833079 0 0 Z " fill="#8F3B38" transform="translate(284,248)"/>
<path d="M0 0 C0.33 3.96 0.66 7.92 1 12 C0.34 12 -0.32 12 -1 12 C-1.33 9.03 -1.66 6.06 -2 3 C-2.99 3 -3.98 3 -5 3 C-5 5.64 -5 8.28 -5 11 C-5.66 11 -6.32 11 -7 11 C-7.33 8.69 -7.66 6.38 -8 4 C-8.66 4 -9.32 4 -10 4 C-10 7.3 -10 10.6 -10 14 C-10.99 14 -11.98 14 -13 14 C-13.33 10.04 -13.66 6.08 -14 2 C-9.126739 0.4087311 -5.19209404 -0.21192221 0 0 Z " fill="#944D4E" transform="translate(311,166)"/>
<path d="M0 0 C0.33 0.66 0.66 1.32 1 2 C1.66 2.33 2.32 2.66 3 3 C2.67386719 3.98355469 2.34773438 4.96710938 2.01171875 5.98046875 C-1.66771688 17.51725257 -3.57989009 28.99007918 -5 41 C-5.99 40.67 -6.98 40.34 -8 40 C-7.00603257 28.58245303 -5.29723988 17.98650633 -2 7 C-1.32800704 4.66816142 -0.66432627 2.33403917 0 0 Z " fill="#984B45" transform="translate(55,131)"/>
<path d="M0 0 C-0.4665369 10.3337923 -2.96031161 23.35989023 -9 32 C-11.125 32.734375 -11.125 32.734375 -13 33 C-11.00475888 25.87663915 -8.60216741 18.92542708 -6.06982422 11.97875977 C-4.99133104 8.98588958 -4.03482103 6.18513999 -3.4453125 3.05078125 C-3.29835938 2.37402344 -3.15140625 1.69726562 -3 1 C-1 0 -1 0 0 0 Z " fill="#913E38" transform="translate(373,225)"/>
<path d="M0 0 C0.66 0 1.32 0 2 0 C1.34 3.3 0.68 6.6 0 10 C0.99 10 1.98 10 3 10 C3.33 8.02 3.66 6.04 4 4 C4.99 4.33 5.98 4.66 7 5 C6.67 6.98 6.34 8.96 6 11 C6.66 11.33 7.32 11.66 8 12 C8.66 9.03 9.32 6.06 10 3 C10.99 3 11.98 3 13 3 C12.25749403 7.08378283 11.17076699 11.01939223 10 15 C8.39536551 14.68991116 6.79130769 14.37683713 5.1875 14.0625 C3.84751953 13.80146484 3.84751953 13.80146484 2.48046875 13.53515625 C0 13 0 13 -3 12 C-2.14285714 3.42857143 -2.14285714 3.42857143 0 0 Z " fill="#953E35" transform="translate(296,213)"/>
<path d="M0 0 C1.32 0.33 2.64 0.66 4 1 C4.66 4.63 5.32 8.26 6 12 C1.86356447 12 1.30197567 11.84767359 -1.75 9.5 C-2.36359375 9.0359375 -2.9771875 8.571875 -3.609375 8.09375 C-4.29773438 7.55234375 -4.29773438 7.55234375 -5 7 C-4.67 7.763125 -4.34 8.52625 -4 9.3125 C-3 12 -3 12 -3 15 C-3.99 15 -4.98 15 -6 15 C-6.50512244 13.39743892 -7.00391627 11.79288208 -7.5 10.1875 C-7.7784375 9.29417969 -8.056875 8.40085937 -8.34375 7.48046875 C-9 5 -9 5 -9 2 C-5.00544473 2.61454696 -2.25533664 4.70646737 1 7 C0.67 4.69 0.34 2.38 0 0 Z " fill="#903D3F" transform="translate(238,275)"/>
<path d="M0 0 C0.66 0 1.32 0 2 0 C0.80100302 3.0831351 -0.47700477 6.06279492 -2 9 C-1.34 9.33 -0.68 9.66 0 10 C0.268125 9.360625 0.53625 8.72125 0.8125 8.0625 C2 6 2 6 5 5 C3.87548273 7.9719385 2.77706209 10.33440687 1 13 C4.26460973 11.19587357 5.88929795 10.16605307 8 7 C8.99 7 9.98 7 11 7 C9.33248852 10.94139078 6.77289351 13.7892812 4 17 C1.00779732 15.63629701 -1.29026529 14.05091917 -3.75 11.875 C-4.36359375 11.33617187 -4.9771875 10.79734375 -5.609375 10.2421875 C-6.06828125 9.83226563 -6.5271875 9.42234375 -7 9 C-6.02180976 7.68677212 -5.0424189 6.37443848 -4.0625 5.0625 C-3.51722656 4.33160156 -2.97195312 3.60070312 -2.41015625 2.84765625 C-1 1 -1 1 0 0 Z " fill="#923C36" transform="translate(138,118)"/>
<path d="M0 0 C3.6607519 1.22025063 3.92339441 2.126491 5.6875 5.4375 C6.34298828 6.64212891 6.34298828 6.64212891 7.01171875 7.87109375 C8 10 8 10 8 12 C3.6822542 11.49202991 -0.03302114 10.80317221 -4 9 C-3.2265625 10.1446875 -3.2265625 10.1446875 -2.4375 11.3125 C-1.963125 12.199375 -1.48875 13.08625 -1 14 C-1.33 14.99 -1.66 15.98 -2 17 C-5.29967665 14.19527484 -7.08459104 10.83081791 -9 7 C-8.67 6.01 -8.34 5.02 -8 4 C-7.0925 4.309375 -6.185 4.61875 -5.25 4.9375 C-2.83436662 5.7272263 -0.47219715 6.42949297 2 7 C0.515 4.03 0.515 4.03 -1 1 C-0.67 0.67 -0.34 0.34 0 0 Z " fill="#8F3C3C" transform="translate(169,95)"/>
<path d="M0 0 C-0.54339792 4.56454251 -1.79463821 7.9728176 -4 12 C-3.071875 11.484375 -2.14375 10.96875 -1.1875 10.4375 C2 9 2 9 5 10 C1.18765077 13.3502463 -2.33285711 15.16974789 -7 17 C-7.88336837 14.5332355 -8.1312406 13.36140628 -7.22265625 10.859375 C-6.83980469 10.16328125 -6.45695313 9.4671875 -6.0625 8.75 C-5.68222656 8.04359375 -5.30195313 7.3371875 -4.91015625 6.609375 C-4.60980469 6.07828125 -4.30945313 5.5471875 -4 5 C-4.928125 5.515625 -5.85625 6.03125 -6.8125 6.5625 C-10 8 -10 8 -13 7 C-4.79310345 0 -4.79310345 0 0 0 Z " fill="#8D3735" transform="translate(135,228)"/>
<path d="M0 0 C1.890625 0.24609375 1.890625 0.24609375 4 1 C5.046875 2.84765625 5.046875 2.84765625 5.75 5.0625 C5.99234375 5.79597656 6.2346875 6.52945313 6.484375 7.28515625 C6.65453125 7.85105469 6.8246875 8.41695312 7 9 C7.66 7.02 8.32 5.04 9 3 C9.99 3 10.98 3 12 3 C11.69106068 4.6256807 11.3777305 6.25052748 11.0625 7.875 C10.88847656 8.77992187 10.71445313 9.68484375 10.53515625 10.6171875 C10 13 10 13 9 15 C8.01 15 7.02 15 6 15 C5.01 12.03 4.02 9.06 3 6 C2.34 6 1.68 6 1 6 C0.67 8.31 0.34 10.62 0 13 C-0.99 13 -1.98 13 -3 13 C-2.68991116 11.39536551 -2.37683713 9.79130769 -2.0625 8.1875 C-1.88847656 7.29417969 -1.71445313 6.40085937 -1.53515625 5.48046875 C-1 3 -1 3 0 0 Z " fill="#96443F" transform="translate(232,88)"/>
<path d="M0 0 C4.571279 0.54855348 8.67435795 1.41744803 13 3 C13 3.99 13 4.98 13 6 C10.03 7.32 7.06 8.64 4 10 C5.98 10.66 7.96 11.32 10 12 C10 12.99 10 13.98 10 15 C8.20763933 14.52343588 6.41613103 14.04366502 4.625 13.5625 C3.62726563 13.29566406 2.62953125 13.02882812 1.6015625 12.75390625 C-1 12 -1 12 -3 11 C-2 8 -2 8 -0.15234375 7.05078125 C0.94400391 6.68533203 0.94400391 6.68533203 2.0625 6.3125 C2.79597656 6.06113281 3.52945313 5.80976563 4.28515625 5.55078125 C5.13400391 5.27814453 5.13400391 5.27814453 6 5 C4.02 4.01 2.04 3.02 0 2 C0 1.34 0 0.68 0 0 Z " fill="#8D3A34" transform="translate(118,151)"/>
<path d="M0 0 C1.9375 1.3125 1.9375 1.3125 3 3 C3 3.99 3 4.98 3 6 C2.01 6 1.02 6 0 6 C-0.33 5.01 -0.66 4.02 -1 3 C-2.65 3 -4.3 3 -6 3 C-6.33 4.98 -6.66 6.96 -7 9 C-5.35 9.33 -3.7 9.66 -2 10 C-1.67 9.34 -1.34 8.68 -1 8 C-2.32 7.67 -3.64 7.34 -5 7 C-3.25 6.3125 -3.25 6.3125 -1 6 C1.25 7.4375 1.25 7.4375 3 9 C2.34 10.98 1.68 12.96 1 15 C0.34 15 -0.32 15 -1 15 C-1 14.34 -1 13.68 -1 13 C-1.928125 13.061875 -2.85625 13.12375 -3.8125 13.1875 C-7 13 -7 13 -8.875 11.9375 C-10.64273274 8.8930714 -10.36823916 6.4368988 -10 3 C-7.77766882 -1.05248626 -4.20052866 -0.45005664 0 0 Z " fill="#8C3637" transform="translate(185,274)"/>
<path d="M0 0 C2.32421875 0.2265625 2.32421875 0.2265625 5 1 C6.58203125 2.9609375 6.58203125 2.9609375 7.8125 5.375 C8.23144531 6.16648437 8.65039062 6.95796875 9.08203125 7.7734375 C10 10 10 10 10 13 C9.01 12.67 8.02 12.34 7 12 C7 11.34 7 10.68 7 10 C4.6568787 10.25561323 2.32156597 10.59270772 0 11 C-0.33 11.66 -0.66 12.32 -1 13 C-1.66 13 -2.32 13 -3 13 C-2.45144652 8.428721 -1.58255197 4.32564205 0 0 Z " fill="#983D2E" transform="translate(217,279)"/>
<path d="M0 0 C2.64603773 0.9261132 3.85498043 1.62392059 5.5 3.875 C5.5 4.865 5.5 5.855 5.5 6.875 C4.51 6.545 3.52 6.215 2.5 5.875 C2.17 5.215 1.84 4.555 1.5 3.875 C-0.52463255 3.22286708 -0.52463255 3.22286708 -2.5 2.875 C0.21604715 5.74920123 0.21604715 5.74920123 3.5 7.875 C3.542721 9.54111905 3.54063832 11.20882885 3.5 12.875 C2.5 13.875 2.5 13.875 -0.3125 14.125 C-3.80934955 13.85073729 -5.12974919 13.42757779 -7.5 10.875 C-7.5 9.555 -7.5 8.235 -7.5 6.875 C-6.51 6.875 -5.52 6.875 -4.5 6.875 C-4.17 7.865 -3.84 8.855 -3.5 9.875 C-1.48491642 10.60823796 -1.48491642 10.60823796 0.5 10.875 C-0.304375 10.111875 -1.10875 9.34875 -1.9375 8.5625 C-4.5 5.875 -4.5 5.875 -5.5 2.875 C-3.68189192 0.48275253 -3.08240061 -0.15412003 0 0 Z " fill="#92403A" transform="translate(252.5,94.125)"/>
<path d="M0 0 C1.9375 1.125 1.9375 1.125 3 3 C2.6875 6.6875 2.6875 6.6875 2 10 C0.68 10 -0.64 10 -2 10 C-1.67 7.69 -1.34 5.38 -1 3 C-2.66611905 2.957279 -4.33382885 2.95936168 -6 3 C-7.29633621 4.06645115 -7.29633621 4.06645115 -7.0625 6.5625 C-7.041875 7.366875 -7.02125 8.17125 -7 9 C-6.01 9.33 -5.02 9.66 -4 10 C-4 10.99 -4 11.98 -4 13 C-6.24452405 12.6130131 -7.87054181 12.08035336 -9.8125 10.875 C-11 9 -11 9 -10.9375 5.5 C-10 2 -10 2 -8.3125 0 C-5.12832007 -1.37694267 -3.29075199 -0.980224 0 0 Z " fill="#954040" transform="translate(305,151)"/>
<path d="M0 0 C3.87511727 0.54984772 5.59576506 2.27555331 8.25 5.0625 C8.95640625 5.79597656 9.6628125 6.52945313 10.390625 7.28515625 C10.92171875 7.85105469 11.4528125 8.41695312 12 9 C11.67 9.66 11.34 10.32 11 11 C9.906875 10.835 8.81375 10.67 7.6875 10.5 C4.12474127 9.93281816 4.12474127 9.93281816 1 10 C1 11.32 1 12.64 1 14 C0.34 14 -0.32 14 -1 14 C-1.18451025 4.58997722 -1.18451025 4.58997722 0 0 Z " fill="#9A3C26" transform="translate(180,91)"/>
<path d="M0 0 C3.625 0.3125 3.625 0.3125 5.5625 2.3125 C5.913125 2.9725 6.26375 3.6325 6.625 4.3125 C5.635 4.6425 4.645 4.9725 3.625 5.3125 C2.965 4.6525 2.305 3.9925 1.625 3.3125 C0.635 3.6425 -0.355 3.9725 -1.375 4.3125 C0.0790625 4.93125 0.0790625 4.93125 1.5625 5.5625 C4.625 7.3125 4.625 7.3125 5.625 9.375 C5.625 10.014375 5.625 10.65375 5.625 11.3125 C3.625 13.3125 3.625 13.3125 0.75 13.625 C-2.65110553 13.28488945 -3.98341421 12.70408579 -6.375 10.3125 C-6.375 9.6525 -6.375 8.9925 -6.375 8.3125 C-5.5396875 8.5290625 -5.5396875 8.5290625 -4.6875 8.75 C-2.26115805 9.34019128 0.17406345 9.835929 2.625 10.3125 C0.30643083 8.76678722 -1.88138429 7.51631448 -4.375 6.3125 C-4.417721 4.64638095 -4.41563832 2.97867115 -4.375 1.3125 C-3.375 0.3125 -3.375 0.3125 0 0 Z " fill="#8D3B3A" transform="translate(197.375,277.6875)"/>
<path d="M0 0 C1.670625 0.061875 1.670625 0.061875 3.375 0.125 C3.375 1.115 3.375 2.105 3.375 3.125 C1.725 3.125 0.075 3.125 -1.625 3.125 C-2.37457157 6.59647842 -2.37457157 6.59647842 -2.625 10.125 C-0.975 10.125 0.675 10.125 2.375 10.125 C3.035 8.145 3.695 6.165 4.375 4.125 C5.365 4.125 6.355 4.125 7.375 4.125 C7.0625 7.5 7.0625 7.5 6.375 11.125 C2.87934664 13.45543558 1.4884271 13.71263244 -2.625 13.125 C-5.0625 11 -5.0625 11 -6.625 8.125 C-6.41484206 2.76597259 -5.74205401 0.19800186 0 0 Z " fill="#914042" transform="translate(269.625,258.875)"/>
<path d="M0 0 C3.13522172 1.3716595 4.25161033 3.92140238 5.875 6.8203125 C5.875 7.8103125 5.875 8.8003125 5.875 9.8203125 C3.25312506 8.77156252 2.08128639 8.17099937 0.625 5.6953125 C0.3775 5.0765625 0.13 4.4578125 -0.125 3.8203125 C-1.115 4.3153125 -1.115 4.3153125 -2.125 4.8203125 C-1.135 6.8003125 -0.145 8.7803125 0.875 10.8203125 C-0.115 11.1503125 -1.105 11.4803125 -2.125 11.8203125 C-3.115 10.1703125 -4.105 8.5203125 -5.125 6.8203125 C-6.775 7.1503125 -8.425 7.4803125 -10.125 7.8203125 C-10.125 6.8303125 -10.125 5.8403125 -10.125 4.8203125 C-8.515625 3.3984375 -8.515625 3.3984375 -6.375 2.0703125 C-5.67890625 1.62171875 -4.9828125 1.173125 -4.265625 0.7109375 C-2.125 -0.1796875 -2.125 -0.1796875 0 0 Z " fill="#903A34" transform="translate(294.125,129.1796875)"/>
<path d="M0 0 C2.66666667 2.66666667 5.33333333 5.33333333 8 8 C7.67 8.99 7.34 9.98 7 11 C6.236875 10.175 5.47375 9.35 4.6875 8.5 C2.24565858 5.65944803 2.24565858 5.65944803 -1 6 C0.98 8.97 0.98 8.97 3 12 C0 12 0 12 -1.6875 10.5 C-2.120625 10.005 -2.55375 9.51 -3 9 C-4.98 9.66 -6.96 10.32 -9 11 C-8.46324097 7.14896699 -6.88399077 5.68202413 -3.9375 3.25 C-3.20402344 2.63640625 -2.47054688 2.0228125 -1.71484375 1.390625 C-1.14894531 0.93171875 -0.58304687 0.4728125 0 0 Z " fill="#92403D" transform="translate(283,115)"/>
<path d="M0 0 C0.66 0 1.32 0 2 0 C1.52498242 2.21674869 0.9801301 4.03857099 -0.0625 6.0625 C-1.21778046 8.09134681 -1.21778046 8.09134681 -1 11 C1.41585574 10.96906827 1.41585574 10.96906827 4 10 C5.85916824 7.03292954 5.85916824 7.03292954 7 4 C7.99 4.33 8.98 4.66 10 5 C9.40606618 6.29640378 8.79942011 7.58698839 8.1875 8.875 C7.85105469 9.59429687 7.51460937 10.31359375 7.16796875 11.0546875 C6 13 6 13 3 15 C-0.32240324 14.6758631 -1.60776303 14.39223697 -4 12 C-4.54837085 7.97861378 -4.1184148 6.21314664 -2.125 2.625 C-1.42375 1.75875 -0.7225 0.8925 0 0 Z " fill="#944543" transform="translate(165,265)"/>
<path d="M0 0 C9.06187845 -0.46077348 9.06187845 -0.46077348 13 3 C14 5.5 14 5.5 14 8 C12.88671875 9.64453125 12.88671875 9.64453125 11 11 C8.08203125 11.29296875 8.08203125 11.29296875 4.8125 11.1875 C3.72582031 11.16042969 2.63914062 11.13335937 1.51953125 11.10546875 C0.27236328 11.05326172 0.27236328 11.05326172 -1 11 C-1 10.01 -1 9.02 -1 8 C2.63 8 6.26 8 10 8 C10 6.68 10 5.36 10 4 C6.7 3.34 3.4 2.68 0 2 C0 1.34 0 0.68 0 0 Z " fill="#903A31" transform="translate(113,167)"/>
<path d="M0 0 C6.21214575 1.93854194 12.08638331 4.2954058 18 7 C20.32839878 8.01197442 22.66388606 9.00590896 25 10 C25 10.99 25 11.98 25 13 C19.55454384 11.30387431 14.36525793 9.10842318 9.125 6.875 C8.24585938 6.50246094 7.36671875 6.12992187 6.4609375 5.74609375 C4.30641773 4.83276472 2.15280976 3.91735068 0 3 C0 2.01 0 1.02 0 0 Z " fill="#93423B" transform="translate(146,336)"/>
<path d="M0 0 C0.66 0.33 1.32 0.66 2 1 C-0.96660543 6.14310991 -4.08400882 8.8192239 -9.125 11.875 C-9.75792969 12.2771875 -10.39085937 12.679375 -11.04296875 13.09375 C-15.69889987 16 -15.69889987 16 -18 16 C-16.64127939 11.36763675 -14.80629455 9.8396657 -10.6875 7.4375 C-6.87297629 5.1841729 -3.40805079 2.83693845 0 0 Z " fill="#903D37" transform="translate(320,313)"/>
<path d="M0 0 C2.5625 0.1875 2.5625 0.1875 4.5625 2.1875 C4.5 4.6875 4.5 4.6875 3.5625 7.1875 C1 8.5 1 8.5 -1.4375 9.1875 C-3 8 -3 8 -4.4375 6.1875 C-3.87661439 0.29820111 -3.87661439 0.29820111 0 0 Z " fill="#F2F1EF" transform="translate(124.4375,216.8125)"/>
<path d="M0 0 C0 0.99 0 1.98 0 3 C-1.32 3 -2.64 3 -4 3 C-3.67 6.63 -3.34 10.26 -3 14 C-3.99 14 -4.98 14 -6 14 C-6.33 10.7 -6.66 7.4 -7 4 C-8.32 4 -9.64 4 -11 4 C-11 3.01 -11 2.02 -11 1 C-7.26513121 0.4254048 -3.78706732 0 0 0 Z " fill="#9C554D" transform="translate(204,86)"/>
<path d="M0 0 C2.4375 0.1875 2.4375 0.1875 3.4375 1.1875 C3.5988058 4.25231021 3.41900241 6.24299278 2.4375 9.1875 C1.7775 9.1875 1.1175 9.1875 0.4375 9.1875 C0.1075 9.8475 -0.2225 10.5075 -0.5625 11.1875 C-0.5625 10.1975 -0.5625 9.2075 -0.5625 8.1875 C-1.8825 7.8575 -3.2025 7.5275 -4.5625 7.1875 C-4.6875 4.8125 -4.6875 4.8125 -4.5625 2.1875 C-2.5625 0.1875 -2.5625 0.1875 0 0 Z " fill="#F3F5F6" transform="translate(301.5625,152.8125)"/>
<path d="M0 0 C2.5625 0.1875 2.5625 0.1875 4.5625 2.1875 C4.1875 5.3125 4.1875 5.3125 3.5625 8.1875 C1.75 8.8125 1.75 8.8125 -0.4375 9.1875 C-1.4275 8.5275 -2.4175 7.8675 -3.4375 7.1875 C-3.6875 4.125 -3.6875 4.125 -3.4375 1.1875 C-2.4375 0.1875 -2.4375 0.1875 0 0 Z " fill="#F6F6F2" transform="translate(220.4375,88.8125)"/>
<path d="M0 0 C0.66 0 1.32 0 2 0 C1.835 0.721875 1.67 1.44375 1.5 2.1875 C1.69721088 5.07642683 1.69721088 5.07642683 3.78125 6.4453125 C5.82254045 7.70314992 7.8769233 8.88633253 10 10 C9.67 10.66 9.34 11.32 9 12 C4 10 4 10 -1 8 C-1.33 8.66 -1.66 9.32 -2 10 C-2.99 9.67 -3.98 9.34 -5 9 C-4.3566152 7.686298 -3.71021785 6.37407102 -3.0625 5.0625 C-2.70285156 4.33160156 -2.34320313 3.60070312 -1.97265625 2.84765625 C-1 1 -1 1 0 0 Z " fill="#903E3D" transform="translate(128,131)"/>
<path d="M0 0 C1.875 0.75 1.875 0.75 2.875 1.75 C3.0625 4.1875 3.0625 4.1875 2.875 6.75 C2.215 7.41 1.555 8.07 0.875 8.75 C-1.75 8.375 -1.75 8.375 -4.125 7.75 C-4.8125 5.4375 -4.8125 5.4375 -5.125 2.75 C-3.57413519 0.30126608 -2.92569791 -0.34419975 0 0 Z " fill="#F4F8F8" transform="translate(271.125,108.25)"/>
<path d="M0 0 C2.625 -0.1875 2.625 -0.1875 5 0 C5.103125 0.639375 5.20625 1.27875 5.3125 1.9375 C5.539375 2.618125 5.76625 3.29875 6 4 C6.99 4.33 7.98 4.66 9 5 C7 6 7 6 5 6 C4.67 6.99 4.34 7.98 4 9 C2.35 8.67 0.7 8.34 -1 8 C-1.625 5.6875 -1.625 5.6875 -2 3 C-1.34 2.01 -0.68 1.02 0 0 Z " fill="#E1E0E7" transform="translate(179,276)"/>
<path d="M0 0 C0.66 0.33 1.32 0.66 2 1 C1.27239851 3.22646056 0.53634777 5.44933332 -0.21484375 7.66796875 C-0.81082857 9.43813261 -1.38038188 11.21722201 -1.9375 13 C-2.288125 13.66 -2.63875 14.32 -3 15 C-5.06640625 15.625 -5.06640625 15.625 -7 16 C-3.58536585 4.27642276 -3.58536585 4.27642276 -2 1 C-1.34 0.67 -0.68 0.34 0 0 Z " fill="#964842" transform="translate(367,242)"/>
<path d="M0 0 C1.32 0.66 2.64 1.32 4 2 C3.25 6.75 3.25 6.75 1 9 C-1 8.8125 -1 8.8125 -3 8 C-3.66 7.01 -4.32 6.02 -5 5 C-3.35 3.35 -1.7 1.7 0 0 Z " fill="#F1F2ED" transform="translate(143,249)"/>
<path d="M0 0 C0.6875 2.3125 0.6875 2.3125 1 5 C-0.4375 6.8125 -0.4375 6.8125 -2 8 C-2.99 7.67 -3.98 7.34 -5 7 C-6.1875 3.4375 -6.1875 3.4375 -7 0 C-4.3333581 -1.33332095 -2.83319697 -0.67102033 0 0 Z " fill="#F5F2EB" transform="translate(254,274)"/>
<path d="M0 0 C4.875 0.875 4.875 0.875 6 2 C6.04063832 3.66617115 6.042721 5.33388095 6 7 C4.25 7.75 4.25 7.75 2 8 C-0.25 6.0625 -0.25 6.0625 -2 4 C-1.34 2.68 -0.68 1.36 0 0 Z " fill="#F1F4F6" transform="translate(148,112)"/>
<path d="M0 0 C2.64 0.33 5.28 0.66 8 1 C7.01 1.66 6.02 2.32 5 3 C6.98 3.99 8.96 4.98 11 6 C11 6.99 11 7.98 11 9 C6.69235185 7.43358249 2.93828536 5.31663844 -1 3 C-0.67 2.01 -0.34 1.02 0 0 Z " fill="#8C3630" transform="translate(287,236)"/>
<path d="M0 0 C0.99 0 1.98 0 3 0 C2.25749403 4.08378283 1.17076699 8.01939223 0 12 C-2.31 11.67 -4.62 11.34 -7 11 C-6.34 9.68 -5.68 8.36 -5 7 C-4.01 7.66 -3.02 8.32 -2 9 C-1.34 6.03 -0.68 3.06 0 0 Z " fill="#974646" transform="translate(306,216)"/>
<path d="M0 0 C0.33 0.99 0.66 1.98 1 3 C1.66 3 2.32 3 3 3 C2.34 8.28 1.68 13.56 1 19 C0.01 18.67 -0.98 18.34 -2 18 C-1.34 12.06 -0.68 6.12 0 0 Z " fill="#93413B" transform="translate(49,153)"/>
<path d="M0 0 C1.32 0.33 2.64 0.66 4 1 C4.625 2.875 4.625 2.875 5 5 C3 7 3 7 0.125 7.3125 C-3.27610553 6.97238945 -4.60841421 6.39158579 -7 4 C-7 3.34 -7 2.68 -7 2 C-6.443125 2.144375 -5.88625 2.28875 -5.3125 2.4375 C-2.88615805 3.02769128 -0.45093655 3.523429 2 4 C1.34 2.68 0.68 1.36 0 0 Z " fill="#8B3330" transform="translate(198,284)"/>
<path d="M0 0 C1.9375 1.25 1.9375 1.25 3 3 C3.1875 5.6875 3.1875 5.6875 3 8 C2.34 7.175 1.68 6.35 1 5.5 C-3.02366618 2.14694485 -4.90700467 2.56839023 -10 3 C-9.67 2.01 -9.34 1.02 -9 0 C-5.85000502 -1.57499749 -3.36459118 -0.70833498 0 0 Z " fill="#994D42" transform="translate(225,87)"/>
<path d="M0 0 C-0.33 0.99 -0.66 1.98 -1 3 C-1.9590625 3.1546875 -1.9590625 3.1546875 -2.9375 3.3125 C-3.618125 3.539375 -4.29875 3.76625 -5 4 C-6.3045656 6.99615946 -6.3045656 6.99615946 -7 10 C-7.99 9.67 -8.98 9.34 -10 9 C-9.40425532 3.63829787 -9.40425532 3.63829787 -7.8125 1.125 C-5.19985125 -0.49664405 -3.00479298 -0.20031953 0 0 Z " fill="#933B33" transform="translate(273,106)"/>
<path d="M0 0 C7.57142857 2.85714286 7.57142857 2.85714286 10 7 C7 7 4 7 1 7 C0.67 4.69 0.34 2.38 0 0 Z " fill="#A46B67" transform="translate(182,94)"/>
<path d="M0 0 C2.475 0.495 2.475 0.495 5 1 C5.33 3.31 5.66 5.62 6 8 C4.35 8 2.7 8 1 8 C0.67 5.36 0.34 2.72 0 0 Z " fill="#A56A69" transform="translate(217,279)"/>
<path d="M0 0 C0.66 0 1.32 0 2 0 C1.52544634 2.21458376 1.04759227 3.92067954 -0.125 5.875 C-1.34009711 8.82595012 -0.69349619 10.94861675 0 14 C-1.32 13.34 -2.64 12.68 -4 12 C-4.50130606 6.73628638 -3.31168629 4.0909066 0 0 Z " fill="#913733" transform="translate(165,265)"/>
<path d="M0 0 C1.46555316 0.73579212 2.92224487 1.48925126 4.375 2.25 C5.18710937 2.66765625 5.99921875 3.0853125 6.8359375 3.515625 C9.20801205 5.14267975 9.97094804 6.35386639 11 9 C7.78147169 8.36934243 5.49198931 7.21979305 2.75 5.4375 C2.04359375 4.98246094 1.3371875 4.52742187 0.609375 4.05859375 C-0.18726563 3.53458984 -0.18726563 3.53458984 -1 3 C-0.67 2.01 -0.34 1.02 0 0 Z " fill="#95433B" transform="translate(283,241)"/>
<path d="M0 0 C9.06187845 -0.46077348 9.06187845 -0.46077348 13 3 C13.8125 5.6875 13.8125 5.6875 14 8 C13.54625 7.38125 13.0925 6.7625 12.625 6.125 C8.81464877 3.04042995 4.76609884 2.69126624 0 2 C0 1.34 0 0.68 0 0 Z " fill="#863D4B" transform="translate(113,167)"/>
<path d="M0 0 C1.32 0.66 2.64 1.32 4 2 C4 2.66 4 3.32 4 4 C2.8553125 4.1546875 2.8553125 4.1546875 1.6875 4.3125 C-1.242619 5.06206532 -1.97790188 5.88598833 -4 8 C-4.99 8 -5.98 8 -7 8 C-7.33 8.66 -7.66 9.32 -8 10 C-7.44449305 6.40094092 -6.25112752 5.00090201 -3.4375 2.75 C-2.79683594 2.22921875 -2.15617188 1.7084375 -1.49609375 1.171875 C-1.00238281 0.78515625 -0.50867188 0.3984375 0 0 Z " fill="#973F31" transform="translate(143,246)"/>
<path d="M0 0 C0.99 0 1.98 0 3 0 C3.33 3.96 3.66 7.92 4 12 C3.01 12 2.02 12 1 12 C0.67 8.04 0.34 4.08 0 0 Z " fill="#A95944" transform="translate(297,168)"/>
<path d="M0 0 C4.23429756 1.31061591 8.07407404 2.94356259 12 5 C12 5.66 12 6.32 12 7 C7.14036821 6.39254603 3.2594482 4.27241033 -1 2 C-0.67 1.34 -0.34 0.68 0 0 Z " fill="#8E3B36" transform="translate(121,144)"/>
<path d="M0 0 C0.99 0.33 1.98 0.66 3 1 C3.66 4.3 4.32 7.6 5 11 C4.01 11.33 3.02 11.66 2 12 C0.70756464 7.8803623 -0.26252625 4.33168317 0 0 Z " fill="#974842" transform="translate(368,140)"/>
<path d="M0 0 C0.99 0 1.98 0 3 0 C2.69106068 1.6256807 2.3777305 3.25052748 2.0625 4.875 C1.88847656 5.77992187 1.71445313 6.68484375 1.53515625 7.6171875 C1 10 1 10 0 12 C-0.99 12 -1.98 12 -3 12 C-3 10.68 -3 9.36 -3 8 C-2.34 8 -1.68 8 -1 8 C-0.67 5.36 -0.34 2.72 0 0 Z " fill="#90342E" transform="translate(241,91)"/>
<path d="M0 0 C0 0.66 0 1.32 0 2 C-1.62249941 2.83819158 -3.24808497 3.6704116 -4.875 4.5 C-6.23238281 5.19609375 -6.23238281 5.19609375 -7.6171875 5.90625 C-10 7 -10 7 -12 7 C-12 6.01 -12 5.02 -12 4 C-10.56570999 3.32645501 -9.12742943 2.66140299 -7.6875 2 C-6.88699219 1.62875 -6.08648437 1.2575 -5.26171875 0.875 C-3 0 -3 0 0 0 Z " fill="#903C34" transform="translate(303,143)"/>
<path d="M0 0 C5.75 0.75 5.75 0.75 8 3 C7.34 4.98 6.68 6.96 6 9 C5.34 9 4.68 9 4 9 C2.875 4.25 2.875 4.25 4 2 C2.68 1.67 1.36 1.34 0 1 C0 0.67 0 0.34 0 0 Z " fill="#954642" transform="translate(180,280)"/>
<path d="M0 0 C1.670625 0.061875 1.670625 0.061875 3.375 0.125 C3.375 1.115 3.375 2.105 3.375 3.125 C2.653125 3.021875 1.93125 2.91875 1.1875 2.8125 C-2.74541589 3.24949065 -4.08821923 5.22582197 -6.625 8.125 C-5.59036145 0.19277108 -5.59036145 0.19277108 0 0 Z " fill="#9A4738" transform="translate(269.625,258.875)"/>
<path d="M0 0 C2.49361571 1.20381448 4.68143083 2.45428722 7 4 C7.1875 6.625 7.1875 6.625 7 9 C5.68 9.33 4.36 9.66 3 10 C3.33 8.68 3.66 7.36 4 6 C2.35 5.01 0.7 4.02 -1 3 C-0.67 2.01 -0.34 1.02 0 0 Z " fill="#893130" transform="translate(154,257)"/>
<path d="M0 0 C0.66 0 1.32 0 2 0 C2.061875 0.94875 2.12375 1.8975 2.1875 2.875 C2.455625 3.90625 2.72375 4.9375 3 6 C5.46255685 7.45291273 5.46255685 7.45291273 8 8 C8 8.66 8 9.32 8 10 C5.29686424 10.21917317 3.56041618 10.32851983 1.1875 8.9375 C-0.60842137 6.00731249 -0.18977574 3.3527047 0 0 Z " fill="#90352A" transform="translate(175,277)"/>
<path d="M0 0 C2.25 -0.25 2.25 -0.25 5 0 C7.3125 1.875 7.3125 1.875 9 4 C9 4.66 9 5.32 9 6 C8.34 6 7.68 6 7 6 C6.67 6.99 6.34 7.98 6 9 C5.731875 8.195625 5.46375 7.39125 5.1875 6.5625 C4.795625 5.716875 4.40375 4.87125 4 4 C3.01 3.67 2.02 3.34 1 3 C0.67 2.01 0.34 1.02 0 0 Z " fill="#9B4B3F" transform="translate(148,109)"/>
<path d="M0 0 C0 0.66 0 1.32 0 2 C-1.65 2.33 -3.3 2.66 -5 3 C-5 4.32 -5 5.64 -5 7 C-5.66 7 -6.32 7 -7 7 C-7.66 5.35 -8.32 3.7 -9 2 C-5.86501708 0.14223235 -3.62528568 -0.20140476 0 0 Z " fill="#8F3931" transform="translate(252,271)"/>
<path d="M0 0 C0.99 0 1.98 0 3 0 C3.33 3.96 3.66 7.92 4 12 C3.34 12 2.68 12 2 12 C0.8422494 8.52674819 0.93133348 5.63932552 1 2 C0.34 1.67 -0.32 1.34 -1 1 C-0.67 0.67 -0.34 0.34 0 0 Z " fill="#8B3033" transform="translate(308,166)"/>
<path d="M0 0 C0.33 0.99 0.66 1.98 1 3 C1.99 3.33 2.98 3.66 4 4 C3.34 4 2.68 4 2 4 C1.67 5.98 1.34 7.96 1 10 C0.01 10 -0.98 10 -2 10 C-1.54177532 6.53058454 -1.10868317 3.32604951 0 0 Z " fill="#DEE0E3" transform="translate(298,213)"/>
<path d="M0 0 C-0.804375 0.556875 -1.60875 1.11375 -2.4375 1.6875 C-5.24228216 4.21864487 -5.69381595 5.32579134 -6 9 C-6.66 9 -7.32 9 -8 9 C-8.1875 5.625 -8.1875 5.625 -8 2 C-4.77208445 -0.1519437 -3.71599191 -0.20086443 0 0 Z " fill="#8E322A" transform="translate(126,215)"/>
<path d="M0 0 C0.66 0 1.32 0 2 0 C2.268125 0.804375 2.53625 1.60875 2.8125 2.4375 C3.204375 3.283125 3.59625 4.12875 4 5 C4.99 5.33 5.98 5.66 7 6 C7 6.99 7 7.98 7 9 C3.76939581 8.44299928 1.9341777 7.70784878 0 5 C-0.1875 2.3125 -0.1875 2.3125 0 0 Z " fill="#9A4638" transform="translate(294,155)"/>
<path d="M0 0 C0 0.99 0 1.98 0 3 C-0.78375 3.268125 -1.5675 3.53625 -2.375 3.8125 C-5.28114923 4.84814432 -5.28114923 4.84814432 -7 8 C-7.33 6.35 -7.66 4.7 -8 3 C-4.93882432 0.37613513 -4.26826873 0 0 0 Z " fill="#944C4C" transform="translate(303,150)"/>
<path d="M0 0 C5 2 5 2 10 4 C10 4.99 10 5.98 10 7 C6.12697862 5.85569823 2.99736561 4.76679902 0 2 C0 1.34 0 0.68 0 0 Z " fill="#9B504B" transform="translate(161,342)"/>
<path d="M0 0 C2.625 0.375 2.625 0.375 5 1 C5.33 1.99 5.66 2.98 6 4 C3.36 4.33 0.72 4.66 -2 5 C-2 2 -2 2 0 0 Z " fill="#995D5E" transform="translate(294,235)"/>
<path d="M0 0 C2.8002232 1.4001116 3.56776098 3.26572551 5 6 C5 6.99 5 7.98 5 9 C2.69 7.35 0.38 5.7 -2 4 C-1.34 2.68 -0.68 1.36 0 0 Z " fill="#8A3437" transform="translate(280,119)"/>
<path d="M0 0 C0.66 0.33 1.32 0.66 2 1 C2.125 3.375 2.125 3.375 2 6 C0 8 0 8 -3.125 8.125 C-4.548125 8.063125 -4.548125 8.063125 -6 8 C-3 6 -3 6 -1 6 C-0.67 4.02 -0.34 2.04 0 0 Z " fill="#8D312B" transform="translate(225,91)"/>
<path d="M0 0 C2.88575819 0.39803561 3.82189513 0.79009069 5.75 3.0625 C6.1625 3.701875 6.575 4.34125 7 5 C5.68 4.67 4.36 4.34 3 4 C2.34 5.32 1.68 6.64 1 8 C0.67 5.36 0.34 2.72 0 0 Z " fill="#892B31" transform="translate(180,91)"/>
<path d="M0 0 C0.33 0 0.66 0 1 0 C0.67 3.3 0.34 6.6 0 10 C-0.66 10 -1.32 10 -2 10 C-2.1953125 3.9453125 -2.1953125 3.9453125 -2 2 C-1.34 1.34 -0.68 0.68 0 0 Z " fill="#8D3731" transform="translate(52,146)"/>
<path d="M0 0 C2.0625 0.4375 2.0625 0.4375 4 1 C2.1875 3.5 2.1875 3.5 0 6 C-0.99 6 -1.98 6 -3 6 C-1.125 1.125 -1.125 1.125 0 0 Z " fill="#E6E6E8" transform="translate(142,125)"/>
<path d="M0 0 C0.66 0.33 1.32 0.66 2 1 C1.01 2.485 1.01 2.485 0 4 C1.65 4.33 3.3 4.66 5 5 C5 5.99 5 6.98 5 8 C3.02 7.34 1.04 6.68 -1 6 C-1.042721 4.33388095 -1.04063832 2.66617115 -1 1 C-0.67 0.67 -0.34 0.34 0 0 Z " fill="#964537" transform="translate(194,278)"/>
<path d="M0 0 C1.65 0.99 3.3 1.98 5 3 C4.67 3.99 4.34 4.98 4 6 C2.35 5.67 0.7 5.34 -1 5 C-0.67 3.35 -0.34 1.7 0 0 Z " fill="#F5F4F2" transform="translate(179,279)"/>
<path d="M0 0 C1.875 0.25 1.875 0.25 4 1 C5.25 3.0625 5.25 3.0625 6 5 C4.35 4.67 2.7 4.34 1 4 C0.67 2.68 0.34 1.36 0 0 Z " fill="#EFEAE2" transform="translate(153,260)"/>
<path d="M0 0 C0.33 0.99 0.66 1.98 1 3 C1.66 3 2.32 3 3 3 C2.67 5.31 2.34 7.62 2 10 C1.01 9.67 0.02 9.34 -1 9 C-0.67 6.03 -0.34 3.06 0 0 Z " fill="#A25D58" transform="translate(49,153)"/>
<path d="M0 0 C0.66 0 1.32 0 2 0 C2.33 2.64 2.66 5.28 3 8 C2.01 8 1.02 8 0 8 C0 5.36 0 2.72 0 0 Z " fill="#983D34" transform="translate(198,92)"/>
<path d="M0 0 C0.33 0 0.66 0 1 0 C0.67 2.97 0.34 5.94 0 9 C-0.99 9 -1.98 9 -3 9 C-2.44271087 5.65626525 -1.64826111 2.96687001 0 0 Z " fill="#9A3F31" transform="translate(232,92)"/>
<path d="M0 0 C0 0.66 0 1.32 0 2 C-0.94875 2.45375 -1.8975 2.9075 -2.875 3.375 C-6.00313679 4.80238254 -6.00313679 4.80238254 -8 7 C-8 6.34 -8 5.68 -8 5 C-8.66 4.67 -9.32 4.34 -10 4 C-8.71086513 3.32845067 -7.41859796 2.66291141 -6.125 2 C-5.40570313 1.62875 -4.68640625 1.2575 -3.9453125 0.875 C-2 0 -2 0 0 0 Z " fill="#DCC3C1" transform="translate(274,344)"/>
<path d="M0 0 C4 4.625 4 4.625 4 8 C3.01 7.67 2.02 7.34 1 7 C1 6.34 1 5.68 1 5 C0.01 4.67 -0.98 4.34 -2 4 C-1.34 2.68 -0.68 1.36 0 0 Z " fill="#914C55" transform="translate(223,284)"/>
<path d="M0 0 C2.1723491 3.25852365 4.07119658 6.59244728 6 10 C5.01 10.495 5.01 10.495 4 11 C3.13050683 9.92892883 2.27985795 8.84254056 1.4375 7.75 C0.96183594 7.14671875 0.48617187 6.5434375 -0.00390625 5.921875 C-1 4 -1 4 -0.65234375 1.765625 C-0.43707031 1.18296875 -0.22179687 0.6003125 0 0 Z " fill="#EDDFDE" transform="translate(79,280)"/>
<path d="M0 0 C2.875 0.1875 2.875 0.1875 6 1 C7.375 3.5625 7.375 3.5625 8 6 C7.01 6 6.02 6 5 6 C4.731875 5.195625 4.46375 4.39125 4.1875 3.5625 C3.795625 2.716875 3.40375 1.87125 3 1 C2.01 0.67 1.02 0.34 0 0 Z " fill="#934C50" transform="translate(249,270)"/>
<path d="M0 0 C0.99 0 1.98 0 3 0 C2.67 2.31 2.34 4.62 2 7 C1.01 6.67 0.02 6.34 -1 6 C-0.67 4.02 -0.34 2.04 0 0 Z " fill="#DEDEE5" transform="translate(302,218)"/>
<path d="M0 0 C0.99 0.33 1.98 0.66 3 1 C2.1875 4.4375 2.1875 4.4375 1 8 C0.01 8.33 -0.98 8.66 -2 9 C-1.34 6.03 -0.68 3.06 0 0 Z " fill="#8F3128" transform="translate(300,217)"/>
<path d="M0 0 C2.875 0.25 2.875 0.25 6 1 C7.375 3.0625 7.375 3.0625 8 5 C5.03824877 4.38722388 3.61941217 3.74627478 1 2 C0.67 1.34 0.34 0.68 0 0 Z " fill="#924C52" transform="translate(123,214)"/>
<path d="M0 0 C0.99 0.33 1.98 0.66 3 1 C4.1875 3.5625 4.1875 3.5625 5 6 C4.01 6.33 3.02 6.66 2 7 C1.01 5.02 0.02 3.04 -1 1 C-0.67 0.67 -0.34 0.34 0 0 Z " fill="#E6EAE9" transform="translate(292,132)"/>
<path d="M0 0 C2.97 0.495 2.97 0.495 6 1 C6 1.99 6 2.98 6 4 C4.35 3.67 2.7 3.34 1 3 C0.67 2.01 0.34 1.02 0 0 Z " fill="#EEE8E1" transform="translate(194,285)"/>
<path d="M0 0 C0.66 0 1.32 0 2 0 C2.125 2.375 2.125 2.375 2 5 C1.34 5.66 0.68 6.32 0 7 C-0.99 7 -1.98 7 -3 7 C-3 6.34 -3 5.68 -3 5 C-2.34 5 -1.68 5 -1 5 C-0.67 3.35 -0.34 1.7 0 0 Z " fill="#8B312C" transform="translate(255,276)"/>
<path d="M0 0 C0.66 0 1.32 0 2 0 C1.67 1.65 1.34 3.3 1 5 C-0.32 5 -1.64 5 -3 5 C-1.125 1.125 -1.125 1.125 0 0 Z " fill="#F2F4EA" transform="translate(280,250)"/>
<path d="M0 0 C0.99 0 1.98 0 3 0 C2.25 4.75 2.25 4.75 0 7 C-0.66 7 -1.32 7 -2 7 C-1.34 4.69 -0.68 2.38 0 0 Z " fill="#EEE1E0" transform="translate(63,118)"/>
<path d="M0 0 C1.32 0.66 2.64 1.32 4 2 C4 2.99 4 3.98 4 5 C3.01 5 2.02 5 1 5 C0.34 3.68 -0.32 2.36 -1 1 C-0.67 0.67 -0.34 0.34 0 0 Z " fill="#E0DAD9" transform="translate(282,119)"/>
<path d="M0 0 C0.99 0.33 1.98 0.66 3 1 C3.33 2.98 3.66 4.96 4 7 C3.34 7 2.68 7 2 7 C1.01 5.02 0.02 3.04 -1 1 C-0.67 0.67 -0.34 0.34 0 0 Z " fill="#95423D" transform="translate(169,95)"/>
<path d="M0 0 C0.66 0.33 1.32 0.66 2 1 C1.3125 2.9375 1.3125 2.9375 0 5 C-2.625 5.75 -2.625 5.75 -5 6 C-3.35 4.02 -1.7 2.04 0 0 Z " fill="#9B4A3E" transform="translate(278,248)"/>
<path d="M0 0 C1.32 0.66 2.64 1.32 4 2 C4 2.66 4 3.32 4 4 C2.824375 4.2165625 2.824375 4.2165625 1.625 4.4375 C-0.96421018 4.87798925 -0.96421018 4.87798925 -3 6 C-1.125 1.125 -1.125 1.125 0 0 Z " fill="#872927" transform="translate(143,246)"/>
<path d="M0 0 C1.98 0.66 3.96 1.32 6 2 C6 2.99 6 3.98 6 5 C4.02 4.34 2.04 3.68 0 3 C0 2.01 0 1.02 0 0 Z " fill="#903E3C" transform="translate(297,230)"/>
<path d="M0 0 C1.98 0.66 3.96 1.32 6 2 C6 2.99 6 3.98 6 5 C3.69 4.67 1.38 4.34 -1 4 C-0.67 2.68 -0.34 1.36 0 0 Z " fill="#8D3E42" transform="translate(300,223)"/>
<path d="M0 0 C2.64 0 5.28 0 8 0 C8 0.99 8 1.98 8 3 C5.36 2.67 2.72 2.34 0 2 C0 1.34 0 0.68 0 0 Z " fill="#9A4E3E" transform="translate(113,167)"/>
<path d="M0 0 C1.32 1.65 2.64 3.3 4 5 C3.67 5.66 3.34 6.32 3 7 C2.34 7 1.68 7 1 7 C0.01 5.02 -0.98 3.04 -2 1 C-1.34 0.67 -0.68 0.34 0 0 Z " fill="#974746" transform="translate(291,134)"/>
<path d="M0 0 C0.66 0 1.32 0 2 0 C1.64950425 3.24208567 1.43778819 4.61527704 -1.0625 6.8125 C-1.701875 7.204375 -2.34125 7.59625 -3 8 C-2.37240135 5.07120629 -1.41377341 2.63904371 0 0 Z " fill="#872A29" transform="translate(155,115)"/>
<path d="M0 0 C3.875 1.875 3.875 1.875 5 3 C5.04063832 4.66617115 5.042721 6.33388095 5 8 C2.5 5.6875 2.5 5.6875 0 3 C0 2.01 0 1.02 0 0 Z " fill="#90515F" transform="translate(223,87)"/>
<path d="M0 0 C0.66 0.33 1.32 0.66 2 1 C1.40072174 4.35595828 0.15377564 6.37801226 -2 9 C-2 5.20442119 -1.49821059 3.37097383 0 0 Z " fill="#EADAD9" transform="translate(77,81)"/>
<path d="M0 0 C0.99 0 1.98 0 3 0 C3.33 1.65 3.66 3.3 4 5 C3.34 5 2.68 5 2 5 C1.67 5.66 1.34 6.32 1 7 C0.67 4.69 0.34 2.38 0 0 Z " fill="#994C47" transform="translate(363,126)"/>
<path d="M0 0 C0.99 0 1.98 0 3 0 C3.33 1.65 3.66 3.3 4 5 C3.01 5 2.02 5 1 5 C0.67 3.35 0.34 1.7 0 0 Z " fill="#984C47" transform="translate(245,101)"/>
<path d="M0 0 C2.475 0.495 2.475 0.495 5 1 C5.33 1.99 5.66 2.98 6 4 C3 4 3 4 0 2 C0 1.34 0 0.68 0 0 Z " fill="#E3E2E5" transform="translate(250,97)"/>
</svg>
