<?xml version="1.0" encoding="UTF-8"?>
<svg version="1.1" xmlns="http://www.w3.org/2000/svg" width="284" height="264">
<path d="M0 0 C93.72 0 187.44 0 284 0 C284 87.12 284 174.24 284 264 C190.28 264 96.56 264 0 264 C0 176.88 0 89.76 0 0 Z " fill="#FDFDFD" transform="translate(0,0)"/>
<path d="M0 0 C0 1.32 0 2.64 0 4 C-0.969375 4.12375 -1.93875 4.2475 -2.9375 4.375 C-17.78030175 6.54880411 -35.11028675 13.16793904 -44.79296875 25.234375 C-45.19128906 25.81703125 -45.58960937 26.3996875 -46 27 C-43.69 29.31 -41.38 31.62 -39 34 C-35.67707696 32.0635783 -32.58245286 29.98350513 -29.5 27.6875 C-20.49739546 21.36026085 -10.68979375 17.44215729 0 15 C0.58730686 18.23018775 0.84267287 19.89135922 0 23 C-4.43527479 28.26903769 -10.12498246 32.44406833 -16 36 C-15.43152344 35.72285156 -14.86304688 35.44570312 -14.27734375 35.16015625 C-9.43946147 32.89063217 -5.32801588 31.45344816 0 31 C0 31.99 0 32.98 0 34 C-1.10794922 34.20302734 -1.10794922 34.20302734 -2.23828125 34.41015625 C-10.14187406 36.08728459 -16.7405765 38.78381375 -23 44 C-23.66 45.32 -24.32 46.64 -25 48 C-22.36 50.64 -19.72 53.28 -17 56 C-15.35 55.34 -13.7 54.68 -12 54 C-11.01 54 -10.02 54 -9 54 C-10.299375 54.928125 -10.299375 54.928125 -11.625 55.875 C-15.93711717 59.41709624 -18.35388969 64.16756451 -21 69 C-20.01 69.33 -19.02 69.66 -18 70 C-17.2265625 72.109375 -17.2265625 72.109375 -16.625 74.75 C-15.0652312 80.47459647 -12.52526918 83.22548652 -7.6875 86.625 C-7.130625 87.07875 -6.57375 87.5325 -6 88 C-6 88.99 -6 89.98 -6 91 C-4.68 89.68 -3.36 88.36 -2 87 C-0.515 87.495 -0.515 87.495 1 88 C-0.56107674 90.38269608 -1.76881083 91.86513965 -4.25 93.3125 C-8.06861027 95.65573812 -10.92691972 98.76750922 -14 102 C-11.24479785 104.95929119 -8.53372712 107.03681826 -5 109 C-5.99 109.495 -5.99 109.495 -7 110 C-9.08031926 108.77072044 -10.98043264 107.36032972 -12.9296875 105.93359375 C-14.97080087 104.73728191 -14.97080087 104.73728191 -17.0859375 105.65234375 C-19.00376782 107.00265285 -20.30884819 108.28352824 -21.75 110.125 C-22.4925 111.07375 -23.235 112.0225 -24 113 C-19.54547683 121.24911697 -12.20520392 123.89123964 -3.59765625 126.81640625 C-2.07875015 127.26058533 -0.54138757 127.64153778 1 128 C1 128.33 1 128.66 1 129 C-6.9899083 129.90794412 -14.43736327 126.37509115 -21 122 C-23.34087842 122.27539746 -25.67402489 122.6186926 -28 123 C-30.67427612 123.08883085 -33.32319521 123.04696149 -36 123 C-26.648471 135.30464341 -12.85102663 139.81687036 2 142 C2 142.66 2 143.32 2 144 C-11.75215225 143.69684634 -25.30127054 138.3860907 -35.30859375 128.78515625 C-35.86675781 128.19605469 -36.42492187 127.60695313 -37 127 C-41.2742558 128.5830577 -43.26531794 131.50568404 -46 135 C-31.38061332 148.91313611 -14.61954068 156.61912499 5.6875 156.5 C6.82727295 156.49427979 7.9670459 156.48855957 9.14135742 156.48266602 C27.4343856 156.09759058 43.09161379 148.82392523 57 137 C56.1697683 132.73936041 54.383886 130.75432581 51 128 C47.50670658 128.30003747 45.50654644 129.98807097 42.875 132.1875 C35.22554325 138.32986179 28.27235117 142.85691288 18.375 143.625 C16.62316406 143.76808594 16.62316406 143.76808594 14.8359375 143.9140625 C13.90007812 143.94242188 12.96421875 143.97078125 12 144 C11.67 143.67 11.34 143.34 11 143 C10.34 146.63 9.68 150.26 9 154 C7.68 154 6.36 154 5 154 C4.3122966 140.32274995 3.84612299 126.69505348 4 113 C3.34 113 2.68 113 2 113 C2 115.64 2 118.28 2 121 C-0.33028092 120.06788763 -1.75891532 119.30996602 -3.3125 117.3125 C-4.38485949 113.70547261 -4.13587125 111.59692562 -3 108 C1.36105121 103.87682431 7.35187445 101.91224381 12.8984375 99.89453125 C15.16457208 99.08454999 15.16457208 99.08454999 17 97 C16.90888062 94.46048456 16.90888062 94.46048456 16 92 C14.515 91.01 14.515 91.01 13 90 C12.59156077 87.28796348 12.86663133 84.7562858 13 82 C13.66 81.67 14.32 81.34 15 81 C13.515 80.01 13.515 80.01 12 79 C11.67 74.38 11.34 69.76 11 65 C10.67 76.55 10.34 88.1 10 100 C8.02 100.33 6.04 100.66 4 101 C3.34 96.05 2.68 91.1 2 86 C0.02 85.67 -1.96 85.34 -4 85 C-9.26689623 82.548169 -12.55399189 80.47905816 -15 75 C-15.73974073 69.44813143 -15.77360435 64.70192958 -13.4375 59.5625 C-6.21376334 51.96831531 1.58813398 49.73297249 11.625 47.5 C20.38068131 45.8186525 20.38068131 45.8186525 26.9375 40.3125 C27.288125 39.549375 27.63875 38.78625 28 38 C27.22914063 37.79503906 26.45828125 37.59007812 25.6640625 37.37890625 C24.66117187 37.10949219 23.65828125 36.84007812 22.625 36.5625 C21.62726563 36.29566406 20.62953125 36.02882812 19.6015625 35.75390625 C17 35 17 35 15 34 C15 33.34 15 32.68 15 32 C20.41390868 32.46671627 24.20517932 33.24297811 29 36 C28.03956744 30.28672096 28.03956744 30.28672096 24.8125 25.6875 C21.61086002 23.76651601 18.47472786 22.36263838 15 21 C15 18.69 15 16.38 15 14 C22.86792822 13.2847338 27.72462725 15.57240906 33.83203125 20.46875 C38.8124396 25.412805 39.35555664 31.23334476 40 38 C41.54799337 33.35601989 41.49594333 28.67482292 40 24 C43.42691357 25.23749657 46.35302769 26.4510637 49 29 C49 30.32 49 31.64 49 33 C52.93673644 31.68775452 55.22719294 30.08089673 58 27 C53.40193615 16.65435633 41.34619295 11.98122685 31.44921875 7.96484375 C26.09536657 6.07245195 20.58239387 4.99061269 15 4 C15 2.68 15 1.36 15 0 C35.64665257 1.6193453 52.98835103 13.05000766 66.8125 27.875 C74.87105948 37.73323778 79.60786824 47.8645829 83 60 C83.36609375 61.26328125 83.7321875 62.5265625 84.109375 63.828125 C88.96446272 83.75991686 83.12036902 106.47676855 72.75 123.625 C69.01190192 129.24832936 64.72887775 134.1908357 60 139 C59.31292969 139.69996094 58.62585938 140.39992187 57.91796875 141.12109375 C40.7911589 157.4217495 20.89059479 160.51245219 -1.83984375 160.2734375 C-21.88850329 159.75148503 -38.47187361 149.31019057 -52.13671875 135.09765625 C-65.94874808 119.54826474 -72.15839085 100.9552 -72.375 80.4375 C-72.38917969 79.39658203 -72.40335938 78.35566406 -72.41796875 77.28320312 C-72.27927262 55.27212651 -61.60177489 36.17749049 -46.69140625 20.5859375 C-34.78213219 9.20466081 -16.82301977 -0.38234136 0 0 Z " fill="#814F49" transform="translate(132,43)"/>
<path d="M0 0 C0 1.32 0 2.64 0 4 C-0.969375 4.12375 -1.93875 4.2475 -2.9375 4.375 C-17.78030175 6.54880411 -35.11028675 13.16793904 -44.79296875 25.234375 C-45.19128906 25.81703125 -45.58960937 26.3996875 -46 27 C-43.69 29.31 -41.38 31.62 -39 34 C-35.67707696 32.0635783 -32.58245286 29.98350513 -29.5 27.6875 C-20.49739546 21.36026085 -10.68979375 17.44215729 0 15 C0.58730686 18.23018775 0.84267287 19.89135922 0 23 C-4.43527479 28.26903769 -10.12498246 32.44406833 -16 36 C-15.43152344 35.72285156 -14.86304688 35.44570312 -14.27734375 35.16015625 C-9.43946147 32.89063217 -5.32801588 31.45344816 0 31 C0 31.99 0 32.98 0 34 C-1.10794922 34.20302734 -1.10794922 34.20302734 -2.23828125 34.41015625 C-10.14187406 36.08728459 -16.7405765 38.78381375 -23 44 C-23.66 45.32 -24.32 46.64 -25 48 C-22.36 50.64 -19.72 53.28 -17 56 C-15.35 55.34 -13.7 54.68 -12 54 C-11.01 54 -10.02 54 -9 54 C-10.299375 54.928125 -10.299375 54.928125 -11.625 55.875 C-15.93711717 59.41709624 -18.35388969 64.16756451 -21 69 C-20.01 69.33 -19.02 69.66 -18 70 C-17.2265625 72.109375 -17.2265625 72.109375 -16.625 74.75 C-15.0652312 80.47459647 -12.52526918 83.22548652 -7.6875 86.625 C-7.130625 87.07875 -6.57375 87.5325 -6 88 C-6 88.99 -6 89.98 -6 91 C-4.68 89.68 -3.36 88.36 -2 87 C-0.515 87.495 -0.515 87.495 1 88 C-0.56107674 90.38269608 -1.76881083 91.86513965 -4.25 93.3125 C-8.06861027 95.65573812 -10.92691972 98.76750922 -14 102 C-11.24479785 104.95929119 -8.53372712 107.03681826 -5 109 C-5.99 109.495 -5.99 109.495 -7 110 C-9.08031926 108.77072044 -10.98043264 107.36032972 -12.9296875 105.93359375 C-14.97080087 104.73728191 -14.97080087 104.73728191 -17.0859375 105.65234375 C-19.00376782 107.00265285 -20.30884819 108.28352824 -21.75 110.125 C-22.4925 111.07375 -23.235 112.0225 -24 113 C-19.54547683 121.24911697 -12.20520392 123.89123964 -3.59765625 126.81640625 C-2.07875015 127.26058533 -0.54138757 127.64153778 1 128 C1 128.33 1 128.66 1 129 C-6.9899083 129.90794412 -14.43736327 126.37509115 -21 122 C-23.34087842 122.27539746 -25.67402489 122.6186926 -28 123 C-30.67427612 123.08883085 -33.32319521 123.04696149 -36 123 C-26.648471 135.30464341 -12.85102663 139.81687036 2 142 C2 142.66 2 143.32 2 144 C-11.75215225 143.69684634 -25.30127054 138.3860907 -35.30859375 128.78515625 C-35.86675781 128.19605469 -36.42492187 127.60695313 -37 127 C-41.2742558 128.5830577 -43.26531794 131.50568404 -46 135 C-31.38061332 148.91313611 -14.61954068 156.61912499 5.6875 156.5 C6.82727295 156.49427979 7.9670459 156.48855957 9.14135742 156.48266602 C26.62078287 156.11471723 41.90483805 149.58682502 55.29296875 138.28515625 C57 137 57 137 59 137 C59 136.01 59 135.02 59 134 C59.99 133.34 60.98 132.68 62 132 C77.21594047 111.66186175 82.80635826 89.5615259 79.2746582 64.59399414 C77.19619298 52.45581743 71.78728519 41.71507554 64.3828125 31.953125 C63 30 63 30 62 27 C59.36 29.31 56.72 31.62 54 34 C56.33031005 38.32771866 58.3946635 41.61999703 62 45 C66 49.55555556 66 49.55555556 66 53 C64.75 54.75 64.75 54.75 63 56 C60.9375 55.875 60.9375 55.875 59 55 C58.34 54.01 57.68 53.02 57 52 C55.00901794 51.31821307 55.00901794 51.31821307 52.75 50.875 C47.85083577 49.33413383 45.68163529 47.04816813 43.08203125 42.6796875 C41.48194593 38.71702133 41.22196857 34.9431409 41.10546875 30.69921875 C41.01140241 28.29181723 40.68253545 26.29877941 40 24 C43.42691357 25.23749657 46.35302769 26.4510637 49 29 C49 30.32 49 31.64 49 33 C52.93673644 31.68775452 55.22719294 30.08089673 58 27 C53.40193615 16.65435633 41.34619295 11.98122685 31.44921875 7.96484375 C26.09536657 6.07245195 20.58239387 4.99061269 15 4 C15 2.68 15 1.36 15 0 C35.64665257 1.6193453 52.98835103 13.05000766 66.8125 27.875 C74.87105948 37.73323778 79.60786824 47.8645829 83 60 C83.36609375 61.26328125 83.7321875 62.5265625 84.109375 63.828125 C88.96446272 83.75991686 83.12036902 106.47676855 72.75 123.625 C69.01190192 129.24832936 64.72887775 134.1908357 60 139 C59.31292969 139.69996094 58.62585938 140.39992187 57.91796875 141.12109375 C40.7911589 157.4217495 20.89059479 160.51245219 -1.83984375 160.2734375 C-21.88850329 159.75148503 -38.47187361 149.31019057 -52.13671875 135.09765625 C-65.94874808 119.54826474 -72.15839085 100.9552 -72.375 80.4375 C-72.38917969 79.39658203 -72.40335938 78.35566406 -72.41796875 77.28320312 C-72.27927262 55.27212651 -61.60177489 36.17749049 -46.69140625 20.5859375 C-34.78213219 9.20466081 -16.82301977 -0.38234136 0 0 Z " fill="#814F48" transform="translate(132,43)"/>
<path d="M0 0 C0.33 0 0.66 0 1 0 C1.88032265 9.1215956 2.25756725 18.21642931 2.5 27.375 C2.7637412 37.27994711 3.20940534 47.12332348 4 57 C6.97 56.505 6.97 56.505 10 56 C9.99555878 55.4406778 9.99111755 54.88135559 9.98654175 54.30508423 C9.94238851 48.49801176 9.91216706 42.69098675 9.89013672 36.88378906 C9.88006211 34.71482406 9.86640202 32.54587269 9.84912109 30.37695312 C9.82493677 27.26428874 9.81353168 24.15180349 9.8046875 21.0390625 C9.79436493 20.065065 9.78404236 19.0910675 9.77340698 18.08755493 C9.77318039 16.73638077 9.77318039 16.73638077 9.77294922 15.35791016 C9.768508 14.56293121 9.76406677 13.76795227 9.75949097 12.94888306 C10 11 10 11 12 9 C12 9.66 12 10.32 12 11 C12.66 11 13.32 11 14 11 C14 12.32 14 13.64 14 15 C14.53625 15.00257812 15.0725 15.00515625 15.625 15.0078125 C31.00692518 15.76678907 46.42012053 23.59521041 56.85546875 34.71484375 C57.23316406 35.13894531 57.61085938 35.56304687 58 36 C56.42017565 39.32741766 54.87780795 41.63004051 52 44 C50.68 44 49.36 44 48 44 C47.814375 43.2575 47.62875 42.515 47.4375 41.75 C45.39087334 37.83471421 42.9124945 36.95624725 39 35 C39.495 35.7734375 39.495 35.7734375 40 36.5625 C41.64926094 40.58257354 41.64926094 44.41742646 40 48.4375 C39.67 48.953125 39.34 49.46875 39 50 C38.67 50 38.34 50 38 50 C37.92523438 49.14277344 37.85046875 48.28554687 37.7734375 47.40234375 C36.75785982 38.49808445 36.75785982 38.49808445 31.765625 31.36328125 C26.17779286 27.04878254 20.98529686 25.49894978 14 25 C14 27.31 14 29.62 14 32 C14.59167969 32.14695313 15.18335938 32.29390625 15.79296875 32.4453125 C21.69507489 34.12062485 24.77486625 35.6941348 28 41 C28.3125 44.375 28.3125 44.375 28 47 C27.32453125 46.79503906 26.6490625 46.59007812 25.953125 46.37890625 C25.06109375 46.10949219 24.1690625 45.84007812 23.25 45.5625 C22.36828125 45.29566406 21.4865625 45.02882812 20.578125 44.75390625 C18.39434165 44.11531506 16.21164502 43.53224167 14 43 C14 43.66 14 44.32 14 45 C14.90492188 45.18175781 14.90492188 45.18175781 15.828125 45.3671875 C17.02695313 45.61855469 17.02695313 45.61855469 18.25 45.875 C19.43335938 46.11863281 19.43335938 46.11863281 20.640625 46.3671875 C22.96831144 46.99150075 24.89031952 47.84838542 27 49 C26.10671369 51.82637678 25.49557908 53.60562339 23.14453125 55.4765625 C16.72632982 58.63728481 10.52148921 59.99473632 3.5 61.26171875 C-4.71657684 62.99490293 -10.32314564 66.98471846 -15 74 C-15.6771211 79.45633631 -15.67687318 84.42062924 -13.5 89.5 C-9.36886621 93.63113379 -4.66072443 95.7238099 1 97 C1.33 96.34 1.66 95.68 2 95 C2.495 103.415 2.495 103.415 3 112 C5.97 111.505 5.97 111.505 9 111 C9 99.45 9 87.9 9 76 C9.66 75.67 10.32 75.34 11 75 C11 79.95 11 84.9 11 90 C12.65 90.66 14.3 91.32 16 92 C14.02 92.495 14.02 92.495 12 93 C12.11214648 98.62006722 12.11214648 98.62006722 15.0625 103 C15.701875 103.33 16.34125 103.66 17 104 C17 106.1875 17 106.1875 16 109 C11.4405666 112.97611163 5.73757719 115.03607981 0.1015625 117.0078125 C-2.3285531 117.93427141 -2.3285531 117.93427141 -4 121 C-4.16752933 123.76981829 -3.79164233 126.34273902 -3 129 C-1.10211697 131.03336251 -1.10211697 131.03336251 1 132 C1 129.36 1 126.72 1 124 C1.66 124 2.32 124 3 124 C3.66 137.53 4.32 151.06 5 165 C5.66 165 6.32 165 7 165 C7.66 161.04 8.32 157.08 9 153 C10.65 153.33 12.3 153.66 14 154 C22.82365287 154.28344136 28.15600684 152.37486374 35 147 C36.80752562 145.74281768 38.6200697 144.49282072 40.4375 143.25 C42.83350471 141.58517044 44.93616859 140.06383141 47 138 C50.23947168 138.3364828 52.02231428 139.56777702 54.3125 141.8125 C54.84488281 142.31394531 55.37726563 142.81539062 55.92578125 143.33203125 C57 145 57 145 56.98828125 146.9296875 C52.75170324 155.80473235 37.71598381 161.81523458 29 165 C21.08626208 167.70049657 13.71505357 168.54848868 5.375 168.5 C4.23998047 168.49500488 3.10496094 168.49000977 1.93554688 168.48486328 C-16.6418288 168.10288378 -31.2350667 161.47683862 -45 149 C-45.99 147.68 -46.98 146.36 -48 145 C-45.36 142.36 -42.72 139.72 -40 137 C-36.51566621 138.7421669 -33.88270263 140.52693738 -30.8125 142.875 C-21.25519436 149.87525168 -10.7360298 153.41405003 1 155 C1 154.34 1 153.68 1 153 C0.35675781 152.98582031 -0.28648437 152.97164062 -0.94921875 152.95703125 C-14.76236468 152.22794937 -27.67627978 146.33854691 -37 136 C-37 135.34 -37 134.68 -37 134 C-27.22047163 131.61906855 -21.14278052 132.05838273 -12.234375 136.94140625 C-9.96022363 138.21407713 -9.96022363 138.21407713 -7 138 C-7.95261719 137.57589844 -8.90523437 137.15179688 -9.88671875 136.71484375 C-22.29322128 130.98585221 -22.29322128 130.98585221 -26 124 C-25.0919838 122.86800647 -24.17316174 121.74467637 -23.25 120.625 C-22.73953125 119.99851562 -22.2290625 119.37203125 -21.703125 118.7265625 C-19.83764954 116.83541536 -18.55020772 115.77279022 -16 115 C-13.00572582 116.25672092 -10.67882663 118.12482136 -8 120 C-10.64 118.02 -13.28 116.04 -16 114 C-6.9516129 103.30645161 -6.9516129 103.30645161 -1 100 C-1.99 99.505 -1.99 99.505 -3 99 C-4.98 100.65 -6.96 102.3 -9 104 C-8.67 102.35 -8.34 100.7 -8 99 C-9.60875 98.01 -9.60875 98.01 -11.25 97 C-15.35421049 94.06961036 -17.41719628 90.75800391 -19 86 C-19.25 83 -19.25 83 -19 81 C-20.98 81.495 -20.98 81.495 -23 82 C-21.24623995 75.46325801 -17.81812669 70.64956249 -13 66 C-15.475 66.99 -15.475 66.99 -18 68 C-22.455 63.545 -22.455 63.545 -27 59 C-23.66233184 52.32466368 -17.15221946 48.51651189 -10.1875 46.0625 C-7.06354434 45.15411573 -4.27337593 44.68322168 -1 45 C-1 44.01 -1 43.02 -1 42 C-1.79664063 42.26554687 -2.59328125 42.53109375 -3.4140625 42.8046875 C-11.20703125 45.40234375 -11.20703125 45.40234375 -19 48 C-17.23516729 46.03907477 -15.53927379 44.69999224 -13.3125 43.25 C-10.69219052 41.51190527 -8.15715015 39.69739438 -5.6875 37.75 C-4.67236328 36.96882813 -4.67236328 36.96882813 -3.63671875 36.171875 C-1.18774963 32.92216896 -1.28814977 30.02574456 -1 26 C-14.90875854 31.1717936 -27.48600307 36.39078775 -39 46 C-40.12894876 45.06725891 -41.25300876 44.12859878 -42.375 43.1875 C-43.00148438 42.66542969 -43.62796875 42.14335938 -44.2734375 41.60546875 C-46 40 -46 40 -48 37 C-35.27615551 24.33479074 -19.32803789 15 -1 15 C-0.67 10.05 -0.34 5.1 0 0 Z " fill="#F9F7F6" transform="translate(133,32)"/>
<path d="M0 0 C0.66 0.33 1.32 0.66 2 1 C1.566875 1.92232422 1.566875 1.92232422 1.125 2.86328125 C0.75375 3.67152344 0.3825 4.47976562 0 5.3125 C-0.37125 6.11300781 -0.7425 6.91351563 -1.125 7.73828125 C-2.18040667 10.06213959 -2.18040667 10.06213959 -2 13 C-0.68 13.33 0.64 13.66 2 14 C-3.75 19 -3.75 19 -6 19 C-6.26941406 19.73734375 -6.53882813 20.4746875 -6.81640625 21.234375 C-7.95461796 23.8939588 -9.24176588 25.91998365 -10.9375 28.25 C-14.75903771 33.84682418 -17 39.18589896 -17 46 C-16.78085938 45.24976563 -16.56171875 44.49953125 -16.3359375 43.7265625 C-11.06349206 26.70899471 -11.06349206 26.70899471 -4 22 C-0.7 25.3 2.6 28.6 6 32 C4.5307288 34.93854241 3.06074528 37.87673241 1.5859375 40.8125 C0.65724929 42.67902605 -0.25986361 44.55154726 -1.1484375 46.4375 C-2.98920739 50.325206 -4.86142584 53.07787923 -8 56 C-8.33 56.99 -8.66 57.98 -9 59 C-8.401875 58.505 -7.80375 58.01 -7.1875 57.5 C-5 56 -5 56 -2 56 C-1.75765625 56.92941406 -1.5153125 57.85882813 -1.265625 58.81640625 C0.50887013 65.36156329 2.20219721 71.30329582 6 77 C3.03 79.97 0.06 82.94 -3 86 C-3.99 85.505 -3.99 85.505 -5 85 C-5.41755362 82.68025766 -5.7355646 80.34214207 -6 78 C-6.19895479 73.67170832 -6.19895479 73.67170832 -8 70 C-8.04063832 68.33382885 -8.042721 66.66611905 -8 65 C-8.66 65 -9.32 65 -10 65 C-10 64.01 -10 63.02 -10 62 C-13.20665415 60.96821161 -13.20665415 60.96821161 -17 61 C-20.80465821 63.32745457 -22.71481909 66.30001048 -24.375 70.375 C-24.58125 71.24125 -24.7875 72.1075 -25 73 C-26.9375 72.1875 -26.9375 72.1875 -29 71 C-29.33 70.01 -29.66 69.02 -30 68 C-30.33 69.32 -30.66 70.64 -31 72 C-35.455 72.495 -35.455 72.495 -40 73 C-40.33 74.32 -40.66 75.64 -41 77 C-40.278125 77.0825 -39.55625 77.165 -38.8125 77.25 C-35.36505198 78.16931947 -33.54795948 79.52281717 -31 82 C-30.87625 82.680625 -30.7525 83.36125 -30.625 84.0625 C-30.41875 84.701875 -30.2125 85.34125 -30 86 C-26.51202512 87.79271391 -26.51202512 87.79271391 -23 89 C-23 90.65 -23 92.3 -23 94 C-22.401875 94.0825 -21.80375 94.165 -21.1875 94.25 C-19 95 -19 95 -16 99 C-18.64 101.64 -21.28 104.28 -24 107 C-32.37420306 102.81289847 -37.70137419 91.83568703 -40.9375 83.2734375 C-47.96853187 61.61165549 -48.50315941 40.60885511 -38.140625 19.79199219 C-34.74325707 13.37946021 -30.75869303 7.4873679 -26 2 C-22.78956118 3.38188453 -20.95063635 4.92421903 -18.75 7.625 C-18.22921875 8.25664063 -17.7084375 8.88828125 -17.171875 9.5390625 C-16.59179688 10.26222656 -16.59179688 10.26222656 -16 11 C-16.43570313 11.49886719 -16.87140625 11.99773437 -17.3203125 12.51171875 C-25.0286324 21.80508279 -29.32597366 32.29527065 -32 44 C-30.48980081 41.19625466 -29.57825876 38.58359234 -28.8125 35.5 C-26.24287508 26.68240382 -21.18040158 18.74225627 -15 12 C-13.68 12.66 -12.36 13.32 -11 14 C-11.66 12.68 -12.32 11.36 -13 10 C-4.07749077 1.91881919 -4.07749077 1.91881919 0 0 Z " fill="#814F48" transform="translate(109,69)"/>
<path d="M0 0 C0.474375 0.639375 0.94875 1.27875 1.4375 1.9375 C3.34678161 4.45775173 5.03796972 5.03934153 8 6 C8 7.98 8 9.96 8 12 C8.66 12 9.32 12 10 12 C10 11.34 10 10.68 10 10 C10.99 10 11.98 10 13 10 C13 11.32 13 12.64 13 14 C14.65 13.01 16.3 12.02 18 11 C16.69386058 14.91841827 15.16870152 17.32640809 12 20 C11.34 20 10.68 20 10 20 C10 22.97 10 25.94 10 29 C11.32 28.67 12.64 28.34 14 28 C14 29.32 14 30.64 14 32 C12.20963542 32.9765625 10.41927083 33.953125 8.62890625 34.9296875 C6.83381685 35.91410024 6.83381685 35.91410024 6 38 C5.34 38 4.68 38 4 38 C4.30798326 39.48011371 4.621518 40.95907325 4.9375 42.4375 C5.11152344 43.26121094 5.28554687 44.08492187 5.46484375 44.93359375 C5.80752994 46.97661204 5.80752994 46.97661204 7 48 C7.04080783 49.99958364 7.04254356 52.00045254 7 54 C8.65 53.34 10.3 52.68 12 52 C10.75023244 55.65316671 10.32901247 56.78065836 7 59 C6.67 59.99 6.34 60.98 6 62 C6.66 62 7.32 62 8 62 C7.76796875 63.06927734 7.76796875 63.06927734 7.53125 64.16015625 C6.95660447 66.96117128 6.95660447 66.96117128 6.78125 69.68359375 C6.37542941 73.65725372 5.92874981 76.83623807 3.39453125 80.01171875 C-3.13678669 85.07257111 -11.02206294 85.23404662 -19 85 C-19.33 84.67 -19.66 84.34 -20 84 C-20.66 87.63 -21.32 91.26 -22 95 C-23.32 95 -24.64 95 -26 95 C-26.6877034 81.32274995 -27.15387701 67.69505348 -27 54 C-27.66 54 -28.32 54 -29 54 C-29 56.64 -29 59.28 -29 62 C-31.33028092 61.06788763 -32.75891532 60.30996602 -34.3125 58.3125 C-35.38485949 54.70547261 -35.13587125 52.59692562 -34 49 C-29.63894879 44.87682431 -23.64812555 42.91224381 -18.1015625 40.89453125 C-15.83542792 40.08454999 -15.83542792 40.08454999 -14 38 C-14.09111938 35.46048456 -14.09111938 35.46048456 -15 33 C-15.99 32.34 -16.98 31.68 -18 31 C-18.40843923 28.28796348 -18.13336867 25.7562858 -18 23 C-17.34 22.67 -16.68 22.34 -16 22 C-16.66 21.34 -17.32 20.68 -18 20 C-18.14497985 17.41935871 -18.18677545 14.95056116 -18.125 12.375 C-18.11597656 11.66859375 -18.10695312 10.9621875 -18.09765625 10.234375 C-18.07407603 8.48943902 -18.03820461 6.74467705 -18 5 C-17.01 4.67 -16.02 4.34 -15 4 C-15 5.32 -15 6.64 -15 8 C-14.34 8 -13.68 8 -13 8 C-12.91363281 7.39800781 -12.82726562 6.79601562 -12.73828125 6.17578125 C-11.79019039 3.3816722 -10.67503574 2.71509616 -8.1875 1.1875 C-7.50042969 0.74792969 -6.81335938 0.30835937 -6.10546875 -0.14453125 C-3.57322583 -1.17340175 -2.49905477 -1.03593296 0 0 Z " fill="#77413A" transform="translate(163,102)"/>
<path d="M0 0 C20.64665257 1.6193453 37.98835103 13.05000766 51.8125 27.875 C59.87105948 37.73323778 64.60786824 47.8645829 68 60 C68.36609375 61.26328125 68.7321875 62.5265625 69.109375 63.828125 C73.96446272 83.75991686 68.12036902 106.47676855 57.75 123.625 C54.01190192 129.24832936 49.72887775 134.1908357 45 139 C44.31292969 139.69996094 43.62585938 140.39992187 42.91796875 141.12109375 C31.3520106 152.12913926 15.19447318 160.18048448 -0.95703125 160.09765625 C-2.06884766 160.09443359 -3.18066406 160.09121094 -4.32617188 160.08789062 C-5.47666016 160.07951172 -6.62714844 160.07113281 -7.8125 160.0625 C-9.56723633 160.05573242 -9.56723633 160.05573242 -11.35742188 160.04882812 C-14.23833358 160.0370693 -17.11914044 160.02063426 -20 160 C-20.33 159.34 -20.66 158.68 -21 158 C-19.23849609 157.96132813 -19.23849609 157.96132813 -17.44140625 157.921875 C4.4316669 157.24198984 22.57300179 152.12694723 39.9609375 138.46875 C42 137 42 137 44 137 C44 136.01 44 135.02 44 134 C44.99 133.34 45.98 132.68 47 132 C62.21594047 111.66186175 67.80635826 89.5615259 64.2746582 64.59399414 C62.19619298 52.45581743 56.78728519 41.71507554 49.3828125 31.953125 C48 30 48 30 47 27 C43.04 30.465 43.04 30.465 39 34 C41.33031005 38.32771866 43.3946635 41.61999703 47 45 C51 49.55555556 51 49.55555556 51 53 C49.75 54.75 49.75 54.75 48 56 C45.9375 55.875 45.9375 55.875 44 55 C43.34 54.01 42.68 53.02 42 52 C40.00901794 51.31821307 40.00901794 51.31821307 37.75 50.875 C32.85083577 49.33413383 30.68163529 47.04816813 28.08203125 42.6796875 C26.48194593 38.71702133 26.22196857 34.9431409 26.10546875 30.69921875 C26.01140241 28.29181723 25.68253545 26.29877941 25 24 C28.42691357 25.23749657 31.35302769 26.4510637 34 29 C34 30.32 34 31.64 34 33 C37.93673644 31.68775452 40.22719294 30.08089673 43 27 C38.40193615 16.65435633 26.34619295 11.98122685 16.44921875 7.96484375 C11.09536657 6.07245195 5.58239387 4.99061269 0 4 C0 2.68 0 1.36 0 0 Z " fill="#804E48" transform="translate(147,43)"/>
<path d="M0 0 C6.96462331 -0.63314757 11.36768098 0.83291526 17 5 C20.69258222 8.5303558 23.67160742 11.74133512 24.203125 17.015625 C24.3474188 23.89362954 22.74948153 28.45075549 18.8125 34.1875 C12.80277647 40.19722353 5.43149643 41.85837142 -2.6875 43.5625 C-12.72932668 45.38072118 -12.72932668 45.38072118 -20 52 C-20.5838196 54.9149255 -20.5838196 54.9149255 -20 58 C-17.666508 60.83411155 -17.666508 60.83411155 -15 63 C-14 64 -14 64 -13.90234375 65.84765625 C-13.93489583 67.8984375 -13.96744792 69.94921875 -14 72 C-19.93392406 71.28073648 -24.34516303 68.69726868 -28.4375 64.5 C-30.74881808 59.3226475 -30.7444782 54.57974897 -30 49 C-27.37313747 43.22090244 -22.75096331 39.63691745 -17.00390625 37.12890625 C-12.5433399 35.54929284 -7.98980634 34.52668857 -3.375 33.5 C5.38068131 31.8186525 5.38068131 31.8186525 11.9375 26.3125 C12.288125 25.549375 12.63875 24.78625 13 24 C12.22914063 23.79503906 11.45828125 23.59007813 10.6640625 23.37890625 C9.66117188 23.10949219 8.65828125 22.84007813 7.625 22.5625 C6.62726563 22.29566406 5.62953125 22.02882813 4.6015625 21.75390625 C2 21 2 21 0 20 C0 19.34 0 18.68 0 18 C5.41390868 18.46671627 9.20517932 19.24297811 14 22 C13.03956744 16.28672096 13.03956744 16.28672096 9.8125 11.6875 C6.61086002 9.76651601 3.47472786 8.36263838 0 7 C0 4.69 0 2.38 0 0 Z " fill="#77413B" transform="translate(147,57)"/>
<path d="M0 0 C0.33 1.32 0.66 2.64 1 4 C3.31 4.33 5.62 4.66 8 5 C8 5.99 8 6.98 8 8 C8.66 8 9.32 8 10 8 C10.4745101 10.13529547 10.94879613 12.27063679 11.421875 14.40625 C11.80286915 16.11557508 12.18818464 17.82394355 12.578125 19.53125 C12.75859375 20.3253125 12.9390625 21.119375 13.125 21.9375 C13.37636719 23.03384766 13.37636719 23.03384766 13.6328125 24.15234375 C14 26 14 26 14 28 C15.61974559 29.71230248 17.2958946 31.37163262 19 33 C19.70125 33.825 20.4025 34.65 21.125 35.5 C26.96824106 40.58107919 34.54518182 43.17771111 42 45 C42 45.33 42 45.66 42 46 C34.0100917 46.90794412 26.56263673 43.37509115 20 39 C17.65912158 39.27539746 15.32597511 39.6186926 13 40 C10.32572388 40.08883085 7.67680479 40.04696149 5 40 C14.351529 52.30464341 28.14897337 56.81687036 43 59 C43 59.66 43 60.32 43 61 C27.34874979 60.65498246 13.37836722 53.54580377 2 43 C1.278125 42.0925 0.55625 41.185 -0.1875 40.25 C-1.87380415 37.7418365 -1.87380415 37.7418365 -5 37 C-5 35.35 -5 33.7 -5 32 C-6.6396875 31.690625 -6.6396875 31.690625 -8.3125 31.375 C-12 30 -12 30 -13.6875 27.0625 C-14.120625 26.051875 -14.55375 25.04125 -15 24 C-17.51871028 21.64378716 -19.61348181 20.60473539 -23 20 C-22.67 18.68 -22.34 17.36 -22 16 C-17.545 15.505 -17.545 15.505 -13 15 C-13 13.02 -13 11.04 -13 9 C-11 11 -11 11 -10 14 C-9.34 14.33 -8.68 14.66 -8 15 C-7.5875 14.0925 -7.175 13.185 -6.75 12.25 C-5 9 -5 9 -2.875 6.9375 C-0.66144189 4.65015662 -0.34608319 3.11474874 0 0 Z " fill="#763F38" transform="translate(91,126)"/>
<path d="M0 0 C5.97017797 1.34329004 9.796548 4.74638747 14 9 C15.72703944 12.45407888 15.35534398 16.21624467 15 20 C13.13589593 24.55669885 9.9443752 27.13839446 6 30 C2.625 31.3125 2.625 31.3125 0 32 C-0.29355292 35.05295037 -0.44657983 37.95800324 0 41 C2.35832772 43.47208796 2.35832772 43.47208796 5 45 C5 45.66 5 46.32 5 47 C2 45.5 2 45.5 -1 44 C-1 45.98 -1 47.96 -1 50 C0.2065625 50.185625 0.2065625 50.185625 1.4375 50.375 C2.283125 50.58125 3.12875 50.7875 4 51 C4.33 51.66 4.66 52.32 5 53 C5 51.68 5 50.36 5 49 C5.99 49 6.98 49 8 49 C8 51.97 8 54.94 8 58 C6.68 58 5.36 58 4 58 C3.34 57.34 2.68 56.68 2 56 C3.37562854 57.28965176 4.70766393 58.62689293 6 60 C6 60.66 6 61.32 6 62 C3.03 62.66 0.06 63.32 -3 64 C-3.66 67.63 -4.32 71.26 -5 75 C-6.32 75 -7.64 75 -9 75 C-9.6877034 61.32274995 -10.15387701 47.69505348 -10 34 C-10.66 34 -11.32 34 -12 34 C-12 36.64 -12 39.28 -12 42 C-14.33028092 41.06788763 -15.75891532 40.30996602 -17.3125 38.3125 C-18.38485949 34.70547261 -18.13587125 32.59692562 -17 29 C-12.63894879 24.87682431 -6.64812555 22.91224381 -1.1015625 20.89453125 C1.16457208 20.08454999 1.16457208 20.08454999 3 18 C2.90888062 15.46048456 2.90888062 15.46048456 2 13 C1.01 12.34 0.02 11.68 -1 11 C-1.40843923 8.28796348 -1.13336867 5.7562858 -1 3 C-0.34 2.67 0.32 2.34 1 2 C0.67 1.34 0.34 0.68 0 0 Z " fill="#F1EBEB" transform="translate(146,122)"/>
<path d="M0 0 C4.29 0 8.58 0 13 0 C14.0218158 18.64813841 6.47917675 36.33203949 -5.53125 50.375 C-6.0159375 50.91125 -6.500625 51.4475 -7 52 C-10.35250701 51.42424336 -11.93818629 50.40693737 -14.25 47.9375 C-14.77078125 47.38964844 -15.2915625 46.84179688 -15.828125 46.27734375 C-16.21484375 45.85582031 -16.6015625 45.43429688 -17 45 C-15.54420622 41.8517563 -13.75341525 39.21801121 -11.6875 36.4375 C-3.60615512 24.97209195 -1.17687085 13.73015987 0 0 Z " fill="#F9F7F7" transform="translate(200,124)"/>
<path d="M0 0 C3.21043882 1.38188453 5.04936365 2.92421903 7.25 5.625 C7.77078125 6.25664063 8.2915625 6.88828125 8.828125 7.5390625 C9.40820312 8.26222656 9.40820312 8.26222656 10 9 C9.56429687 9.49886719 9.12859375 9.99773437 8.6796875 10.51171875 C-1.32183362 22.5698297 -6.01004509 36.55670336 -7 52 C-11.29 52 -15.58 52 -20 52 C-20.20401471 45.5862876 -19.66501695 40.06359288 -18 33.875 C-17.78069824 33.05531738 -17.56139648 32.23563477 -17.33544922 31.39111328 C-13.96703009 19.59134186 -8.0441368 9.27589525 0 0 Z " fill="#FAF8F8" transform="translate(83,71)"/>
<path d="M0 0 C0.33 0 0.66 0 1 0 C1.495 3.96 1.495 3.96 2 8 C1.38125 8.2475 0.7625 8.495 0.125 8.75 C-2.09713958 9.78363323 -2.09713958 9.78363323 -2.7734375 11.6953125 C-4.5428448 15.019995 -7.11483258 17.48340534 -9.75 20.125 C-10.26304687 20.66253906 -10.77609375 21.20007813 -11.3046875 21.75390625 C-14.67551235 25.15013933 -17.31766848 26.65434461 -22 28 C-22.96877057 30.03243548 -22.96877057 30.03243548 -23 32 C-23.66 32 -24.32 32 -25 32 C-25 30.68 -25 29.36 -25 28 C-25.66 28.33 -26.32 28.66 -27 29 C-27.31241371 31.54941373 -27.51303421 34.00361513 -27.625 36.5625 C-27.66367188 37.27341797 -27.70234375 37.98433594 -27.7421875 38.71679688 C-27.83671783 40.47742425 -27.91945817 42.23867728 -28 44 C-28.33 44 -28.66 44 -29 44 C-29.33 39.38 -29.66 34.76 -30 30 C-30.33 41.55 -30.66 53.1 -31 65 C-33.97 65.495 -33.97 65.495 -37 66 C-37.66 61.05 -38.32 56.1 -39 51 C-39.33 51 -39.66 51 -40 51 C-40.0928125 49.14375 -40.0928125 49.14375 -40.1875 47.25 C-40.60188015 43.74941542 -40.80004381 43.18995838 -43.5 40.625 C-44.325 40.08875 -45.15 39.5525 -46 39 C-47.44430855 36.11138291 -47.37688506 34.20352299 -47 31 C-41.83760135 24.27323812 -34.50058512 22.73607617 -26.625 21.125 C-18.49646442 19.31369307 -11.25487336 17.40033877 -6.0625 10.4375 C-4.54092435 8.0352864 -3.19808017 5.58048037 -2 3 C-1.34 2.01 -0.68 1.02 0 0 Z " fill="#F5F1F1" transform="translate(173,78)"/>
<path d="M0 0 C0 0.99 0 1.98 0 3 C-1.10794922 3.20302734 -1.10794922 3.20302734 -2.23828125 3.41015625 C-10.14187406 5.08728459 -16.7405765 7.78381375 -23 13 C-23.66 14.32 -24.32 15.64 -25 17 C-22.36 19.64 -19.72 22.28 -17 25 C-15.35 24.34 -13.7 23.68 -12 23 C-11.01 23 -10.02 23 -9 23 C-9.86625 23.61875 -10.7325 24.2375 -11.625 24.875 C-15.93711717 28.41709624 -18.35388969 33.16756451 -21 38 C-19.515 38.495 -19.515 38.495 -18 39 C-17.2265625 41.109375 -17.2265625 41.109375 -16.625 43.75 C-15.0652312 49.47459647 -12.52526918 52.22548652 -7.6875 55.625 C-7.130625 56.07875 -6.57375 56.5325 -6 57 C-6 57.99 -6 58.98 -6 60 C-4.68 58.68 -3.36 57.36 -2 56 C-1.01 56.33 -0.02 56.66 1 57 C-0.56107674 59.38269608 -1.76881083 60.86513965 -4.25 62.3125 C-8.06861027 64.65573812 -10.92691972 67.76750922 -14 71 C-11.24479785 73.95929119 -8.53372712 76.03681826 -5 78 C-5.99 78.495 -5.99 78.495 -7 79 C-9.08031926 77.77072044 -10.98043264 76.36032972 -12.9296875 74.93359375 C-14.97381723 73.73173085 -14.97381723 73.73173085 -17.0859375 74.68359375 C-19.71491129 76.49168389 -21.81117357 78.68957211 -24 81 C-24.66 80.67 -25.32 80.34 -26 80 C-23.36 77.36 -20.72 74.72 -18 72 C-19.175625 69.710625 -19.175625 69.710625 -20.375 67.375 C-23.09379743 61.91429922 -25.36567651 57.21650066 -25 51 C-25.78375 51.495 -26.5675 51.99 -27.375 52.5 C-30 54 -30 54 -32 54 C-31.61097569 51.27682983 -31.18341576 50.17221775 -29.14453125 48.2578125 C-26.59633667 45.57501384 -25.41653021 43.00902111 -23.9375 39.625 C-22.05443775 35.35938948 -20.11564818 31.15596171 -18 27 C-20.97 24.03 -23.94 21.06 -27 18 C-34.57215164 24.2740685 -37.30592842 33.60560307 -39 43 C-39.66 42.34 -40.32 41.68 -41 41 C-41 31.07080757 -35.24160175 21.45947527 -29 14 C-26.74207933 12.1483161 -24.45886872 10.5910327 -22 9 C-23.32 9 -24.64 9 -26 9 C-25.67 6.69 -25.34 4.38 -25 2 C-24.67 2 -24.34 2 -24 2 C-24 3.65 -24 5.3 -24 7 C-17.66896205 5.18720822 -11.49602146 3.13156508 -5.34765625 0.76953125 C-3 0 -3 0 0 0 Z " fill="#804D47" transform="translate(132,74)"/>
<path d="M0 0 C0.66 0.33 1.32 0.66 2 1 C1.566875 1.92232422 1.566875 1.92232422 1.125 2.86328125 C0.75375 3.67152344 0.3825 4.47976562 0 5.3125 C-0.37125 6.11300781 -0.7425 6.91351563 -1.125 7.73828125 C-2.18040667 10.06213959 -2.18040667 10.06213959 -2 13 C-0.68 13.33 0.64 13.66 2 14 C-3.75 19 -3.75 19 -6 19 C-6.26941406 19.73734375 -6.53882812 20.4746875 -6.81640625 21.234375 C-7.95461796 23.8939588 -9.24176588 25.91998365 -10.9375 28.25 C-16.35280508 36.24778633 -17.58903526 44.55738982 -19 54 C-22.96 54 -26.92 54 -31 54 C-31.15207639 48.52524989 -30.78318819 43.58112283 -29.4375 38.25 C-29.26404053 37.56115723 -29.09058105 36.87231445 -28.91186523 36.16259766 C-26.39193436 26.93958655 -21.43406207 19.0189768 -15 12 C-13.68 12.66 -12.36 13.32 -11 14 C-11.66 12.68 -12.32 11.36 -13 10 C-4.07749077 1.91881919 -4.07749077 1.91881919 0 0 Z " fill="#FAF8F7" transform="translate(109,69)"/>
<path d="M0 0 C12.66443883 14.98777113 20.0601071 33.21133405 19 53 C14.71 53 10.42 53 6 53 C5.96261719 52.02160156 5.92523438 51.04320312 5.88671875 50.03515625 C5.54835999 43.2878846 5.18680063 37.06884748 2.62109375 30.734375 C2 29 2 29 2 26 C2.66 26 3.32 26 4 26 C2.5394074 23.49612697 1.08462714 21.10970184 -0.6875 18.8125 C-2 17 -2 17 -2 15 C-2.99 14.67 -3.98 14.34 -5 14 C-6.58965571 11.78298853 -7.72327486 9.42137527 -9 7 C-7.88121617 5.82737096 -6.75476949 4.66204862 -5.625 3.5 C-4.68527344 2.52546875 -4.68527344 2.52546875 -3.7265625 1.53125 C-2 0 -2 0 0 0 Z " fill="#F9F7F6" transform="translate(194,70)"/>
<path d="M0 0 C4.29 0 8.58 0 13 0 C13.33 5.61 13.66 11.22 14 17 C11.29120665 18.35439668 8.99066732 18.06501451 6 18 C5.67 19.32 5.34 20.64 5 22 C6.0828125 22.12375 6.0828125 22.12375 7.1875 22.25 C10.63494802 23.16931947 12.45204052 24.52281717 15 27 C15.12375 27.680625 15.2475 28.36125 15.375 29.0625 C15.58125 29.701875 15.7875 30.34125 16 31 C19.48797488 32.79271391 19.48797488 32.79271391 23 34 C23 35.65 23 37.3 23 39 C23.598125 39.0825 24.19625 39.165 24.8125 39.25 C27 40 27 40 30 44 C27.36 46.64 24.72 49.28 22 52 C13.62153658 47.81076829 8.33645415 36.86115806 5.0625 28.3125 C3.7829353 24.32326889 2.68424627 20.31838824 1.6875 16.25 C1.42972778 15.20440918 1.42972778 15.20440918 1.16674805 14.13769531 C0.07590387 9.33228464 -0.14910161 4.92587558 0 0 Z " fill="#F8F6F5" transform="translate(63,124)"/>
<path d="M0 0 C11.12726988 2.46212889 22.58923457 1.77736824 33.91430664 1.43261719 C27.58686266 8.02220412 19.71215351 9.66439788 10.72680664 9.93261719 C5.08164323 9.79479021 0.07786146 8.86840518 -5.33569336 7.43261719 C-17.88990123 4.14210083 -31.10865921 3.37563594 -43.20678711 8.72167969 C-47.34835849 11.18302062 -50.69550097 14.21137477 -54.06225586 17.63964844 C-56.08569336 19.43261719 -56.08569336 19.43261719 -59.08569336 19.43261719 C-59.08569336 16.43261719 -59.08569336 16.43261719 -57.53881836 14.63574219 C-40.09231479 -0.8310163 -22.46210557 -5.45645796 0 0 Z " fill="#7C4841" transform="translate(174.085693359375,213.5673828125)"/>
<path d="M0 0 C3 0.4375 3 0.4375 4.875 1.4375 C6.6574571 4.60631263 6.4948493 7.92856862 6 11.4375 C5.50850464 12.42133667 5.50850464 12.42133667 5.00708008 13.42504883 C3.52857369 17.84766468 3.64180009 22.13408074 3.5859375 26.76953125 C3.56657135 27.76127853 3.5472052 28.75302582 3.5272522 29.77482605 C3.46761547 32.9331307 3.42113445 36.0914721 3.375 39.25 C3.3368056 41.39519792 3.29775302 43.54038075 3.2578125 45.68554688 C3.16192708 50.93606362 3.07683322 56.18667176 3 61.4375 C0.69 62.0975 -1.62 62.7575 -4 63.4375 C-4.89551894 51.87644146 -5.36213565 40.31742705 -5.66748047 28.72680664 C-5.72304481 26.72238072 -5.78534989 24.71813161 -5.85400391 22.71411133 C-5.9540389 19.78488772 -6.0339824 16.85573002 -6.109375 13.92578125 C-6.16070587 12.58366325 -6.16070587 12.58366325 -6.21307373 11.21443176 C-6.33822067 5.0952278 -6.33822067 5.0952278 -4.68066406 1.87182617 C-3 0.4375 -3 0.4375 0 0 Z " fill="#753E37" transform="translate(140,26.5625)"/>
<path d="M0 0 C3.96 0 7.92 0 12 0 C11.63511189 14.59552451 6.56269223 30.00623402 -3.70703125 40.79296875 C-4.13371094 41.19128906 -4.56039062 41.58960938 -5 42 C-7.99324263 40.9024777 -8.84610901 40.32317108 -10.25 37.375 C-10.4975 36.59125 -10.745 35.8075 -11 35 C-11.66 35 -12.32 35 -13 35 C-12.37858237 31.63525089 -11.11928411 29.5082636 -9.125 26.75 C-3.49378673 18.45773608 -1.93380651 9.7650371 0 0 Z " fill="#F9F7F7" transform="translate(187,124)"/>
<path d="M0 0 C4.13621084 3.3810038 7.81316569 6.66590534 11 11 C10.67386719 11.58007812 10.34773438 12.16015625 10.01171875 12.7578125 C9.57472656 13.53898437 9.13773438 14.32015625 8.6875 15.125 C8.22988281 15.94226563 7.77226563 16.75953125 7.30078125 17.6015625 C6.2544538 19.53082692 5.29922778 21.50935555 4.375 23.5 C3 26 3 26 0 27 C-1.1500831 28.96672915 -1.1500831 28.96672915 -2 31 C-3 32 -3 32 -5.06640625 32.09765625 C-5.89011719 32.08605469 -6.71382813 32.07445312 -7.5625 32.0625 C-8.38878906 32.05347656 -9.21507813 32.04445312 -10.06640625 32.03515625 C-10.70449219 32.02355469 -11.34257813 32.01195312 -12 32 C-11.27630034 20.27107443 -8.60707348 8.60707348 0 0 Z " fill="#FBF9F9" transform="translate(104,91)"/>
<path d="M0 0 C0.84183838 0.00257813 1.68367676 0.00515625 2.55102539 0.0078125 C7.18341285 0.11971718 11.02293119 0.68399655 15.375 2.4375 C15.375 3.0975 15.375 3.7575 15.375 4.4375 C11.49071945 7.38572053 8.09851135 7.95436952 3.3125 8.4375 C-1.42891389 8.95690191 -5.91739557 9.7060998 -10.5 11.0625 C-21.57611344 13.97726669 -34.40875097 14.11530383 -44.625 8.4375 C-45.64304075 7.45587226 -46.64608473 6.45814926 -47.625 5.4375 C-46.79645508 5.47677612 -46.79645508 5.47677612 -45.95117188 5.5168457 C-32.00621379 6.12049024 -32.00621379 6.12049024 -18.5625 2.9375 C-12.30615415 0.5931942 -6.68029171 -0.02914771 0 0 Z " fill="#7A453F" transform="translate(116.625,210.5625)"/>
<path d="M0 0 C7.10471253 6.17801089 8.89068653 17.7302067 11.0078125 26.5546875 C11.99230173 29.9732682 13.37356416 32.84820626 15 36 C15 36.66 15 37.32 15 38 C0.95497475 34.75884033 -13.78238936 27.70962454 -22.52734375 15.9453125 C-23.6875 14.0625 -23.6875 14.0625 -25 11 C-24.67 10.34 -24.34 9.68 -24 9 C-23.16082031 9.60134766 -23.16082031 9.60134766 -22.3046875 10.21484375 C-17.22672319 13.81513677 -12.07542324 17.24261542 -6.8125 20.5625 C-1.84706855 23.70424934 2.69011141 26.9979606 7 31 C6.01978398 27.93109938 4.98059859 24.95473004 3.7109375 21.9921875 C0.45770842 14.40131965 -0.6675437 8.23303899 0 0 Z " fill="#7E4A44" transform="translate(63,161)"/>
<path d="M0 0 C1.9375 0.8125 1.9375 0.8125 4 2 C4.33 2.99 4.66 3.98 5 5 C6.0828125 4.9071875 6.0828125 4.9071875 7.1875 4.8125 C10.64818317 5.04321221 12.27863929 5.86704161 15 8 C15.70710678 9.64991582 16.37943989 11.31562256 17 13 C17.99 13.33 18.98 13.66 20 14 C23.73524775 20.57659006 23.61454031 28.6762658 24 36 C20.04 36 16.08 36 12 36 C11.63528645 33.77253461 11.28364028 31.54292708 10.9375 29.3125 C10.74027344 28.07113281 10.54304687 26.82976562 10.33984375 25.55078125 C10.03247344 22.33929143 10.15726769 20.08216081 11 17 C10.01 16.67 9.02 16.34 8 16 C6.95650161 14.36021682 5.96817992 12.68535024 5 11 C3.39384836 8.9349479 1.7647243 6.89301974 0.109375 4.8671875 C-0.25671875 4.25101562 -0.6228125 3.63484375 -1 3 C-0.67 2.01 -0.34 1.02 0 0 Z " fill="#F8F6F5" transform="translate(175,87)"/>
<path d="M0 0 C1 2 1 2 0.5390625 3.8203125 C-2.83173033 12.31932006 -7.41911119 20.1106915 -12 28 C9.59282207 23.82801871 9.59282207 23.82801871 29 14 C28.02619829 19.70369572 25.10338795 22.13472318 20.64453125 25.390625 C13.34876167 29.83059113 5.18382206 31.96908331 -3.30078125 32.31640625 C-4.27724609 32.35830078 -5.25371094 32.40019531 -6.25976562 32.44335938 C-7.26716797 32.48267578 -8.27457031 32.52199219 -9.3125 32.5625 C-10.33923828 32.60568359 -11.36597656 32.64886719 -12.42382812 32.69335938 C-14.94909569 32.79906825 -17.47445562 32.90116468 -20 33 C-14.140625 21.28125 -14.140625 21.28125 -13.06347656 19.140625 C-12.35806339 17.72072998 -11.66708626 16.29356542 -10.99121094 14.859375 C-9.00971152 10.70505897 -6.92963767 7.39161352 -3.75 4 C-3.04359375 3.236875 -2.3371875 2.47375 -1.609375 1.6875 C-0.81273437 0.8521875 -0.81273437 0.8521875 0 0 Z " fill="#7D4943" transform="translate(199,178)"/>
<path d="M0 0 C4.36661489 4.12175798 7.94877427 8.65108076 11.5625 13.4375 C12.12646484 14.17548828 12.69042969 14.91347656 13.27148438 15.67382812 C16.32896693 19.69683149 19.25156885 23.75975536 22 28 C21.98952637 27.43603516 21.97905273 26.87207031 21.96826172 26.29101562 C21.92625522 23.69405719 21.90053398 21.09717061 21.875 18.5 C21.85824219 17.613125 21.84148438 16.72625 21.82421875 15.8125 C21.7827795 10.17676212 22.39558714 5.40699768 24 0 C26 1 26 1 27.09912109 4.10961914 C27.98385367 7.93027323 28.31327669 11.33224482 28.4140625 15.24609375 C28.43342865 15.90207047 28.4527948 16.55804718 28.4727478 17.23390198 C28.53188909 19.30164128 28.57866229 21.36943829 28.625 23.4375 C28.66324033 24.85093394 28.70229545 26.26434609 28.7421875 27.67773438 C28.83753452 31.11828852 28.92180287 34.55900839 29 38 C24.36927138 36.3025562 21.18981466 33.84719971 17.625 30.5 C16.76563843 29.6958667 16.76563843 29.6958667 15.88891602 28.87548828 C8.51997348 21.81493531 2.80738511 13.9391895 0 4 C0 2.68 0 1.36 0 0 Z " fill="#7E4B45" transform="translate(31,140)"/>
<path d="M0 0 C7.99707357 3.30313908 11.73154171 13.10341186 15.4375 20.4375 C15.96875488 21.48478271 15.96875488 21.48478271 16.51074219 22.55322266 C17.97906048 25.54151959 19 27.6271971 19 31 C1.99750657 30.66096723 -12.27965407 29.41298667 -25.5625 17.75 C-27 16 -27 16 -27 14 C-23.82085516 15.05321363 -20.64873719 16.12177111 -17.484375 17.21875 C-11.05533387 19.4245298 -4.79203407 21.3667478 1.91796875 22.53515625 C4.87843548 23.19612349 7.35329564 24.55061428 10 26 C11.32599627 26.36141775 12.65869581 26.70034694 14 27 C13.32453125 26.03320312 12.6490625 25.06640625 11.953125 24.0703125 C0 6.71662542 0 6.71662542 0 0 Z " fill="#7D4942" transform="translate(76,180)"/>
<path d="M0 0 C0.33 0 0.66 0 1 0 C1.54008548 10.80170959 -1.20735196 20.36604759 -6 30 C2.56377176 25.27777834 10.28801006 20.01937212 18 14 C18.90878906 13.29746094 19.81757813 12.59492188 20.75390625 11.87109375 C22.84130862 10.25409191 24.92341476 8.63085356 27 7 C27.495 7.99 27.495 7.99 28 9 C22.80919505 20.76041747 13.13225109 25.91033314 2.06445312 31.0390625 C0.07889086 31.9632788 -1.89123712 32.91433704 -3.859375 33.875 C-10.4521586 37.03953613 -10.4521586 37.03953613 -13 38 C-13.66 37.67 -14.32 37.34 -15 37 C-14.69707031 36.48695313 -14.39414063 35.97390625 -14.08203125 35.4453125 C-10.58482948 29.05350373 -8.60978477 22.63042746 -6.8762207 15.59814453 C-3.89978258 3.89978258 -3.89978258 3.89978258 0 0 Z " fill="#7D4A43" transform="translate(211,162)"/>
<path d="M0 0 C5.64060589 0.40290042 8.03471123 2.21914326 12 6 C13.5547669 9.10953379 13.28644437 11.56266761 13 15 C10.30097271 20.73543299 6.65510925 22.78153333 1 25 C-1.36029588 25.8432317 -3.72448338 26.64056189 -6.1171875 27.38671875 C-8.05916656 27.96782868 -8.05916656 27.96782868 -10 29 C-10.46651207 31.12576782 -10.46651207 31.12576782 -10.625 33.5625 C-10.73714844 34.80193359 -10.73714844 34.80193359 -10.8515625 36.06640625 C-10.90054688 36.70449219 -10.94953125 37.34257812 -11 38 C-14.8359375 36.2109375 -14.8359375 36.2109375 -16.3125 34.3125 C-17.38485949 30.70547261 -17.13587125 28.59692562 -16 25 C-11.63894879 20.87682431 -5.64812555 18.91224381 -0.1015625 16.89453125 C2.16457208 16.08454999 2.16457208 16.08454999 4 14 C3.90888062 11.46048456 3.90888062 11.46048456 3 9 C2.01 8.34 1.02 7.68 0 7 C-0.1875 3.375 -0.1875 3.375 0 0 Z " fill="#7B463F" transform="translate(145,126)"/>
<path d="M0 0 C2.39700815 2.98015892 4.04124243 5.95499042 5.62890625 9.4296875 C6.10650391 10.47253906 6.58410156 11.51539062 7.07617188 12.58984375 C7.8119043 14.21599609 7.8119043 14.21599609 8.5625 15.875 C9.05685547 16.95136719 9.55121094 18.02773437 10.06054688 19.13671875 C12.29555767 24.04224989 14.35893236 28.85890582 16 34 C16.16435547 32.54980469 16.16435547 32.54980469 16.33203125 31.0703125 C18.68089054 11.78293135 18.68089054 11.78293135 23.1875 6.375 C23.785625 5.92125 24.38375 5.4675 25 5 C25.76726449 12.89429905 24.22378986 19.34080853 21.85986328 26.77099609 C20.14999522 32.21728798 19.27263938 37.27457312 19 43 C15.13091615 39.32506373 11.95904709 35.4728462 8.875 31.125 C8.44574219 30.53847656 8.01648437 29.95195312 7.57421875 29.34765625 C2.25195195 21.89648273 -0.16381744 14.90738747 -0.0625 5.6875 C-0.05347656 4.61886719 -0.04445313 3.55023438 -0.03515625 2.44921875 C-0.02355469 1.64097656 -0.01195313 0.83273438 0 0 Z " fill="#7C4841" transform="translate(30,110)"/>
<path d="M0 0 C3.44025728 1.24231513 6.30207814 2.49478685 9 5 C9.12375 5.639375 9.2475 6.27875 9.375 6.9375 C10.37129107 10.22526053 13.20709064 11.1760592 16 13 C17.125 15 17.125 15 18 17 C19.31129922 18.35500919 20.64691687 19.68671343 22 21 C26 25.55555556 26 25.55555556 26 29 C24.75 30.75 24.75 30.75 23 32 C20.9375 31.875 20.9375 31.875 19 31 C18.34 30.01 17.68 29.02 17 28 C15.00901794 27.31821307 15.00901794 27.31821307 12.75 26.875 C7.85083577 25.33413383 5.68163529 23.04816813 3.08203125 18.6796875 C1.48194593 14.71702133 1.22196857 10.9431409 1.10546875 6.69921875 C1.01140241 4.29181723 0.68253545 2.29877941 0 0 Z " fill="#78433C" transform="translate(172,67)"/>
<path d="M0 0 C0.33 0 0.66 0 1 0 C1.58136781 13.93129528 -1.25766969 21.55910425 -9 33 C-9.55558594 33.8559375 -10.11117187 34.711875 -10.68359375 35.59375 C-12.92192361 39.03218191 -15.00020548 42.17666398 -18 45 C-18.10957031 43.93523437 -18.21914062 42.87046875 -18.33203125 41.7734375 C-19.10278763 34.62114978 -19.98002854 27.64146596 -21.625 20.625 C-23.00004339 14.65496235 -23.33643577 9.10568612 -23 3 C-15.84916916 11.88251352 -15.04314241 23.0607303 -14 34 C-9.21287293 22.71258618 -4.50064296 11.40503842 0 0 Z " fill="#7E4B44" transform="translate(245,111)"/>
<path d="M0 0 C3.2542015 2.83430453 4.5206753 4.68607774 5 9 C5.66 9 6.32 9 7 9 C10.86179919 14.6523912 12.64745039 18.49758433 11.39453125 25.34765625 C11.26433594 25.89292969 11.13414062 26.43820313 11 27 C11.99 27 12.98 27 14 27 C14 28.65 14 30.3 14 32 C10.37 32 6.74 32 3 32 C4.73559438 28.942048 6.38472619 26.36620011 9 24 C7.68 24.33 6.36 24.66 5 25 C5 23.68 5 22.36 5 21 C4.01 21 3.02 21 2 21 C2 21.66 2 22.32 2 23 C1.34 23 0.68 23 0 23 C-0.061875 22.05125 -0.12375 21.1025 -0.1875 20.125 C-0.5896875 18.578125 -0.5896875 18.578125 -1 17 C-3.37625345 15.81608777 -3.37625345 15.81608777 -6 15 C-7.8125 12.875 -7.8125 12.875 -9 11 C-7.59155282 7.78475695 -5.89655214 5.67816132 -3.375 3.25 C-2.74335938 2.63640625 -2.11171875 2.0228125 -1.4609375 1.390625 C-0.73777344 0.70226562 -0.73777344 0.70226562 0 0 Z " fill="#F4EFEF" transform="translate(171,91)"/>
<path d="M0 0 C2.25378386 3.38067579 2.36020013 4.98864476 2.6328125 8.98046875 C2.71660156 10.14384766 2.80039063 11.30722656 2.88671875 12.50585938 C2.96535156 13.72080078 3.04398438 14.93574219 3.125 16.1875 C3.21136719 17.41404297 3.29773438 18.64058594 3.38671875 19.90429688 C3.59903792 22.93574286 3.80313079 25.96751785 4 29 C4.64594116 27.94268677 4.64594116 27.94268677 5.30493164 26.86401367 C8.98236776 20.9489656 12.80212046 15.50621886 17.4375 10.3125 C17.97826172 9.69439453 18.51902344 9.07628906 19.07617188 8.43945312 C20.37752519 6.95383739 21.68775616 5.47600497 23 4 C24.54747263 9.15459024 22.50290473 12.06755944 20.06640625 16.703125 C14.36196029 25.80435826 6.17240146 33.13921853 -2 40 C-3.43475312 37.13049377 -2.54282516 35.13058147 -2 32 C-1.94442099 29.97991054 -1.93705413 27.95804026 -1.97265625 25.9375 C-1.98490234 24.81085938 -1.99714844 23.68421875 -2.00976562 22.5234375 C-2.0449228 20.17441747 -2.08398562 17.82545265 -2.12695312 15.4765625 C-2.13791016 14.34992188 -2.14886719 13.22328125 -2.16015625 12.0625 C-2.17699463 11.04285156 -2.19383301 10.02320313 -2.21118164 8.97265625 C-1.97926569 5.70813765 -1.15258216 3.0515714 0 0 Z " fill="#7D4943" transform="translate(219,140)"/>
<path d="M0 0 C4.29 0 8.58 0 13 0 C12.17703113 12.3445331 8.42908921 22.73165083 0 32 C-0.66 32 -1.32 32 -2 32 C-2.50404808 29.89679937 -3.00310508 27.79240209 -3.5 25.6875 C-3.91765625 23.92986328 -3.91765625 23.92986328 -4.34375 22.13671875 C-5 19 -5 19 -5 16 C-4.34 16 -3.68 16 -3 16 C-2.67 15.01 -2.34 14.02 -2 13 C0.21701147 11.41034429 2.57862473 10.27672514 5 9 C5 8.34 5 7.68 5 7 C3.68 7 2.36 7 1 7 C0.67 4.69 0.34 2.38 0 0 Z " fill="#F7F4F3" transform="translate(172,124)"/>
<path d="M0 0 C0.5857672 3.22171958 0.82371676 4.89561748 0 8 C-5.09706406 14.31823566 -12.59022751 19.68510178 -20 23 C-21.32 23 -22.64 23 -24 23 C-24.30310068 17.84728839 -23.75010111 15.30450609 -21 11 C-21.33 10.01 -21.66 9.02 -22 8 C-5.08300395 0 -5.08300395 0 0 0 Z " fill="#7B4740" transform="translate(132,58)"/>
<path d="M0 0 C2.7073593 2.7073593 2.47652023 4.53579507 2.8515625 8.3203125 C2.98046875 9.57714844 3.109375 10.83398438 3.2421875 12.12890625 C3.3699821 13.46091924 3.49758378 14.79295076 3.625 16.125 C3.75960732 17.4649253 3.89501425 18.80477054 4.03125 20.14453125 C4.36205807 23.42898281 4.68461334 26.71403761 5 30 C5.42410156 29.0821875 5.84820312 28.164375 6.28515625 27.21875 C9.7329202 19.94266982 13.17155002 13.7044404 19 8 C20 11 20 11 18.7421875 14.07421875 C18.13092357 15.28433345 17.50783599 16.48852553 16.875 17.6875 C16.55241211 18.31672363 16.22982422 18.94594727 15.89746094 19.59423828 C13.81687691 23.60148031 11.53975204 27.40844738 9.06640625 31.1796875 C7.24265441 34.29275841 6.15674178 37.59065582 5 41 C2.85734485 37.78601728 1.73420922 34.82215658 0.4375 31.1875 C-0.21412109 29.38345703 -0.21412109 29.38345703 -0.87890625 27.54296875 C-3.92612401 17.91291124 -4.10618218 9.23890991 0 0 Z " fill="#814E48" transform="translate(39,85)"/>
<path d="M0 0 C2 1 2 1 3.09765625 4.0703125 C4.11012657 7.98280844 4.42232592 11.84296201 4.4375 15.875 C4.44330078 16.95962524 4.44330078 16.95962524 4.44921875 18.06616211 C4.27532328 26.47201566 1.75909315 34.12673062 -1 42 C-3 40 -3 40 -4.5625 36.6875 C-6.8186138 32.00370481 -9.782732 27.85109364 -12.82641602 23.65698242 C-18.32155435 15.9829185 -18.32155435 15.9829185 -17.625 11.6875 C-17.41875 11.130625 -17.2125 10.57375 -17 10 C-10.81685607 16.86753772 -5.68123756 22.95582555 -3 32 C-2.67 32 -2.34 32 -2 32 C-1.97494385 31.31486328 -1.9498877 30.62972656 -1.92407227 29.92382812 C-1.80714393 26.7824065 -1.68486126 23.64121452 -1.5625 20.5 C-1.52318359 19.42234375 -1.48386719 18.3446875 -1.44335938 17.234375 C-1.21341951 11.43281536 -0.83001269 5.74731473 0 0 Z " fill="#7F4B45" transform="translate(236,83)"/>
<path d="M0 0 C2 3 2 3 1.82421875 5.2578125 C-0.83248048 14.09668862 -5.56999039 22.41316088 -12 29 C-10.41045275 32.33314754 -8.92362316 34.66110147 -6 37 C-3.33165034 37.33498301 -3.33165034 37.33498301 -1 37 C-1.33 37.66 -1.66 38.32 -2 39 C-2.99 39 -3.98 39 -5 39 C-5.33 39.99 -5.66 40.98 -6 42 C-6.4125 41.2575 -6.825 40.515 -7.25 39.75 C-8.97691596 37.03627492 -10.47246357 34.99139234 -13 33 C-16.68242722 33.35182426 -18.83962039 35.25687641 -21.625 37.5625 C-25.78873239 41 -25.78873239 41 -28 41 C-27.22095672 30.44191344 -27.22095672 30.44191344 -25 26 C-25.66 26 -26.32 26 -27 26 C-26.6875 24.0625 -26.6875 24.0625 -26 22 C-25.01 21.67 -24.02 21.34 -23 21 C-22.67 20.34 -22.34 19.68 -22 19 C-22 19.66 -22 20.32 -22 21 C-21.34 21 -20.68 21 -20 21 C-18.61061923 22.96147874 -17.2739589 24.96166576 -16 27 C-9.53456017 24.50456708 -6.47038754 17.16529533 -3.6953125 11.19140625 C-2.19354015 7.50274643 -0.90193737 3.88186772 0 0 Z " fill="#8B5D57" transform="translate(196,138)"/>
<path d="M0 0 C0.33 0 0.66 0 1 0 C1.40735653 8.50922528 0.43092956 15.8390222 -2 24 C-1.52433594 23.27296875 -1.52433594 23.27296875 -1.0390625 22.53125 C3.14477716 16.52131458 8.15500735 12.34998628 14 8 C14.76054688 7.42894531 15.52109375 6.85789062 16.3046875 6.26953125 C16.86414063 5.85058594 17.42359375 5.43164062 18 5 C18.66 5.33 19.32 5.66 20 6 C14.81947166 13.95078066 9.01528024 20.11211067 1.953125 26.37109375 C-0.45315777 28.51319469 -2.75343041 30.69344918 -5 33 C-7.64772616 24.42136724 -7.25636109 12.19094736 -3.01171875 4.12109375 C-1.9375 2.4375 -1.9375 2.4375 0 0 Z " fill="#7E4B45" transform="translate(52,66)"/>
<path d="M0 0 C5.18626646 4.22584675 7.9232836 10.7698508 10 17 C10.12047541 19.33105907 10.17534303 21.66586142 10.1875 24 C10.20167969 25.2375 10.21585938 26.475 10.23046875 27.75 C10 31 10 31 8 34 C5.2033749 31.22819137 2.41011956 28.45303463 -0.38012695 25.67480469 C-1.79398353 24.26841864 -3.21045185 22.86465979 -4.62695312 21.4609375 C-5.51962891 20.57148437 -6.41230469 19.68203125 -7.33203125 18.765625 C-8.15421143 17.94868164 -8.9763916 17.13173828 -9.82348633 16.29003906 C-11.73365906 14.28023309 -13.39727266 12.25787331 -15 10 C-14.67 9.34 -14.34 8.68 -14 8 C-5.91083627 12.73547129 -0.18465783 17.22301325 5 25 C3.90676527 18.95505503 2.53249436 13.15425292 0.5859375 7.32421875 C-0.04986271 4.80221126 -0.10087051 2.59053821 0 0 Z " fill="#814F49" transform="translate(222,65)"/>
<path d="M0 0 C0 12.87 0 25.74 0 39 C-2.97 39.495 -2.97 39.495 -6 40 C-6 27.13 -6 14.26 -6 1 C-3 0 -3 0 0 0 Z " fill="#7A463F" transform="translate(142,104)"/>
<path d="M0 0 C0.24234375 0.92941406 0.4846875 1.85882813 0.734375 2.81640625 C2.50887013 9.36156329 4.20219721 15.30329582 8 21 C5.03 23.97 2.06 26.94 -1 30 C-1.66 29.67 -2.32 29.34 -3 29 C-3.41755362 26.68025766 -3.7355646 24.34214207 -4 22 C-4.43855313 18.42892453 -4.88272122 15.31925891 -6.125 11.9375 C-7.15597057 8.47638453 -6.99756594 6.45311286 -6 3 C-3.97021001 0.23210456 -3.53262742 0 0 0 Z " fill="#F8F6F6" transform="translate(107,125)"/>
<path d="M0 0 C1.65 0.33 3.3 0.66 5 1 C4.67 12.55 4.34 24.1 4 36 C3.67 36 3.34 36 3 36 C2.67 32.7 2.34 29.4 2 26 C1.67 26 1.34 26 1 26 C0.9071875 24.14375 0.9071875 24.14375 0.8125 22.25 C0.39811985 18.74941542 0.19995619 18.18995838 -2.5 15.625 C-3.7375 14.820625 -3.7375 14.820625 -5 14 C-6.44430855 11.11138291 -6.37688506 9.20352299 -6 6 C-3.5625 3.1875 -3.5625 3.1875 -1 1 C-0.67 0.67 -0.34 0.34 0 0 Z " fill="#F4F0EF" transform="translate(132,103)"/>
<path d="M0 0 C0 13.86 0 27.72 0 42 C-1.32 42 -2.64 42 -4 42 C-4 28.47 -4 14.94 -4 1 C-2 0 -2 0 0 0 Z " fill="#7C4842" transform="translate(141,155)"/>
<path d="M0 0 C2.125 0.9375 2.125 0.9375 4 2 C2.824375 2.53625 1.64875 3.0725 0.4375 3.625 C-3.96907884 5.80865226 -7.4283659 8.65159303 -11 12 C-10.34 13.98 -9.68 15.96 -9 18 C-10.65 17.01 -12.3 16.02 -14 15 C-22.22925109 24.9217921 -26.67557204 35.35837427 -29 48 C-29.33 48 -29.66 48 -30 48 C-30.495 50.475 -30.495 50.475 -31 53 C-31.33 53 -31.66 53 -32 53 C-33.49555416 38.34356925 -24.49708257 23.2461387 -16 12 C-16.48210937 11.51789063 -16.96421875 11.03578125 -17.4609375 10.5390625 C-19.97395833 8.02604167 -22.48697917 5.51302083 -25 3 C-21.60807637 3.59283621 -19.7892243 4.76743189 -17.25 7.0625 C-16.32960938 7.88427734 -16.32960938 7.88427734 -15.390625 8.72265625 C-14.93171875 9.14417969 -14.4728125 9.56570312 -14 10 C-13.15695313 9.36191406 -12.31390625 8.72382812 -11.4453125 8.06640625 C-10.33860532 7.23168643 -9.23183099 6.39705563 -8.125 5.5625 C-7.56941406 5.14162109 -7.01382813 4.72074219 -6.44140625 4.28710938 C-2.2265625 1.11328125 -2.2265625 1.11328125 0 0 Z " fill="#8B5E58" transform="translate(108,67)"/>
<path d="M0 0 C0.66 0.66 1.32 1.32 2 2 C1.071875 2.8971875 1.071875 2.8971875 0.125 3.8125 C-3.47258256 7.51589381 -4.31118506 9.73921199 -4.375 14.8125 C-4.26133972 20.04718723 -3.83437724 23.16562276 0 27 C3.5097193 29.18209912 7.08681455 30.69560485 11 32 C10.67 32.66 10.34 33.32 10 34 C9.401875 34.12375 8.80375 34.2475 8.1875 34.375 C5.29805668 35.20055523 3.98392064 36.80351643 2 39 C2.33 37.35 2.66 35.7 3 34 C1.9275 33.34 0.855 32.68 -0.25 32 C-4.35421049 29.06961036 -6.41719628 25.75800391 -8 21 C-8.25 18 -8.25 18 -8 16 C-9.32 16.33 -10.64 16.66 -12 17 C-10.01644244 9.60674001 -6.21142466 4.4367319 0 0 Z " fill="#F1ECEB" transform="translate(122,97)"/>
<path d="M0 0 C0.33 0 0.66 0 1 0 C1.76726449 7.89429905 0.22378986 14.34080853 -2.14013672 21.77099609 C-3.85000478 27.21728798 -4.72736062 32.27457312 -5 38 C-9.875 33.375 -9.875 33.375 -11 30 C-10.01 28.515 -10.01 28.515 -9 27 C-8.67 27.66 -8.34 28.32 -8 29 C-7.89042969 28.03320312 -7.78085937 27.06640625 -7.66796875 26.0703125 C-5.24808719 6.19974033 -5.24808719 6.19974033 0 0 Z " fill="#85544E" transform="translate(54,115)"/>
<path d="M0 0 C0 6.7383273 -8.18356047 13.29041695 -12.75 17.9375 C-20.06715745 25 -20.06715745 25 -23 25 C-20.59921324 14.86334479 -13.72818361 8.24009393 -5.453125 2.49609375 C-3 1 -3 1 0 0 Z " fill="#7E4B45" transform="translate(81,50)"/>
<path d="M0 0 C7.99707357 3.30313908 11.73154171 13.10341186 15.4375 20.4375 C15.79166992 21.13568848 16.14583984 21.83387695 16.51074219 22.55322266 C17.97906048 25.54151959 19 27.6271971 19 31 C16.69 30.67 14.38 30.34 12 30 C12.37705078 28.95392578 12.37705078 28.95392578 12.76171875 27.88671875 C13.09468404 23.85292609 11.1822203 21.84090379 8.8125 18.8125 C0 6.89731884 0 6.89731884 0 0 Z " fill="#804D47" transform="translate(76,180)"/>
<path d="M0 0 C3.96 0 7.92 0 12 0 C12 6 12 6 10.625 7.875 C9 9 9 9 7 9 C6.67 11.97 6.34 14.94 6 18 C2 16 2 16 0.75 12.375 C-0.1216751 8.20013506 -0.1518685 4.25231792 0 0 Z " fill="#F5F2F1" transform="translate(78,124)"/>
<path d="M0 0 C4.72502219 4.72502219 3.04701089 14.87414808 3.06591797 21.27734375 C3.06097692 24.85184311 3.03574327 28.42567347 3 32 C2.01 32.495 2.01 32.495 1 33 C-3.03302024 21.58579176 -5.05900027 11.38275061 0 0 Z " fill="#7C4842" transform="translate(39,85)"/>
<path d="M0 0 C8.14389759 10.2440431 7.46318207 21.58414742 7 34 C6.34 33.67 5.68 33.34 5 33 C4.21561301 30.43372255 3.54509378 27.92076378 2.9375 25.3125 C2.76412109 24.60416016 2.59074219 23.89582031 2.41210938 23.16601562 C0.95707935 17.12847725 -0.13859964 11.3651702 -0.0625 5.125 C-0.05347656 4.15820312 -0.04445312 3.19140625 -0.03515625 2.1953125 C-0.02355469 1.47085938 -0.01195312 0.74640625 0 0 Z " fill="#7C4841" transform="translate(222,114)"/>
<path d="M0 0 C8.30811505 1.48158259 15.14724539 9.53403237 20 16 C22 19.375 22 19.375 23 22 C22.67 22.66 22.34 23.32 22 24 C19.44812364 21.67763829 16.91054995 19.34016606 14.375 17 C13.66214844 16.35160156 12.94929687 15.70320313 12.21484375 15.03515625 C7.5812803 10.74167085 3.45332597 6.31331881 0 1 C0 0.67 0 0.34 0 0 Z " fill="#7E4A44" transform="translate(197,51)"/>
<path d="M0 0 C0.33 0 0.66 0 1 0 C1 4.95 1 9.9 1 15 C3.475 15.99 3.475 15.99 6 17 C4.68 17.33 3.36 17.66 2 18 C2.11214648 23.62006722 2.11214648 23.62006722 5.0625 28 C5.701875 28.33 6.34125 28.66 7 29 C6.505 31.475 6.505 31.475 6 34 C5.01 34 4.02 34 3 34 C3.33 32.68 3.66 31.36 4 30 C3.34 30 2.68 30 2 30 C1.67 31.32 1.34 32.64 1 34 C0.34 34 -0.32 34 -1 34 C-1.02465288 29.31860746 -1.04283739 24.63725241 -1.05493164 19.95581055 C-1.05997157 18.36205386 -1.0668035 16.76830181 -1.07543945 15.17456055 C-1.08751999 12.88849747 -1.09323155 10.60249533 -1.09765625 8.31640625 C-1.10281754 7.59973282 -1.10797882 6.88305939 -1.11329651 6.14466858 C-1.11349263 4.42936328 -1.06192007 2.71418734 -1 1 C-0.67 0.67 -0.34 0.34 0 0 Z " fill="#FCFBFB" transform="translate(143,107)"/>
<path d="M0 0 C3.15570687 1.00058998 6.16706854 2.07534463 9.1875 3.4375 C20.57571661 8.27258334 31.79161828 8.65323891 44 9 C44 9.33 44 9.66 44 10 C42.74703125 10.06058594 41.4940625 10.12117187 40.203125 10.18359375 C38.55207276 10.26802256 36.90103165 10.35266939 35.25 10.4375 C34.425 10.47681641 33.6 10.51613281 32.75 10.55664062 C31.95078125 10.59853516 31.1515625 10.64042969 30.328125 10.68359375 C29.5949707 10.72025146 28.86181641 10.75690918 28.10644531 10.79467773 C25.98448091 10.94275064 25.98448091 10.94275064 23.92773438 11.55957031 C16.61923325 13.22934438 6.30842955 7.53272055 0 4 C0 2.68 0 1.36 0 0 Z " fill="#814F49" transform="translate(101,191)"/>
<path d="M0 0 C0.33 0 0.66 0 1 0 C1.03758423 0.91495239 1.03758423 0.91495239 1.07592773 1.84838867 C1.1924058 4.62827898 1.31489632 7.4078734 1.4375 10.1875 C1.47681641 11.14720703 1.51613281 12.10691406 1.55664062 13.09570312 C1.59853516 14.02705078 1.64042969 14.95839844 1.68359375 15.91796875 C1.73858032 17.19837036 1.73858032 17.19837036 1.79467773 18.50463867 C2.00538035 21.06538944 2.4825906 23.48568125 3 26 C3.06533435 27.93651019 3.08584303 29.87502861 3.0625 31.8125 C3.05347656 32.78832031 3.04445313 33.76414063 3.03515625 34.76953125 C3.02355469 35.50558594 3.01195313 36.24164063 3 37 C-0.78180078 33.62228204 -1.43921336 29.89413799 -2 25 C-2.39783277 16.97969137 -2.43527571 8.91946454 -1 1 C-0.67 0.67 -0.34 0.34 0 0 Z " fill="#79443D" transform="translate(62,111)"/>
<path d="M0 0 C1.875 0.1875 1.875 0.1875 4 1 C4.66666667 2.66666667 5.33333333 4.33333333 6 6 C8.0198369 6.69267199 8.0198369 6.69267199 10 7 C3.5546875 14.84179688 3.5546875 14.84179688 0 17 C-0.66 17 -1.32 17 -2 17 C-1.52060632 12.28596212 -1.03165952 8.33420699 1 4 C0.34 4 -0.32 4 -1 4 C-0.67 2.68 -0.34 1.36 0 0 Z " fill="#F3EEED" transform="translate(170,160)"/>
<path d="M0 0 C2 1 2 1 3.0703125 3.640625 C6.33775895 14.82255286 6.43545095 25.40863078 6 37 C5.67 37 5.34 37 5 37 C4.67 31.06 4.34 25.12 4 19 C3.67 21.97 3.34 24.94 3 28 C2.67 28 2.34 28 2 28 C1.46262405 24.64826952 0.94813202 21.29340039 0.4375 17.9375 C0.28603516 16.99455078 0.13457031 16.05160156 -0.02148438 15.08007812 C-0.82093025 9.74424167 -1.10836575 5.29226297 0 0 Z " fill="#85544E" transform="translate(211,95)"/>
<path d="M0 0 C0.94875 0.86625 1.8975 1.7325 2.875 2.625 C13.47030913 11.64590576 25.36175367 15.99515141 39 18 C39 18.66 39 19.32 39 20 C25.02498448 19.69193353 12.18976137 14.19202394 1.69140625 4.97265625 C0 3 0 3 0 0 Z " fill="#895A54" transform="translate(95,167)"/>
<path d="M0 0 C5.28497409 0.1761658 5.28497409 0.1761658 8 1 C10.5 4.0625 10.5 4.0625 12 7 C10.02 8.65 8.04 10.3 6 12 C4.99157547 10.56839732 3.99352109 9.12948547 3 7.6875 C2.1646875 6.48673828 2.1646875 6.48673828 1.3125 5.26171875 C0 3 0 3 0 0 Z " fill="#F5F1F0" transform="translate(110,132)"/>
<path d="M0 0 C0.33 0 0.66 0 1 0 C0.31588107 11.29975744 -2.85985161 20.42205265 -9 30 C-9.66 30.33 -10.32 30.66 -11 31 C-11.66 30.34 -12.32 29.68 -13 29 C-12.43732422 28.39478516 -12.43732422 28.39478516 -11.86328125 27.77734375 C-6.3965183 21.2915872 -4.40122744 13.98669127 -2 6 C-1.34011679 3.99775162 -0.67587608 1.9969066 0 0 Z " fill="#875751" transform="translate(186,124)"/>
<path d="M0 0 C0.99 0.33 1.98 0.66 3 1 C2.67 7.27 2.34 13.54 2 20 C1.67 20 1.34 20 1 20 C0.67 16.04 0.34 12.08 0 8 C-0.33 9.65 -0.66 11.3 -1 13 C-1.99 12.67 -2.98 12.34 -4 12 C-4.8125 8.8125 -4.8125 8.8125 -5 5 C-2.5625 2.0625 -2.5625 2.0625 0 0 Z " fill="#C9B3B1" transform="translate(134,103)"/>
<path d="M0 0 C3.33333333 3.33333333 6.66666667 6.66666667 10 10 C10.763125 9.67 11.52625 9.34 12.3125 9 C15 8 15 8 18 8 C17.13375 8.61875 16.2675 9.2375 15.375 9.875 C11.12289937 13.39816909 8.36391603 18.05421823 6 23 C6 23.99 6 24.98 6 26 C5.01 26 4.02 26 3 26 C4.2976183 20.70139194 6.15015702 16.65474354 9 12 C8.3503125 11.38511719 7.700625 10.77023438 7.03125 10.13671875 C6.1959375 9.32847656 5.360625 8.52023438 4.5 7.6875 C3.6646875 6.88699219 2.829375 6.08648437 1.96875 5.26171875 C0 3 0 3 0 0 Z " fill="#99716C" transform="translate(105,89)"/>
<path d="M0 0 C1.83203125 1.0390625 1.83203125 1.0390625 3.8125 2.625 C4.50988281 3.17671875 5.20726562 3.7284375 5.92578125 4.296875 C6.61027344 4.85890625 7.29476562 5.4209375 8 6 C8.61230469 6.50015625 9.22460938 7.0003125 9.85546875 7.515625 C11.24660187 8.66554027 12.62479842 9.83107866 14 11 C13.67 11.99 13.34 12.98 13 14 C9.34584258 12.43636055 6.7880312 10.17824958 3.875 7.5 C3.00617188 6.7059375 2.13734375 5.911875 1.2421875 5.09375 C-0.19408422 3.75256247 -1.61045683 2.38954317 -3 1 C-2.01 0.67 -1.02 0.34 0 0 Z " fill="#7F4C45" transform="translate(148,220)"/>
<path d="M0 0 C0.66 0.33 1.32 0.66 2 1 C-1.9695559 6.55737826 -5.97559476 9.87623432 -12 13 C-12.66 13 -13.32 13 -14 13 C-14 12.34 -14 11.68 -14 11 C-14.66 10.67 -15.32 10.34 -16 10 C-15.26394531 9.61328125 -14.52789062 9.2265625 -13.76953125 8.828125 C-6.51542002 4.97364007 -6.51542002 4.97364007 0 0 Z " fill="#82504A" transform="translate(185,183)"/>
<path d="M0 0 C0.33 0 0.66 0 1 0 C1.08685287 3.29150125 1.14033895 6.5827096 1.1875 9.875 C1.21263672 10.81214844 1.23777344 11.74929687 1.26367188 12.71484375 C1.27333984 13.61074219 1.28300781 14.50664063 1.29296875 15.4296875 C1.3086792 16.25710449 1.32438965 17.08452148 1.34057617 17.93701172 C1.22818604 18.61779785 1.1157959 19.29858398 1 20 C0.01 20.66 -0.98 21.32 -2 22 C-2.10792492 14.91293037 -2.03581937 8.02055353 -1 1 C-0.67 0.67 -0.34 0.34 0 0 Z " fill="#753E38" transform="translate(215,113)"/>
<path d="M0 0 C0.33 0.66 0.66 1.32 1 2 C1.99 2 2.98 2 4 2 C4 3.65 4 5.3 4 7 C0.37 7 -3.26 7 -7 7 C-5.12050295 3.42895561 -3.82946843 1.45255699 0 0 Z " fill="#EDE6E5" transform="translate(181,116)"/>
<path d="M0 0 C2.555616 0.97185397 4.83661117 1.99843828 7.25 3.25 C12.11782022 5.71805314 16.69845375 7.65401157 22 9 C22 9.33 22 9.66 22 10 C13.00073694 11.02264353 4.76900341 6.10030735 -3 2 C-2.01 1.34 -1.02 0.68 0 0 Z " fill="#8D5F5A" transform="translate(111,162)"/>
<path d="M0 0 C0.33 0.99 0.66 1.98 1 3 C-2.63 6.63 -6.26 10.26 -10 14 C-10.99 13.67 -11.98 13.34 -13 13 C-12.04882866 11.8274869 -11.08882991 10.66212985 -10.125 9.5 C-9.59132812 8.8503125 -9.05765625 8.200625 -8.5078125 7.53125 C-8.01023438 7.0259375 -7.51265625 6.520625 -7 6 C-6.34 6 -5.68 6 -5 6 C-5 5.01 -5 4.02 -5 3 C-2.5 1.3125 -2.5 1.3125 0 0 Z " fill="#78433C" transform="translate(196,174)"/>
<path d="M0 0 C2.31 0 4.62 0 7 0 C6.67 2.31 6.34 4.62 6 7 C3.03 6.505 3.03 6.505 0 6 C0 4.02 0 2.04 0 0 Z " fill="#EDE7E6" transform="translate(92,124)"/>
<path d="M0 0 C0.84269359 2.38852642 1.13369301 3.61369367 0.29296875 6.04296875 C-0.07183594 6.75066406 -0.43664062 7.45835938 -0.8125 8.1875 C-2.97870989 12.69981263 -4.11776456 17.08966327 -5 22 C-5.66 21.34 -6.32 20.68 -7 20 C-7 12.39398486 -3.57694475 6.56320138 0 0 Z " fill="#8D605A" transform="translate(98,95)"/>
<path d="M0 0 C0.33 0 0.66 0 1 0 C1.07347656 1.13888672 1.07347656 1.13888672 1.1484375 2.30078125 C1.22320312 3.29464844 1.29796875 4.28851563 1.375 5.3125 C1.44460937 6.29863281 1.51421875 7.28476563 1.5859375 8.30078125 C1.83865472 11.21528433 1.83865472 11.21528433 4 14 C3.19185349 15.33597652 2.37836819 16.668725 1.5625 18 C0.88380859 19.11375 0.88380859 19.11375 0.19140625 20.25 C-0.20175781 20.8275 -0.59492188 21.405 -1 22 C-1.33 22 -1.66 22 -2 22 C-2 19.03 -2 16.06 -2 13 C-1.67 13 -1.34 13 -1 13 C-0.67 8.71 -0.34 4.42 0 0 Z " fill="#8D5F5A" transform="translate(229,134)"/>
<path d="M0 0 C2 1 4 2 6 3 C6.33 2.34 6.66 1.68 7 1 C7.66 2.32 8.32 3.64 9 5 C8.01 5.495 8.01 5.495 7 6 C6.34786708 8.02463255 6.34786708 8.02463255 6 10 C5.34 9.01 4.68 8.02 4 7 C1.94074861 6.27617533 1.94074861 6.27617533 0 6 C0 4.02 0 2.04 0 0 Z " fill="#83524C" transform="translate(145,166)"/>
<path d="M0 0 C0.33 0 0.66 0 1 0 C1.33 2.64 1.66 5.28 2 8 C1.360625 8.28875 0.72125 8.5775 0.0625 8.875 C-2.15206079 9.82823451 -2.15206079 9.82823451 -3 12 C-3.99 11.34 -4.98 10.68 -6 10 C-5.01 7.69 -4.02 5.38 -3 3 C-2.34 3 -1.68 3 -1 3 C-0.67 2.01 -0.34 1.02 0 0 Z " fill="#EBE3E2" transform="translate(173,78)"/>
<path d="M0 0 C1.07314453 0.05478516 2.14628906 0.10957031 3.25195312 0.16601562 C4.9312793 0.27526367 4.9312793 0.27526367 6.64453125 0.38671875 C8.34125977 0.47856445 8.34125977 0.47856445 10.07226562 0.57226562 C12.86828428 0.72563374 15.66266888 0.89349829 18.45703125 1.07421875 C18.45703125 1.40421875 18.45703125 1.73421875 18.45703125 2.07421875 C17.2040625 2.13480469 15.95109375 2.19539062 14.66015625 2.2578125 C13.00910401 2.34224131 11.3580629 2.42688814 9.70703125 2.51171875 C8.88203125 2.55103516 8.05703125 2.59035156 7.20703125 2.63085938 C6.4078125 2.67275391 5.60859375 2.71464844 4.78515625 2.7578125 C4.05200195 2.79447021 3.31884766 2.83112793 2.56347656 2.86889648 C0.43860256 3.0203001 0.43860256 3.0203001 -1.64160156 3.62133789 C-4.15586111 4.22020171 -6.06509179 3.69368799 -8.54296875 3.07421875 C-5.96147901 -0.27215684 -4.10059992 -0.23865925 0 0 Z " fill="#A27D78" transform="translate(126.54296875,198.92578125)"/>
<path d="M0 0 C0.33 0 0.66 0 1 0 C1.20674944 5.78898419 0.59162079 10.42932723 -1 16 C-1.33 16 -1.66 16 -2 16 C-2.33 17.65 -2.66 19.3 -3 21 C-3.33 21 -3.66 21 -4 21 C-4.5939348 13.42733125 -2.43286286 7.12481267 0 0 Z " fill="#90655F" transform="translate(80,99)"/>
<path d="M0 0 C0.33 0.66 0.66 1.32 1 2 C1.66 2 2.32 2 3 2 C4.3726682 3.97321053 5.70427617 5.97543152 7 8 C7.66 8.66 8.32 9.32 9 10 C4.38461538 10 4.38461538 10 2 9 C0.875 6.5625 0.875 6.5625 0 4 C-0.66 3.34 -1.32 2.68 -2 2 C-1.34 2 -0.68 2 0 2 C0 1.34 0 0.68 0 0 Z " fill="#8E625C" transform="translate(173,157)"/>
<path d="M0 0 C2.16099373 2.16099373 2.71563716 3.5210418 3.6875 6.375 C3.95949219 7.14585938 4.23148438 7.91671875 4.51171875 8.7109375 C5.04278009 11.20055308 4.81115526 12.61553018 4 15 C1.02468861 11.61896433 0.19117716 8.28823777 -1 4 C-1.66 3.34 -2.32 2.68 -3 2 C-2.01 2 -1.02 2 0 2 C0 1.34 0 0.68 0 0 Z " fill="#926661" transform="translate(195,97)"/>
<path d="M0 0 C0.66 0.33 1.32 0.66 2 1 C1.67 1.33 1.34 1.66 1 2 C1.99 2.66 2.98 3.32 4 4 C2.14375 4.680625 2.14375 4.680625 0.25 5.375 C-2.59245495 6.4384007 -5.32663046 7.55192483 -8 9 C-6.64531705 4.12314139 -4.28324091 2.51407619 0 0 Z " fill="#83514B" transform="translate(132,217)"/>
<path d="M0 0 C0.66 0 1.32 0 2 0 C2 1.98 2 3.96 2 6 C-3.29230769 9.07692308 -3.29230769 9.07692308 -6.875 8.6875 C-7.57625 8.460625 -8.2775 8.23375 -9 8 C-5.25 6 -5.25 6 -3 6 C-3 5.34 -3 4.68 -3 4 C-2.34 4 -1.68 4 -1 4 C-0.67 2.68 -0.34 1.36 0 0 Z " fill="#DDD0CE" transform="translate(145,137)"/>
<path d="M0 0 C0.99 0 1.98 0 3 0 C3.05422947 1.4370809 3.09289723 2.87475462 3.125 4.3125 C3.14820313 5.11300781 3.17140625 5.91351563 3.1953125 6.73828125 C3 9 3 9 1 12 C0.34 11.67 -0.32 11.34 -1 11 C-0.67 7.37 -0.34 3.74 0 0 Z " fill="#F3EEEE" transform="translate(158,133)"/>
<path d="M0 0 C0.33 0 0.66 0 1 0 C0.51679152 6.2054142 -0.33318124 11.99945246 -2 18 C-4 15 -4 15 -3.57421875 11.6796875 C-3.28160156 10.42414063 -2.98898438 9.16859375 -2.6875 7.875 C-2.40261719 6.61429688 -2.11773437 5.35359375 -1.82421875 4.0546875 C-1 1 -1 1 0 0 Z " fill="#91655F" transform="translate(186,124)"/>
<path d="M0 0 C0.80824219 0.11085938 1.61648437 0.22171875 2.44921875 0.3359375 C3.37154297 0.47902344 3.37154297 0.47902344 4.3125 0.625 C4.3125 1.285 4.3125 1.945 4.3125 2.625 C3.6525 2.625 2.9925 2.625 2.3125 2.625 C2.3125 3.615 2.3125 4.605 2.3125 5.625 C1.6525 5.625 0.9925 5.625 0.3125 5.625 C0.3125 4.965 0.3125 4.305 0.3125 3.625 C-2.97446233 2.82546862 -4.39773192 2.52841064 -7.6875 3.625 C-7.6875 2.965 -7.6875 2.305 -7.6875 1.625 C-4.33422361 -0.61051759 -3.78006343 -0.54783528 0 0 Z " fill="#AF8F8B" transform="translate(158.6875,104.375)"/>
<path d="M0 0 C0.99 0 1.98 0 3 0 C5.10770759 2.88834003 6 4.38462395 6 8 C3.69 7.67 1.38 7.34 -1 7 C-0.67 4.69 -0.34 2.38 0 0 Z " fill="#85544E" transform="translate(89,203)"/>
<path d="M0 0 C5.41390868 0.46671627 9.20517932 1.24297811 14 4 C13.67 4.66 13.34 5.32 13 6 C11.20763933 5.52343588 9.41613103 5.04366502 7.625 4.5625 C6.62726563 4.29566406 5.62953125 4.02882813 4.6015625 3.75390625 C2 3 2 3 0 2 C0 1.34 0 0.68 0 0 Z " fill="#875752" transform="translate(147,75)"/>
<path d="M0 0 C0.33 0.99 0.66 1.98 1 3 C0.38125 3.2475 -0.2375 3.495 -0.875 3.75 C-3.42503925 5.25002309 -3.76222348 6.3697249 -5 9 C-6.29470975 10.37086915 -7.62150897 11.71340837 -9 13 C-7.8884208 6.9974723 -4.84752032 3.53737969 0 0 Z " fill="#875751" transform="translate(108,84)"/>
<path d="M0 0 C0.33 0 0.66 0 1 0 C2.33257403 11.52164009 2.33257403 11.52164009 1 17 C0.67 17 0.34 17 0 17 C-1.37745568 11.49017726 -1.8198497 5.45954909 0 0 Z " fill="#8B5D58" transform="translate(77,124)"/>
<path d="M0 0 C0.82638376 2.89234315 1 4.88742431 1 8 C0.34 8 -0.32 8 -1 8 C-1.66 8.66 -2.32 9.32 -3 10 C-3.36923077 3.47692308 -3.36923077 3.47692308 -1.5 1.0625 C-1.005 0.711875 -0.51 0.36125 0 0 Z " fill="#DBCCCB" transform="translate(104,129)"/>
<path d="M0 0 C2.97 1.65 5.94 3.3 9 5 C4.71372952 6.07156762 4.33924618 6.0365854 0.75 4.0625 C0.04359375 3.68222656 -0.6628125 3.30195313 -1.390625 2.91015625 C-1.92171875 2.60980469 -2.4528125 2.30945313 -3 2 C-2.01 1.34 -1.02 0.68 0 0 Z " fill="#83524C" transform="translate(111,162)"/>
<path d="M0 0 C0.66 0 1.32 0 2 0 C2.84069415 1.60032137 3.67231505 3.20541171 4.5 4.8125 C4.9640625 5.70582031 5.428125 6.59914062 5.90625 7.51953125 C7 10 7 10 7 13 C4.42342008 10.71134735 3.15560963 8.53465254 1.8125 5.375 C1.46832031 4.57835937 1.12414062 3.78171875 0.76953125 2.9609375 C0 1 0 1 0 0 Z " fill="#8C5E58" transform="translate(108,132)"/>
<path d="M0 0 C0.99 0.33 1.98 0.66 3 1 C1.29374499 3.78388975 0.52373261 4.85384206 -2.6875 5.75 C-3.8321875 5.87375 -3.8321875 5.87375 -5 6 C-2.25 1.125 -2.25 1.125 0 0 Z " fill="#936963" transform="translate(130,130)"/>
<path d="M0 0 C0.66 0.33 1.32 0.66 2 1 C-0.64 3.64 -3.28 6.28 -6 9 C-6.66 8.67 -7.32 8.34 -8 8 C-5.58443874 4.80800833 -3.31996462 2.25283313 0 0 Z " fill="#84534D" transform="translate(72,55)"/>
<path d="M0 0 C0.33 1.32 0.66 2.64 1 4 C0.01 5.485 0.01 5.485 -1 7 C-2.66666667 7 -4.33333333 7 -6 7 C-4.02 4.69 -2.04 2.38 0 0 Z " fill="#895A54" transform="translate(242,144)"/>
<path d="M0 0 C0.66 0.33 1.32 0.66 2 1 C0.5459375 2.3303125 0.5459375 2.3303125 -0.9375 3.6875 C-3.60122242 6.32615209 -4.7731363 8.14331715 -5 12 C-5.33 12 -5.66 12 -6 12 C-6.3125 9.3125 -6.3125 9.3125 -6 6 C-3.5625 3.1875 -3.5625 3.1875 -1 1 C-0.67 0.67 -0.34 0.34 0 0 Z " fill="#EBE3E3" transform="translate(132,103)"/>
<path d="M0 0 C0 0.66 0 1.32 0 2 C-3.63 1.67 -7.26 1.34 -11 1 C-6.8204355 -1.78637633 -4.85331323 -0.79562512 0 0 Z " fill="#946A65" transform="translate(134,185)"/>
<path d="M0 0 C2 3 2 3 1.75 5.5 C1 8 1 8 -1 11 C-2.60080151 6.99799622 -1.29279692 3.95443764 0 0 Z " fill="#90645F" transform="translate(196,138)"/>
<path d="M0 0 C0.99 0.33 1.98 0.66 3 1 C2.67 1.99 2.34 2.98 2 4 C0.02 4.33 -1.96 4.66 -4 5 C-2.25 1.125 -2.25 1.125 0 0 Z " fill="#7C4841" transform="translate(105,50)"/>
<path d="M0 0 C0.66 0.66 1.32 1.32 2 2 C-0.8125 2.6875 -0.8125 2.6875 -4 3 C-5.875 1.5625 -5.875 1.5625 -7 0 C-3.85179059 -1.04940314 -3.00659136 -1.066855 0 0 Z " fill="#84544E" transform="translate(162,198)"/>
<path d="M0 0 C0.66 0 1.32 0 2 0 C0.55746343 3.36591866 -1.33264727 5.51047079 -4 8 C-4 4.06830895 -2.60580385 2.83572772 0 0 Z " fill="#7D4A43" transform="translate(185,162)"/>
<path d="M0 0 C0.66 0.33 1.32 0.66 2 1 C0.26440562 4.057952 -1.38472619 6.63379989 -4 9 C-3.38461538 3.46153846 -3.38461538 3.46153846 -1.4375 1.125 C-0.963125 0.75375 -0.48875 0.3825 0 0 Z " fill="#EBE4E3" transform="translate(104,125)"/>
<path d="M0 0 C0.66 0.66 1.32 1.32 2 2 C0 4 -2 6 -4 8 C-4.66 7.67 -5.32 7.34 -6 7 C-4.77065985 3.31197956 -3.06140622 2.27643027 0 0 Z " fill="#E4DAD8" transform="translate(122,97)"/>
<path d="M0 0 C0.66 0.33 1.32 0.66 2 1 C-0.64 3.64 -3.28 6.28 -6 9 C-6.33 8.34 -6.66 7.68 -7 7 C-4.66666667 4.66666667 -2.33333333 2.33333333 0 0 Z " fill="#84534C" transform="translate(126,96)"/>
<path d="M0 0 C0.6875 1.6875 0.6875 1.6875 1 4 C-0.4375 6.75 -0.4375 6.75 -2 9 C-2.6875 7.3125 -2.6875 7.3125 -3 5 C-1.5625 2.25 -1.5625 2.25 0 0 Z " fill="#83514B" transform="translate(194,147)"/>
<path d="M0 0 C0.66 0.66 1.32 1.32 2 2 C1.96712417 4.72869407 1.43602229 7.2966618 1 10 C0.34 9.34 -0.32 8.68 -1 8 C-0.96712417 5.27130593 -0.43602229 2.7033382 0 0 Z " fill="#986F69" transform="translate(92,107)"/>
<path d="M0 0 C-1.485 1.485 -1.485 1.485 -3 3 C-5.475 2.01 -5.475 2.01 -8 1 C-4.93251126 -0.86240388 -3.40254489 -1.2151946 0 0 Z " fill="#ECE5E4" transform="translate(142,102)"/>
<path d="M0 0 C0.66 0 1.32 0 2 0 C1.91621094 0.62648437 1.83242187 1.25296875 1.74609375 1.8984375 C1.59333984 3.12433594 1.59333984 3.12433594 1.4375 4.375 C1.33308594 5.18710938 1.22867188 5.99921875 1.12109375 6.8359375 C0.81762672 9.04899186 0.81762672 9.04899186 2 11 C1.01 10.67 0.02 10.34 -1 10 C-1.02689216 8.52093108 -1.04634621 7.04172517 -1.0625 5.5625 C-1.07410156 4.73878906 -1.08570313 3.91507813 -1.09765625 3.06640625 C-1 1 -1 1 0 0 Z " fill="#85554F" transform="translate(146,153)"/>
<path d="M0 0 C0.86625 0.3403125 0.86625 0.3403125 1.75 0.6875 C0 2.25 0 2.25 -2.25 3.6875 C-4.5 3.375 -4.5 3.375 -6.25 2.6875 C-2.80384615 -0.38942308 -2.80384615 -0.38942308 0 0 Z " fill="#D6C5C3" transform="translate(109.25,82.3125)"/>
</svg>
